<svg width="135" height="135" viewBox="0 0 135 135" fill="none" xmlns="http://www.w3.org/2000/svg">
<rect width="135" height="135" rx="67.5" fill="#F4F9F3"/>
<path fill-rule="evenodd" clip-rule="evenodd" d="M50.3807 41.5108C50.7997 41.5 51.5086 41.5752 51.9383 41.6719C52.3573 41.7686 53.0018 41.9834 53.3563 42.1445C53.7108 42.3057 54.2909 42.6494 54.6454 42.918C54.9999 43.1865 55.494 43.6699 55.7411 43.9815C55.9774 44.3037 56.579 45.2168 57.0731 46.0117C57.5565 46.8067 58.1151 47.8057 58.3084 48.2139C58.4911 48.6221 58.7059 49.2236 58.7704 49.5352C58.8348 49.836 58.8885 50.4912 58.8885 50.9746C58.8885 51.4688 58.8133 52.1563 58.7274 52.5108C58.6415 52.8653 58.3729 53.5528 58.1366 54.0469C57.8143 54.7022 57.5135 55.1104 56.9764 55.6475C56.5575 56.0664 55.827 56.625 55.2577 56.9688C54.7206 57.291 54.2694 57.5811 54.2694 57.6133C54.2694 57.6455 55.9881 60.4922 58.0829 63.9512C60.1883 67.4102 61.9286 70.2569 61.9501 70.2891C61.9715 70.3213 62.369 70.1172 62.8309 69.8379C63.2928 69.5586 63.9374 69.2149 64.2596 69.0752C64.5819 68.9248 65.119 68.7529 65.4413 68.6778C65.8065 68.5918 66.4725 68.5596 67.2137 68.5918C68.1268 68.6348 68.578 68.71 69.201 68.9356C69.6415 69.086 70.3182 69.419 70.6942 69.6768C71.0702 69.9238 71.6288 70.3965 71.9295 70.7295C72.2303 71.0625 72.9608 72.126 73.5516 73.0928C74.1424 74.0596 74.7333 75.1231 74.8622 75.4453C74.9911 75.7676 75.1629 76.3047 75.2274 76.627C75.3026 76.9707 75.3241 77.6904 75.3026 78.3457C75.2596 79.1729 75.1737 79.667 74.9911 80.1719C74.8514 80.5586 74.5614 81.1494 74.3573 81.4932C74.1532 81.8369 73.7127 82.3848 73.3905 82.7178C73.0682 83.0401 72.4022 83.5557 71.0272 84.4151L71.0809 87.1006L83.0047 87.208C83.8167 87.6772 84.5957 88.2174 85.0135 89.0879C85.444 89.9488 85.3975 91.2516 84.9383 92.085C84.4122 93.0714 83.4697 93.5748 82.4676 93.9756L63.7225 94.0078C51.4872 94.0293 44.8485 93.9971 44.6014 93.9326C44.3973 93.8682 44.118 93.7178 43.9784 93.5781C43.828 93.4277 43.7206 93.1807 43.7098 92.9551C43.6991 92.751 43.7743 92.4502 43.8817 92.2783C43.9784 92.1172 44.1825 91.9453 44.3329 91.8809C44.5047 91.8057 51.1219 91.7735 63.4002 91.7735C79.9002 91.7735 82.242 91.752 82.5213 91.6123C82.6932 91.5264 82.9188 91.3008 83.0047 91.1289C83.0907 90.957 83.1659 90.6348 83.1659 90.4307C83.1659 90.1406 83.0799 89.9688 82.4139 89.3027H76.2694C72.5311 89.3027 69.953 89.2598 69.7166 89.1953C69.4374 89.1201 69.244 88.9805 69.0936 88.7334C68.911 88.4434 68.8788 88.1963 68.8788 87.0684C68.8788 86.3486 68.8573 85.7578 68.825 85.7578C68.7928 85.7578 68.4168 85.9297 67.9979 86.1338C67.5682 86.3379 66.8055 86.585 66.3006 86.6817C65.6454 86.8106 65.119 86.8428 64.4208 86.7998C63.8514 86.7569 63.0995 86.6279 62.5946 86.4668C62.1219 86.3164 61.4237 86.0156 61.037 85.7901C60.6502 85.5645 59.952 84.9951 59.4793 84.5225C58.6522 83.6846 58.287 83.0938 49.7147 68.9893C44.4188 60.2881 40.6805 54.0361 40.5086 53.585C40.3475 53.166 40.1542 52.4893 40.079 52.0811C40.0038 51.6406 39.9823 50.9531 40.0145 50.416C40.0467 49.9111 40.1756 49.1592 40.3045 48.751C40.4334 48.332 40.7127 47.6553 40.9276 47.2471C41.1854 46.7637 41.6043 46.2051 42.1307 45.6787C42.8075 45.002 43.3124 44.6367 45.1922 43.5195C46.4383 42.7783 47.6415 42.0908 47.8778 41.9834C48.1141 41.8867 48.5975 41.7363 48.952 41.6611C49.3065 41.586 49.951 41.5108 50.3807 41.5108ZM46.3202 45.335C44.9989 46.1406 44.0321 46.8067 43.6883 47.1397C43.3983 47.4404 43.0008 47.9668 42.8075 48.3213C42.6249 48.6758 42.3885 49.2559 42.3026 49.6104C42.2059 49.9649 42.1307 50.5235 42.1307 50.8457C42.1307 51.168 42.2059 51.7373 42.2918 52.1026C42.3778 52.4785 42.5282 52.9404 42.6249 53.1231C42.7215 53.3164 46.7713 59.9981 51.6161 67.9795C58.7274 79.667 60.5536 82.5996 61.037 83.083C61.4129 83.459 61.9178 83.8242 62.4334 84.0713C62.8739 84.2969 63.5292 84.5225 63.8836 84.5869C64.2381 84.6514 64.8719 84.6836 65.2801 84.6514C65.6991 84.6192 66.3006 84.501 66.6229 84.3828C66.9452 84.2754 68.1375 83.6309 69.2547 82.9649C70.3827 82.2881 71.5321 81.5254 71.8114 81.2569C72.1444 80.9453 72.4774 80.4727 72.7245 79.957C73.0682 79.2695 73.1219 79.0225 73.1649 78.2383C73.1864 77.6152 73.1542 77.1319 73.036 76.7344C72.9393 76.4121 72.3915 75.3486 71.8114 74.3819C71.2098 73.3721 70.5223 72.3731 70.2215 72.0615C69.8885 71.7178 69.3944 71.374 68.9325 71.1485C68.2987 70.8369 68.0301 70.7725 67.2137 70.7403C66.5262 70.708 66.0643 70.7403 65.6346 70.8692C65.2909 70.9658 64.3241 71.4492 63.4862 71.9541C62.412 72.5879 61.8426 72.8672 61.6063 72.8672C61.37 72.8672 61.1444 72.7705 60.9295 72.5664C60.7577 72.4053 58.8133 69.3008 56.6004 65.6699C54.3983 62.0391 52.3895 58.7197 52.1424 58.3115C51.8524 57.8281 51.6913 57.4307 51.6913 57.1836C51.6913 56.9688 51.7665 56.711 51.8739 56.5928C51.9813 56.4746 52.7225 55.9805 53.5174 55.4971C54.3661 54.9922 55.1717 54.4014 55.4618 54.1006C55.7303 53.8213 56.0311 53.4561 56.1278 53.2842C56.2245 53.1231 56.4071 52.7041 56.5252 52.3496C56.6542 51.9629 56.7401 51.4151 56.7401 50.9746C56.7401 50.5772 56.6649 49.9863 56.5682 49.6641C56.4715 49.3418 55.9344 48.2998 55.3651 47.3545C54.7958 46.4092 54.1083 45.3994 53.8397 45.1094C53.5711 44.8301 53.1415 44.4649 52.8729 44.3145C52.6043 44.1641 52.1102 43.9492 51.7772 43.8418C51.4227 43.7344 50.8426 43.6485 50.4344 43.6592C50.0155 43.6592 49.4247 43.7559 49.0594 43.8633C48.7049 43.9815 47.4696 44.6475 46.3202 45.335Z" fill="#145333"/>
<path fill-rule="evenodd" clip-rule="evenodd" d="M74.6636 50.2C74.7925 50.2 75.0288 50.2645 75.1899 50.3504C75.3618 50.4256 75.5337 50.5867 75.5981 50.6942C75.6519 50.8016 75.727 51.7147 75.813 54.5506L93.8611 54.6551C94.1817 54.657 94.4866 54.7946 94.7001 55.0339V55.0339C94.8854 55.2415 94.9878 55.5101 94.9878 55.7884V63.0993C94.9878 63.4377 94.8534 63.7622 94.6141 64.0014V64.0014C94.3721 64.2434 94.0431 64.378 93.7009 64.375L75.8667 64.2186V67.9246C75.5 68.5 75.3369 68.5861 74.8462 68.6014C74.4487 68.6121 74.0298 68.3221 68.7231 64.4119C65.5972 62.1024 62.9331 60.1043 62.8149 59.9754C62.6753 59.825 62.6001 59.5887 62.6001 59.3201C62.6001 58.9979 62.6753 58.8367 62.9224 58.6004C63.105 58.4285 65.6616 56.5272 68.6157 54.368C71.5698 52.2088 74.0835 50.3934 74.2017 50.3289C74.3198 50.2645 74.5239 50.2 74.6636 50.2ZM69.5825 56.3231C67.3911 57.9237 65.5972 59.2664 65.5757 59.3094C65.5649 59.3524 66.7251 60.2547 68.1538 61.3182C69.5933 62.3817 71.4087 63.7244 72.1821 64.2938C72.9663 64.8739 73.6323 65.3143 73.6645 65.2606C73.6968 65.2176 73.7183 64.6698 73.7183 64.0252C73.7183 63.3914 73.7612 62.7791 73.8257 62.661C73.8901 62.5428 74.0942 62.3709 74.2876 62.2635C74.5991 62.1024 75.394 62.0916 83.7407 62.1561L92.8394 62.2313V56.7528C78.2192 56.7528 74.6958 56.7098 74.438 56.6453C74.2017 56.5809 73.9653 56.4198 73.8579 56.2479C73.7075 56.033 73.6538 55.6463 73.6108 54.6795L73.5464 53.4119L69.5825 56.3231Z" fill="#76AA84"/>
<rect x="60.7998" y="43.5" width="3.7" height="2" rx="1" transform="rotate(-29.43 60.7998 43.5)" fill="#76AA84"/>
<rect x="58" y="41.2382" width="3.7" height="2" rx="1" transform="rotate(-61.0666 58 41.2382)" fill="#76AA84"/>
<rect width="3.7" height="2" rx="1" transform="matrix(-1 0.000872665 0.000872665 1 65.855 47.0955)" fill="#76AA84"/>
</svg>
