<svg width="135" height="135" viewBox="0 0 135 135" fill="none" xmlns="http://www.w3.org/2000/svg">
<rect width="135" height="135" rx="67.5" fill="#F4F9F3"/>
<path fill-rule="evenodd" clip-rule="evenodd" d="M87.0784 72.2266H53.509C43.97 72.2266 42.595 72.2588 42.3802 72.3555C42.219 72.4307 42.0256 72.624 41.9505 72.7852C41.8323 73.0215 41.8 73.8594 41.8 76.792C41.8 79.5312 41.8323 80.5732 41.9397 80.7774C42.0042 80.9385 42.1975 81.1318 42.3587 81.207C42.5735 81.3145 43.1213 81.3574 44.3245 81.3574H45.9895C46.0361 81.6956 46.1713 82.6949 46.3556 84.0619C46.511 85.2138 46.7012 86.6267 46.9026 88.125C47.3538 91.4014 47.7727 94.2266 47.8479 94.3877C47.9124 94.5596 48.0842 94.7637 48.2132 94.8496C48.428 94.9785 51.3391 95 67.5813 95C83.8235 95 86.7346 94.9785 86.9387 94.8496C87.0784 94.7637 87.2502 94.5596 87.3147 94.3877C87.3899 94.2266 87.8088 91.4014 88.26 88.125C88.7004 84.8486 89.0872 81.9805 89.1194 81.7549L89.1731 81.3574C92.0413 81.3574 92.5891 81.3145 92.7932 81.207C92.9651 81.1318 93.1584 80.9385 93.2229 80.7774C93.3303 80.5732 93.3625 79.5312 93.3625 76.792C93.3625 73.8594 93.3303 73.0215 93.2121 72.7852C93.137 72.624 92.9436 72.4307 92.7824 72.3555C92.5676 72.2588 91.1926 72.2266 87.0784 72.2266ZM91.2034 79.209H43.9378V74.375H91.2034V79.209ZM48.9063 86.9604C48.5309 84.1773 48.2124 81.8154 48.181 81.6475L48.1379 81.3574H87.014L86.9602 81.6475C86.9284 81.817 86.604 84.2234 86.224 87.0417L86.2083 87.1582C85.8215 90.0264 85.4885 92.4756 85.4026 92.8516H49.7386L49.6849 92.6045C49.6525 92.4756 49.3196 90.0264 48.9329 87.1582L48.9063 86.9604Z" fill="#145333"/>
<path fill-rule="evenodd" clip-rule="evenodd" d="M53.509 72.2266H55.6574C55.6574 67.543 55.6896 66.9736 55.797 67.0058C55.8334 67.018 55.9794 67.0609 56.1729 67.1192C56.3223 67.1642 56.5001 67.2183 56.6779 67.2744C57.0861 67.4033 57.7952 67.543 58.2355 67.5752C58.6759 67.6074 59.4065 67.5752 59.8469 67.5108C60.2873 67.4355 60.9641 67.2529 61.3508 67.1025C61.7375 66.9521 62.3606 66.6191 62.7473 66.3721C63.1339 66.1143 63.671 65.6738 63.9396 65.3945C64.2082 65.1045 64.5949 64.5996 64.8098 64.2773C65.0138 63.9551 65.3147 63.3428 65.4865 62.9346C65.6477 62.5264 65.8303 61.8174 65.8947 61.377C66.0021 60.6465 65.9914 60.5391 65.7981 60.1953C65.6692 59.9697 65.2502 59.5937 64.7239 59.25C64.2082 58.9062 63.5422 58.5732 63.0158 58.4014C62.4787 58.2295 61.7912 58.1113 61.1896 58.0791C60.6418 58.0469 59.9006 58.0791 59.4709 58.1435C59.0627 58.2188 58.3537 58.4336 57.9133 58.6162C57.4729 58.7988 56.8069 59.1856 56.4416 59.4648C56.0656 59.7441 55.7433 59.9482 55.7111 59.9053C55.6789 59.8516 55.6467 59.2178 55.6467 58.4766V57.1338C56.7746 56.5107 57.5373 55.9951 58.0744 55.5977C58.6008 55.2002 59.5031 54.416 60.0617 53.8574C60.6203 53.2988 61.4152 52.3965 61.8127 51.8701C62.2209 51.333 62.801 50.3662 63.1232 49.7217C63.4348 49.0771 63.7678 48.2285 63.8645 47.8418C63.9611 47.4551 64.0363 46.6924 64.0363 46.123C64.0363 45.543 63.9611 44.8232 63.8645 44.458C63.7678 44.1035 63.5422 43.5234 63.3596 43.1797C63.1662 42.8252 62.7795 42.2666 62.4787 41.9443C62.1886 41.6221 61.6515 41.1709 61.2971 40.9453C60.9426 40.7197 60.2873 40.4082 59.8469 40.2686C59.2453 40.0645 58.8049 40 58.1281 40C57.4299 40 57.0217 40.0645 56.4094 40.2686C55.969 40.4189 55.3889 40.6768 55.1203 40.8379L54.6369 41.1494C53.6379 40.5908 53.0363 40.333 52.6496 40.2148C52.1662 40.0645 51.6506 40 50.9846 40.0108C50.4475 40.0108 49.921 40.0537 49.8029 40.0967C49.6848 40.1504 49.298 40.3008 48.9436 40.4297C48.5891 40.5693 47.9983 40.8916 47.6223 41.1494C47.257 41.3965 46.7521 41.8691 46.5159 42.1699C46.2687 42.4815 45.9357 43.0186 45.7639 43.3516C45.592 43.6953 45.3771 44.2754 45.2912 44.6406C45.2053 45.0166 45.1301 45.6826 45.1301 46.123C45.1301 46.5635 45.2053 47.2295 45.2912 47.5947C45.3771 47.9707 45.592 48.6475 45.7746 49.0986C45.9464 49.5605 46.4191 50.4414 46.8273 51.0645C47.257 51.709 48.052 52.6865 48.6857 53.3633C49.298 54.0078 50.1467 54.8027 50.5549 55.1465C50.9631 55.4795 51.5969 55.9521 51.9514 56.1885C52.3058 56.4248 52.8 56.7256 53.0471 56.8545L53.509 57.0801C53.509 59.3252 53.4875 59.9805 53.4553 59.9805C53.4231 59.9805 53.1974 59.8086 52.9504 59.6045C52.6926 59.3896 52.1769 59.0566 51.7902 58.8525C51.4036 58.6484 50.7053 58.3906 50.2326 58.2617C49.6955 58.1221 49.0295 58.0469 48.4602 58.0469C47.8908 58.0469 47.2248 58.1221 46.6877 58.2617C46.215 58.3906 45.4954 58.6699 45.0764 58.8848C44.6682 59.0996 44.0881 59.5078 43.7873 59.7764C43.4995 60.0468 43.366 60.1724 43.3073 60.3265C43.2564 60.4601 43.2617 60.6151 43.2717 60.9043C43.2932 61.2588 43.3683 61.8281 43.465 62.1826C43.551 62.5371 43.798 63.1709 44.0021 63.5791C44.2063 63.9873 44.5823 64.5996 44.84 64.9219C45.0979 65.2441 45.6242 65.749 46.0001 66.0391C46.3761 66.3291 47.0315 66.7266 47.4396 66.9199C47.8478 67.1133 48.5998 67.3496 49.1047 67.457C49.7492 67.5859 50.2648 67.6182 50.8771 67.5752C51.3498 67.5322 52.0481 67.4141 52.4348 67.3066C52.668 67.2354 52.9052 67.1641 53.0779 67.1093C53.1915 67.0733 53.2772 67.0444 53.3156 67.0274C53.4983 66.9629 53.509 67.1348 53.509 69.5947V72.2266ZM48.8039 42.9433C49.0617 42.75 49.47 42.5352 49.7277 42.4492C49.9856 42.374 50.2756 42.2773 50.3722 42.2451C50.469 42.2021 50.8019 42.1699 51.092 42.1592C51.3927 42.1484 51.887 42.2236 52.1984 42.3096C52.5315 42.4062 53.0363 42.6855 53.4553 43.0078C53.8419 43.2978 54.2824 43.5772 54.4543 43.6094C54.6154 43.6523 54.8625 43.6201 55.0129 43.5449C55.1633 43.4697 55.4426 43.2656 55.6359 43.1045C55.8186 42.9326 56.2375 42.6641 56.549 42.5029C57.0324 42.2559 57.2365 42.2129 58.0744 42.2021C58.8908 42.2021 59.1271 42.2451 59.632 42.4815C59.9543 42.6318 60.4162 42.9219 60.6525 43.1367C60.8889 43.3408 61.2541 43.8242 61.4582 44.2002C61.7912 44.8232 61.8342 44.9951 61.8664 45.9082C61.9094 46.7998 61.8772 47.0361 61.6193 47.7881C61.4582 48.2607 61.1466 48.959 60.9211 49.3457C60.6955 49.7324 60.2335 50.4092 59.8791 50.8496C59.5246 51.29 58.7404 52.1279 58.1174 52.7187C57.5051 53.2988 56.5598 54.0615 56.0334 54.416C55.507 54.7598 54.9485 55.082 54.798 55.1143C54.6154 55.1572 54.3362 55.0713 53.885 54.8457C53.5305 54.6523 52.8967 54.2549 52.4885 53.9434C52.0803 53.6318 51.1994 52.8477 50.5549 52.2031C49.8781 51.5264 49.1047 50.6133 48.7609 50.0977C48.4279 49.5928 48.0305 48.916 47.88 48.5938C47.7297 48.2715 47.5364 47.7129 47.4396 47.3584C47.3537 47.0039 47.2785 46.4453 47.2785 46.123C47.2785 45.8008 47.3537 45.2637 47.4503 44.9414C47.5364 44.6191 47.7726 44.1143 47.9768 43.8135C48.1701 43.5127 48.5461 43.126 48.8039 42.9433ZM45.592 61.0869C45.6672 61.001 45.9787 60.8076 46.2795 60.668H46.2902C46.591 60.5283 47.0315 60.3672 47.257 60.3135C47.4719 60.2598 47.9983 60.2168 48.4064 60.2061C48.8254 60.2061 49.3732 60.249 49.6418 60.3135C49.9103 60.3779 50.3937 60.5498 50.716 60.7002C51.0705 60.8721 51.5861 61.2695 52.0051 61.6885C52.4026 62.0859 52.8322 62.6553 52.9934 62.9883C53.1545 63.3105 53.3263 63.7725 53.3801 64.0088C53.4768 64.417 53.466 64.4492 53.1437 64.6641C52.9612 64.7822 52.5207 64.9971 52.1662 65.126C51.8117 65.2656 51.2101 65.3945 50.8234 65.4268C50.426 65.459 49.8459 65.4268 49.4807 65.3516C49.1262 65.2764 48.5246 65.0508 48.1379 64.8574C47.7082 64.6426 47.2033 64.2666 46.8381 63.8799C46.5051 63.5361 46.1184 63.0205 45.9679 62.7197C45.8176 62.4297 45.6457 61.9785 45.5813 61.7207C45.5061 61.377 45.5061 61.2051 45.592 61.0869ZM57.1398 61.6885C57.4729 61.3555 58.01 60.9473 58.3323 60.7861C58.6545 60.625 59.1379 60.4209 59.4065 60.3457C59.675 60.2705 60.2551 60.2061 60.6955 60.2061C61.1466 60.1953 61.759 60.2705 62.092 60.3672C62.4143 60.4639 62.9191 60.668 63.2092 60.8184C63.7248 61.1084 63.7248 61.1192 63.671 61.5381C63.6281 61.7744 63.4455 62.2793 63.2522 62.666C63.0588 63.0635 62.6505 63.6221 62.3069 63.9551C61.9631 64.2988 61.4152 64.6963 61.0178 64.9004C60.631 65.083 59.9865 65.2979 59.5676 65.373C58.9875 65.4697 58.6222 65.4697 58.01 65.373C57.5158 65.2979 56.9358 65.1152 56.5061 64.9004C56.0777 64.6829 55.9121 64.5988 55.8531 64.4671C55.8159 64.3841 55.821 64.2822 55.8293 64.1162C55.8508 63.8799 56.0119 63.375 56.2052 62.9883C56.3987 62.5908 56.796 62.0322 57.1398 61.6885Z" fill="#76AA84"/>
<path fill-rule="evenodd" clip-rule="evenodd" d="M79.5051 72.2266H81.6535C81.6535 68.1445 81.675 66.9629 81.7072 66.9629C81.7259 66.9629 81.8026 66.9883 81.9057 67.0263C81.9801 67.0538 82.0683 67.088 82.1584 67.124C82.384 67.2207 82.9211 67.3603 83.3401 67.4463C83.7697 67.5322 84.3928 67.6074 84.715 67.6074C85.0373 67.6074 85.6818 67.5322 86.133 67.4355C86.5949 67.3496 87.3039 67.1133 87.7228 66.9199C88.1418 66.7266 88.7434 66.3613 89.0656 66.125C89.3879 65.8779 89.9143 65.373 90.2258 65.0078C90.5373 64.6318 90.967 63.9873 91.1603 63.5791C91.3645 63.1709 91.6007 62.5371 91.6975 62.1826C91.7834 61.8281 91.8693 61.2588 91.8908 60.9043C91.9008 60.6151 91.9061 60.4601 91.8552 60.3265C91.7965 60.1724 91.6629 60.0468 91.3752 59.7764C91.0744 59.5078 90.4943 59.0996 90.0861 58.8848C89.6671 58.6699 88.9475 58.3906 88.4748 58.2617C87.9377 58.1221 87.2717 58.0469 86.7023 58.0469C86.133 58.0469 85.467 58.1221 84.9299 58.2617C84.4572 58.3906 83.7589 58.6484 83.3723 58.8525C82.9856 59.0566 82.4699 59.3896 82.2121 59.6045C81.9651 59.8086 81.7394 59.9805 81.7072 59.9805C81.675 59.9805 81.6535 59.3252 81.6535 58.5303V57.0801C82.3625 56.7256 82.9963 56.3281 83.5227 55.9629C84.0598 55.6084 85.0158 54.8027 85.6603 54.1797C86.3157 53.5566 87.132 52.6865 87.4973 52.2353C87.8518 51.7734 88.3889 51 88.6896 50.5166C88.9797 50.0225 89.3879 49.1309 89.592 48.54C89.882 47.7021 89.968 47.2402 90.0109 46.4453C90.0431 45.7256 90.0002 45.21 89.8713 44.6729C89.7746 44.2539 89.5275 43.6094 89.3342 43.2227C89.13 42.8359 88.7541 42.2773 88.4963 41.9873C88.2385 41.6865 87.7444 41.2568 87.3899 41.0313C87.0461 40.7949 86.3694 40.4619 85.8967 40.3008C85.2199 40.0645 84.844 40 84.1242 40C83.4904 40 82.9963 40.0645 82.5129 40.2256C82.1262 40.3437 81.5246 40.6016 81.1701 40.7949L80.5256 41.1494C79.7736 40.6768 79.1935 40.4189 78.7531 40.2686C78.1516 40.0645 77.7219 40 77.0344 40C76.3468 40 75.9171 40.0645 75.3156 40.2686C74.8752 40.4082 74.2199 40.7197 73.8654 40.9453C73.511 41.1709 72.9845 41.6221 72.6838 41.9443C72.383 42.2666 71.9962 42.8252 71.8029 43.1797C71.6203 43.5234 71.3947 44.1035 71.298 44.458C71.2014 44.8232 71.1262 45.543 71.1262 46.123C71.1262 46.6924 71.2014 47.4551 71.298 47.8418C71.3947 48.2285 71.7277 49.0771 72.0393 49.7217C72.3615 50.3662 72.9416 51.333 73.3498 51.8701C73.7473 52.3965 74.5422 53.2988 75.1008 53.8574C75.6701 54.416 76.5617 55.2002 77.0881 55.6084C77.6252 56.0059 78.3771 56.5 78.7746 56.7041L79.5051 57.0801C79.5051 59.207 79.4836 59.8516 79.4514 59.8945C79.4192 59.9482 79.0969 59.7441 78.7316 59.4648C78.3556 59.1856 77.6896 58.7988 77.2492 58.6162C76.8088 58.4336 76.1106 58.2188 75.6916 58.1435C75.2726 58.0791 74.51 58.0361 73.9728 58.0684C73.2961 58.1113 72.7375 58.2188 72.093 58.4336C71.5881 58.6162 70.8254 58.9922 70.3849 59.2822C69.9445 59.583 69.4933 59.959 69.3752 60.1416C69.2141 60.4102 69.1926 60.5928 69.2463 61.1621C69.2785 61.5488 69.4289 62.2256 69.5793 62.666C69.7297 63.1065 70.0304 63.7617 70.2453 64.1162C70.4601 64.4707 70.8898 65.0185 71.1799 65.3301C71.4806 65.6523 72.0286 66.1143 72.4152 66.3721C72.8019 66.6191 73.425 66.9521 73.8117 67.1025C74.1984 67.2529 74.8752 67.4355 75.3156 67.5108C75.756 67.5752 76.4866 67.6074 76.9269 67.5752C77.3673 67.543 78.0656 67.4033 78.4846 67.2744C78.9036 67.1455 79.3009 67.0274 79.3761 67.0058C79.4729 66.9736 79.5051 67.543 79.5051 69.5947V72.2266ZM74.0051 43.7061C74.2307 43.4053 74.6496 43.0078 74.9396 42.8144C75.2404 42.6211 75.6916 42.3955 75.9602 42.3096C76.2287 42.2344 76.6906 42.1592 76.9807 42.1592C77.2814 42.1484 77.7648 42.2129 78.0549 42.3096C78.3556 42.3955 78.8068 42.6104 79.0754 42.793C79.3439 42.9756 79.7306 43.2441 79.9348 43.3945C80.2248 43.6094 80.386 43.6523 80.6652 43.6094C80.8478 43.5772 81.3205 43.3086 81.7072 43.0078C82.1584 42.6641 82.631 42.4062 83.0285 42.2988C83.4475 42.1699 83.8557 42.1377 84.3391 42.1807C84.7257 42.2129 85.2306 42.3203 85.467 42.4277C85.7033 42.5244 86.1008 42.75 86.3586 42.9433C86.6164 43.126 86.9924 43.5234 87.1857 43.8135C87.3899 44.1035 87.6261 44.6191 87.7121 44.9414C87.8088 45.2637 87.884 45.8008 87.884 46.123C87.884 46.4453 87.7981 47.0039 87.7121 47.3584C87.6154 47.7129 87.4221 48.2715 87.2717 48.5938C87.132 48.916 86.7345 49.5928 86.4016 50.0977C86.0578 50.6133 85.2737 51.5264 84.6076 52.2031C83.9631 52.8477 83.093 53.6318 82.674 53.9434C82.255 54.2549 81.632 54.6523 81.2775 54.8457C80.8263 55.0713 80.5471 55.1572 80.3644 55.1143C80.214 55.082 79.6662 54.7598 79.1291 54.416C78.6027 54.0615 77.6574 53.2988 77.0451 52.7187C76.422 52.1279 75.6379 51.29 75.2834 50.8496C74.9289 50.4092 74.4669 49.7324 74.2414 49.3457C74.0159 48.959 73.7043 48.2715 73.5539 47.8096C73.3498 47.208 73.2746 46.7568 73.2746 46.1445C73.2746 45.6826 73.3498 45.0811 73.4357 44.7803C73.5325 44.4795 73.7902 43.9961 74.0051 43.7061ZM71.4806 61.5381C71.4162 61.1192 71.4269 61.0976 71.8781 60.8506C72.136 60.7002 72.6194 60.4961 72.9416 60.3994C73.2746 60.292 73.8761 60.2061 74.3381 60.2061C74.7785 60.1953 75.3908 60.2598 75.6809 60.3457C75.9817 60.4209 76.4866 60.625 76.8088 60.7861C77.1311 60.9473 77.6682 61.3555 78.0012 61.6885C78.3556 62.043 78.7316 62.5801 78.9358 62.9883C79.1184 63.375 79.2902 63.8799 79.3009 64.1162C79.3134 64.2828 79.3211 64.3848 79.2851 64.4679C79.2283 64.5992 79.0626 64.6833 78.635 64.9004C78.2053 65.1152 77.6252 65.2979 77.1311 65.373C76.5188 65.4697 76.1535 65.4697 75.5735 65.373C75.1652 65.2979 74.51 65.083 74.1233 64.9004C73.7258 64.6963 73.1779 64.2988 72.8342 63.9551C72.4904 63.6221 72.0823 63.0635 71.8888 62.666C71.6955 62.2793 71.5128 61.7744 71.4806 61.5381ZM83.1359 61.6885C83.5764 61.2481 84.0812 60.8721 84.468 60.7002C84.801 60.5391 85.2628 60.3672 85.4885 60.3027C85.7033 60.249 86.3479 60.2168 86.9065 60.2383C87.6476 60.2705 88.0881 60.3457 88.5178 60.5176C88.8401 60.6465 89.2375 60.8398 89.4094 60.958C89.6564 61.1299 89.6886 61.2158 89.6349 61.5166C89.6027 61.6992 89.4201 62.2041 89.2161 62.6123C88.9689 63.1494 88.6681 63.5469 88.174 64.0088C87.8088 64.3633 87.2717 64.7607 86.9924 64.9004C86.7023 65.0293 86.1974 65.2119 85.8645 65.2979C85.5207 65.3838 85.0051 65.459 84.7043 65.459C84.4143 65.459 83.8772 65.3838 83.5227 65.2871C83.1681 65.2012 82.6096 64.9756 81.6965 64.4814L81.7824 64.0303C81.8362 63.7832 81.9973 63.3105 82.1476 62.9883C82.3195 62.6445 82.717 62.1074 83.1359 61.6885Z" fill="#76AA84"/>
</svg>
