<svg width="129" height="34" viewBox="0 0 129 34" fill="none" xmlns="http://www.w3.org/2000/svg">
<mask id="mask0_377_6530" style="mask-type:alpha" maskUnits="userSpaceOnUse" x="0" y="0" width="129" height="34">
<rect width="129" height="34" fill="#D9D9D9"/>
</mask>
<g mask="url(#mask0_377_6530)">
<path d="M56.6113 6.16626V26.1001H52.6131V17.6182H44.0741V26.1001H40.0759V6.16626H44.0741V14.3625H52.6131V6.16626H56.6113Z" fill="#2B323A"/>
<path d="M66.7152 26.3571C65.1921 26.3571 63.8213 26.0239 62.6028 25.3576C61.3843 24.6722 60.4228 23.7107 59.7184 22.4732C59.033 21.2356 58.6903 19.8077 58.6903 18.1894C58.6903 16.5711 59.0425 15.1431 59.7469 13.9056C60.4704 12.6681 61.4509 11.7161 62.6885 11.0498C63.926 10.3644 65.3063 10.0217 66.8294 10.0217C68.3526 10.0217 69.7329 10.3644 70.9704 11.0498C72.208 11.7161 73.1789 12.6681 73.8834 13.9056C74.6069 15.1431 74.9686 16.5711 74.9686 18.1894C74.9686 19.8077 74.5974 21.2356 73.8548 22.4732C73.1314 23.7107 72.1413 24.6722 70.8847 25.3576C69.6472 26.0239 68.2574 26.3571 66.7152 26.3571ZM66.7152 22.873C67.4387 22.873 68.1146 22.7016 68.7429 22.3589C69.3902 21.9972 69.9042 21.4641 70.285 20.7597C70.6658 20.0552 70.8562 19.1985 70.8562 18.1894C70.8562 16.6853 70.4564 15.5334 69.6567 14.7338C68.8761 13.9151 67.9147 13.5058 66.7723 13.5058C65.63 13.5058 64.6685 13.9151 63.8879 14.7338C63.1264 15.5334 62.7456 16.6853 62.7456 18.1894C62.7456 19.6935 63.1168 20.8548 63.8594 21.6735C64.6209 22.4732 65.5729 22.873 66.7152 22.873Z" fill="#2B323A"/>
<path d="M85.8121 10.0502C87.697 10.0502 89.2201 10.6499 90.3815 11.8494C91.5429 13.0298 92.1236 14.6862 92.1236 16.8186V26.1001H88.1254V17.3612C88.1254 16.1046 87.8112 15.1431 87.1829 14.4768C86.5547 13.7914 85.6979 13.4487 84.6127 13.4487C83.5084 13.4487 82.6326 13.7914 81.9853 14.4768C81.357 15.1431 81.0429 16.1046 81.0429 17.3612V26.1001H77.0447V10.2787H81.0429V12.2492C81.576 11.5638 82.2519 11.0307 83.0705 10.6499C83.9082 10.2501 84.8221 10.0502 85.8121 10.0502Z" fill="#2B323A"/>
<path d="M101.266 10.0217C102.446 10.0217 103.484 10.2596 104.379 10.7356C105.274 11.1926 105.978 11.7923 106.492 12.5348V10.2787H110.519V26.2143C110.519 27.6803 110.224 28.9845 109.634 30.1268C109.044 31.2882 108.158 32.2021 106.978 32.8685C105.797 33.5539 104.369 33.8966 102.694 33.8966C100.447 33.8966 98.6006 33.373 97.1537 32.3258C95.7257 31.2787 94.9166 29.8508 94.7262 28.0421H98.6958C98.9052 28.7656 99.3527 29.3367 100.038 29.7556C100.743 30.1935 101.59 30.4124 102.58 30.4124C103.741 30.4124 104.684 30.0602 105.407 29.3558C106.131 28.6704 106.492 27.6232 106.492 26.2143V23.7583C105.978 24.5008 105.264 25.1196 104.35 25.6146C103.456 26.1096 102.427 26.3571 101.266 26.3571C99.9333 26.3571 98.7149 26.0144 97.6106 25.329C96.5063 24.6436 95.6305 23.6821 94.9832 22.4446C94.3549 21.188 94.0408 19.7506 94.0408 18.1323C94.0408 16.533 94.3549 15.1146 94.9832 13.8771C95.6305 12.6395 96.4968 11.6876 97.582 11.0212C98.6863 10.3548 99.9143 10.0217 101.266 10.0217ZM106.492 18.1894C106.492 17.2184 106.302 16.3902 105.921 15.7048C105.54 15.0004 105.026 14.4673 104.379 14.1055C103.732 13.7247 103.037 13.5344 102.294 13.5344C101.552 13.5344 100.866 13.7152 100.238 14.077C99.6097 14.4387 99.0956 14.9718 98.6958 15.6762C98.315 16.3616 98.1246 17.1803 98.1246 18.1323C98.1246 19.0842 98.315 19.9219 98.6958 20.6454C99.0956 21.3499 99.6097 21.8925 100.238 22.2733C100.885 22.654 101.571 22.8444 102.294 22.8444C103.037 22.8444 103.732 22.6636 104.379 22.3018C105.026 21.921 105.54 21.3879 105.921 20.7025C106.302 19.9981 106.492 19.1604 106.492 18.1894Z" fill="#2B323A"/>
<path d="M120.593 26.3571C119.069 26.3571 117.699 26.0239 116.48 25.3576C115.262 24.6722 114.3 23.7107 113.596 22.4732C112.91 21.2356 112.568 19.8077 112.568 18.1894C112.568 16.5711 112.92 15.1431 113.624 13.9056C114.348 12.6681 115.328 11.7161 116.566 11.0498C117.803 10.3644 119.184 10.0217 120.707 10.0217C122.23 10.0217 123.61 10.3644 124.848 11.0498C126.085 11.7161 127.056 12.6681 127.761 13.9056C128.484 15.1431 128.846 16.5711 128.846 18.1894C128.846 19.8077 128.475 21.2356 127.732 22.4732C127.009 23.7107 126.019 24.6722 124.762 25.3576C123.525 26.0239 122.135 26.3571 120.593 26.3571ZM120.593 22.873C121.316 22.873 121.992 22.7016 122.62 22.3589C123.268 21.9972 123.782 21.4641 124.162 20.7597C124.543 20.0552 124.734 19.1985 124.734 18.1894C124.734 16.6853 124.334 15.5334 123.534 14.7338C122.754 13.9151 121.792 13.5058 120.65 13.5058C119.507 13.5058 118.546 13.9151 117.765 14.7338C117.004 15.5334 116.623 16.6853 116.623 18.1894C116.623 19.6935 116.994 20.8548 117.737 21.6735C118.498 22.4732 119.45 22.873 120.593 22.873Z" fill="#2B323A"/>
<path d="M16.4262 33.0901H0.300049V10.6604L15.4463 0.100098L30.5926 10.6604V17.2647C30.5926 20.3658 30.2615 22.4634 29.3666 24.0851C28.5041 25.649 27.1922 26.6804 25.2353 27.6238C24.7112 28.948 23.4185 30.3967 21.8037 31.4529C20.2214 32.4883 18.2901 33.1928 16.4262 33.0901ZM2.62306 30.7671H16.4271L16.5043 30.7717C17.8455 30.8615 19.3052 30.3148 20.5337 29.5112C21.92 28.6043 22.9603 27.4352 23.1594 26.537L23.2853 25.9682L23.8126 25.7293C25.5676 24.9348 26.6872 24.1426 27.3343 22.9691C28.0171 21.7316 28.2699 19.9682 28.2699 17.2648V11.861L15.4463 2.92029L2.62306 11.8608V30.7671Z" fill="#2B323A"/>
<path d="M8.77718 10.4538C11.0798 9.83655 13.5042 9.83637 15.8069 10.4532C18.1096 11.0701 20.2093 12.2823 21.8949 13.9679C23.5806 15.6535 24.7928 17.7532 25.4097 20.0559C26.0266 22.3585 26.0265 24.783 25.4093 27.0856L25.2363 27.7336L24.5883 27.9067C22.2857 28.5239 19.8613 28.524 17.5586 27.9071C15.256 27.2902 13.1563 26.078 11.4707 24.3924C9.78504 22.7067 8.57285 20.607 7.95596 18.3044C7.33907 16.0017 7.33923 13.5773 7.9564 11.2747L8.12951 10.6267L8.7775 10.4536L8.77718 10.4538ZM15.2199 12.698C13.5291 12.2454 11.7565 12.191 10.0412 12.5389C9.69324 14.2542 9.74763 16.0268 10.2001 17.7176C10.7148 19.6206 11.7193 21.3556 13.1133 22.7496C14.5074 24.1435 16.2424 25.1479 18.1455 25.6625C19.8362 26.115 21.6088 26.1695 23.3241 25.8216C23.6721 24.1062 23.6177 22.3336 23.1652 20.6428C22.6505 18.7397 21.646 17.0047 20.252 15.6107C18.858 14.2166 17.123 13.2122 15.2199 12.6975V12.698Z" fill="#2B323A"/>
<path fill-rule="evenodd" clip-rule="evenodd" d="M15.2202 12.698C13.5294 12.2455 11.7568 12.1911 10.0415 12.5389C9.6935 14.2543 9.74789 16.0269 10.2004 17.7176C10.7151 19.6207 11.7195 21.3556 13.1136 22.7496C14.5076 24.1436 16.2426 25.1479 18.1457 25.6626C19.8365 26.1151 21.6091 26.1695 23.3244 25.8216C23.6723 24.1063 23.6179 22.3336 23.1655 20.6429C22.6507 18.7398 21.6463 17.0048 20.2523 15.6108C18.8582 14.2167 17.1232 13.2123 15.2202 12.6975V12.698Z" fill="#CCFF66"/>
<path fill-rule="evenodd" clip-rule="evenodd" d="M23.1705 25.8519L10.0415 12.5391C9.6935 14.2544 9.74789 16.027 10.2004 17.7177C10.7151 19.6208 11.7195 21.3557 13.1136 22.7497C14.5076 24.1437 16.2426 25.148 18.1457 25.6627C19.7854 26.1015 21.5027 26.1661 23.1707 25.8518L23.1705 25.8519Z" fill="#99CC33"/>
</g>
</svg>
