<svg width="135" height="135" viewBox="0 0 135 135" fill="none" xmlns="http://www.w3.org/2000/svg">
<rect width="135" height="135" rx="67.5" fill="#F4F9F3"/>
<path fill-rule="evenodd" clip-rule="evenodd" d="M74.0195 44.4377L75.3535 44.5023C76.0958 44.5345 77.3006 44.685 78.0429 44.8355C78.7852 44.986 79.8502 45.2548 80.4096 45.4483C80.9689 45.6311 81.8188 45.9536 82.2921 46.1687C82.7655 46.3729 83.4217 46.6955 83.7444 46.8675C84.0671 47.0503 84.7449 47.4695 85.2505 47.7921C85.7561 48.1254 86.5737 48.7382 87.0793 49.1575C87.5849 49.5768 88.3594 50.2971 88.8005 50.7701C89.2415 51.2324 89.9193 52.028 90.2958 52.5333C90.6723 53.0386 91.2532 53.9094 91.5759 54.4685C91.9094 55.0276 92.3828 55.9629 92.6409 56.5435C92.8991 57.1133 93.2649 58.1346 93.4693 58.7904C93.6737 59.457 93.9319 60.6074 94.0502 61.3492C94.1793 62.091 94.2976 63.1769 94.3406 63.7682C94.3729 64.3595 94.3514 65.4454 94.2868 66.1872C94.2223 66.929 94.0609 68.1116 93.9103 68.8212C93.7705 69.5308 93.48 70.6166 93.2649 71.2402C93.0497 71.8637 92.6517 72.8313 92.3935 73.3904C92.1246 73.9495 91.6835 74.7773 91.4146 75.2181C91.1349 75.6589 90.64 76.3899 90.3173 76.8307C89.9946 77.2715 89.2415 78.1424 88.6499 78.7444C88.0474 79.3572 87.2514 80.1206 86.8641 80.4324C86.4768 80.7441 85.7561 81.2709 85.2505 81.6042C84.7449 81.9375 83.9273 82.4321 83.4217 82.6901C82.9161 82.9481 82.0662 83.3244 81.5391 83.5394C81.0012 83.7437 80.1299 84.034 79.6027 84.1952C79.0649 84.3457 78.0321 84.5715 77.2899 84.7005C76.3002 84.8618 75.4611 84.9156 74.1164 84.9156C72.9545 84.9156 71.8788 84.851 71.158 84.7435C70.5341 84.6468 69.4691 84.421 68.7914 84.2382C68.1136 84.0555 67.0164 83.6899 66.3709 83.4212C65.7147 83.1631 64.8756 82.7653 64.4883 82.5503C64.101 82.3353 63.4448 81.9483 62.283 81.2172L61.4762 82.0128C61.0351 82.4536 58.6147 84.7973 56.0974 87.2055C53.5801 89.6245 50.9875 92.1188 50.3421 92.7423C49.6859 93.3659 48.9113 94.0217 48.6209 94.1937C48.3197 94.3657 47.771 94.6238 47.3837 94.7528C46.8781 94.9248 46.4371 95.0001 45.8239 95.0001C45.2107 95.0001 44.7696 94.9248 44.264 94.7528C43.8768 94.6238 43.3174 94.3765 43.0269 94.2045C42.7257 94.0325 42.1771 93.5702 41.7898 93.1831C41.3057 92.6993 40.9507 92.2155 40.6818 91.6672C40.4559 91.2264 40.2084 90.4954 40.1116 90.0546C40.004 89.5063 39.9718 89.044 40.0256 88.6032C40.0686 88.2484 40.1869 87.6893 40.3052 87.3668C40.4128 87.0443 40.6172 86.6035 40.7463 86.3992C40.8646 86.1949 41.2304 85.7541 41.5316 85.4316C41.8436 85.1091 45.2215 82.4213 49.0404 79.4648C52.8594 76.5082 55.9791 74.0462 55.9898 73.9817C55.9898 73.9172 55.8069 73.4657 55.581 72.9604C55.3444 72.4551 55.0109 71.5842 54.828 71.0252C54.6451 70.4661 54.4085 69.6705 54.3224 69.2512C54.2256 68.8319 54.075 68.0149 53.9889 67.4235C53.9136 66.8322 53.8383 65.5959 53.8383 64.682C53.8383 63.7252 53.9136 62.5318 54.0104 61.8867C54.0965 61.2632 54.3009 60.2741 54.4407 59.6828C54.5913 59.0915 54.785 58.4356 55.0324 57.8551L55.3228 58.3926C55.4842 58.6937 55.8177 59.2205 56.4954 60.2203L56.2803 61.2954C56.0974 62.1555 56.0544 62.8113 56.0544 64.6283C56.0436 66.542 56.0759 67.0688 56.2803 68.0686C56.4094 68.7244 56.7213 69.821 56.958 70.5199C57.1947 71.2079 57.625 72.2508 57.9154 72.8206C58.2059 73.4011 58.733 74.315 59.088 74.8418C59.443 75.3686 60.0992 76.2072 60.5295 76.7017C60.9598 77.1855 61.6806 77.9058 62.1216 78.2929C62.5627 78.6799 63.391 79.3035 63.9504 79.6798C64.5098 80.0561 65.4565 80.6044 66.0482 80.9054C66.6398 81.1957 67.6295 81.6042 68.2535 81.8192C68.8774 82.0235 69.8886 82.303 70.5126 82.4428C71.513 82.6578 71.9326 82.6901 74.1164 82.6793C76.2464 82.6793 76.7412 82.6471 77.6664 82.4536C78.258 82.3245 79.2047 82.0665 79.7641 81.8837C80.3235 81.701 81.4208 81.2387 82.1846 80.8624C82.9483 80.4754 84.0456 79.841 84.605 79.4433C85.1644 79.0347 86.1864 78.1531 86.8641 77.4758C87.5418 76.7985 88.424 75.7771 88.8328 75.2181C89.2308 74.659 89.8655 73.5624 90.2528 72.7991C90.6293 72.0358 91.0918 70.9391 91.2747 70.3801C91.4576 69.821 91.7158 68.8749 91.8449 68.2836C92.0493 67.3483 92.0708 66.8752 92.0708 64.682C92.0708 62.4888 92.0493 62.0158 91.8449 61.0804C91.7158 60.4891 91.4361 59.5 91.2209 58.8764C91.0058 58.2529 90.6185 57.3068 90.3603 56.78C90.1129 56.2532 89.5643 55.3071 89.1447 54.6835C88.7252 54.06 88.0474 53.1676 87.6387 52.6946C87.2299 52.2215 86.4446 51.4474 85.8852 50.9852C85.3258 50.5121 84.4652 49.8563 83.9596 49.5338C83.454 49.2112 82.6364 48.7382 82.1308 48.4909C81.6252 48.2436 80.8829 47.9103 80.4633 47.7491C80.0438 47.5986 79.2692 47.3513 78.7421 47.2115C78.2042 47.0718 77.3652 46.889 75.9774 46.674L75.2674 45.8676C74.8802 45.4268 74.4391 44.9215 74.2885 44.7495L74.0195 44.4377ZM52.386 79.712C52.386 79.7873 53.2251 80.8086 54.2471 81.9913L56.0974 84.1415C57.2269 83.1094 58.2274 82.1525 59.0557 81.3354L60.5618 79.8733C58.9159 78.1424 58.1629 77.2393 57.8294 76.7555C57.4959 76.2609 57.1947 75.8739 57.1732 75.8739C57.1409 75.8739 56.0544 76.7125 54.7527 77.7446C53.451 78.7659 52.386 79.6475 52.386 79.712ZM43.1022 86.8615C42.9086 87.055 42.6289 87.4528 42.489 87.7431C42.2739 88.1731 42.2201 88.4419 42.2201 89.087C42.2201 89.7535 42.2739 90.0116 42.5321 90.5384C42.6934 90.8932 43.07 91.42 43.3604 91.7102C43.6509 91.9898 44.1565 92.3553 44.4792 92.5166C44.9525 92.7423 45.2322 92.7961 45.8239 92.7961C46.4478 92.7961 46.6953 92.7423 47.2224 92.4736C47.7387 92.2263 48.5348 91.5167 51.1812 88.958C52.9992 87.1948 54.4838 85.7219 54.4945 85.6789C54.4945 85.6359 53.6447 84.6038 52.6012 83.3889C51.5469 82.174 50.6648 81.1527 50.6218 81.1097C50.5787 81.0559 48.9544 82.26 47.0072 83.7759C45.0601 85.2918 43.2959 86.6787 43.1022 86.8615ZM78.0429 49.953L78.4517 50.0176C78.6668 50.0498 79.2155 50.2326 79.6565 50.4046C80.1083 50.5766 80.8936 50.9529 81.4208 51.2217C81.9479 51.5012 82.7655 52.028 83.2496 52.3828C83.7337 52.7483 84.5835 53.5224 85.1429 54.103C85.713 54.6943 86.4446 55.5759 86.778 56.0812C87.1115 56.5865 87.6064 57.4358 87.8646 57.9626C88.1335 58.5002 88.4777 59.3172 88.6284 59.7903C88.7897 60.2633 89.0156 61.1342 89.134 61.7255C89.2523 62.3168 89.3814 63.3596 89.4137 64.037C89.4459 64.7358 89.4244 65.7249 89.3491 66.2947C89.2846 66.8537 89.1232 67.7568 89.0049 68.2836C88.8758 68.8212 88.5961 69.735 88.3594 70.3263C88.1335 70.9176 87.6924 71.8422 87.3805 72.369C87.0685 72.9066 86.5737 73.6484 86.2724 74.0355C85.982 74.4225 85.3043 75.1643 84.7664 75.6911C84.2393 76.2179 83.2926 76.9813 82.6686 77.4005C82.0555 77.8198 81.1518 78.3359 80.6785 78.5617C80.2052 78.7767 79.3661 79.0992 78.7959 79.282C78.2365 79.4648 77.3436 79.7013 76.8058 79.798C76.128 79.9378 75.332 79.9916 74.1164 79.9916C72.933 79.9916 72.1047 79.9378 71.427 79.8088C70.8998 79.7013 70.007 79.4755 69.4368 79.3035C68.8774 79.1315 68.0061 78.7874 67.5004 78.5509C67.0056 78.3036 66.3494 77.9596 66.0482 77.7661C65.7577 77.5833 65.1553 77.164 64.7035 76.8307C64.2624 76.4867 63.4879 75.7879 62.9823 75.2611C62.4874 74.7343 61.7666 73.8419 61.3901 73.2829C61.0136 72.7238 60.5295 71.9282 60.3251 71.509C60.1207 71.1004 59.7657 70.1973 59.5398 69.52C59.3139 68.8427 59.045 67.7998 58.9482 67.2085C58.8513 66.5742 58.776 65.5529 58.776 64.682C58.7868 63.8864 58.8083 63.2091 58.8406 63.1769C58.8729 63.1446 59.0557 63.2736 59.2494 63.4564C59.443 63.6392 59.841 63.9725 60.1315 64.1875C60.4327 64.4025 60.7124 64.596 60.7662 64.6068C60.82 64.6175 60.906 65.1658 60.9598 65.8109C61.0136 66.4667 61.1857 67.4451 61.3256 67.9934C61.4654 68.5417 61.7666 69.4125 61.9926 69.9285C62.2185 70.4446 62.6165 71.2294 62.8962 71.6702C63.1651 72.111 63.7245 72.8636 64.1333 73.3366C64.5313 73.7989 65.2629 74.4978 65.747 74.8955C66.2203 75.2826 66.9948 75.8094 67.4682 76.0782C67.9307 76.3469 68.6945 76.7232 69.1679 76.906C69.6412 77.0995 70.4158 77.3575 70.8891 77.4758C71.3624 77.5941 72.2876 77.7446 72.933 77.8091C73.7936 77.8951 74.4283 77.8951 75.2459 77.8091C75.8699 77.7446 76.795 77.5941 77.2899 77.4651C77.7955 77.3468 78.6238 77.078 79.1186 76.8737C79.6243 76.6587 80.3558 76.3039 80.7323 76.0782C81.1196 75.8631 81.7973 75.3901 82.2383 75.0353C82.6902 74.6805 83.3464 74.0785 83.7014 73.7022C84.0564 73.3259 84.5727 72.7023 84.8417 72.3153C85.1214 71.9282 85.5409 71.2509 85.7776 70.8101C86.0143 70.3693 86.3585 69.5738 86.5306 69.0362C86.7027 68.5094 86.9287 67.7031 87.0147 67.2623C87.1115 66.8215 87.2191 65.9937 87.2514 65.4346C87.2944 64.8433 87.2729 63.9617 87.1976 63.3381C87.1331 62.7468 86.9609 61.8007 86.8103 61.2417C86.6597 60.6826 86.3047 59.7365 86.025 59.1452C85.7453 58.5539 85.2505 57.6831 84.9277 57.21C84.605 56.737 83.9058 55.9199 83.3679 55.3823C82.8408 54.8448 81.9909 54.1352 81.4853 53.8019C80.9905 53.4686 80.2052 53.0171 79.7533 52.7913C78.9358 52.3828 78.925 52.3613 78.7421 51.7807C78.6453 51.4582 78.4409 50.9099 78.3011 50.5766L78.0429 49.953Z" fill="#145333"/>
<path fill-rule="evenodd" clip-rule="evenodd" d="M61.4223 40.0082C63.8428 40.0405 64.2516 40.0727 65.4564 40.32C66.1987 40.4813 67.3067 40.7823 67.9307 40.9973C68.5546 41.2016 69.5443 41.6209 70.136 41.9112C70.7277 42.2122 71.5237 42.653 71.911 42.911C72.2983 43.1583 72.976 43.6529 73.4171 44.0076C73.8581 44.3732 74.7295 45.2548 75.3534 45.9751C75.9774 46.6954 76.6551 47.5555 76.8702 47.8888C77.0854 48.2221 77.5372 49.0391 77.8599 49.6842C78.1934 50.3293 78.6345 51.4259 78.8389 52.1032C79.0433 52.7805 79.3122 53.9631 79.4521 54.7372C79.6457 55.8446 79.6995 56.5434 79.6995 58.1238C79.6995 59.4354 79.6349 60.532 79.5166 61.3491C79.4198 62.0264 79.1939 63.1661 79.0218 63.8756C78.8389 64.5852 78.6237 65.37 78.5377 65.6281C78.3763 66.0473 78.3763 66.1011 78.5699 66.4774C78.6775 66.7032 78.968 67.445 79.2046 68.1223C79.4413 68.7996 79.7318 69.8317 79.8609 70.4015C79.9792 70.9821 80.0868 71.6917 80.0868 71.9927C80.0868 72.4012 80.0222 72.5948 79.8501 72.799C79.7102 72.9603 79.4413 73.1001 79.2262 73.1323C79.0218 73.1646 78.7206 73.1431 78.5592 73.0786C78.3871 73.014 78.1827 72.8528 78.0966 72.713C78.0105 72.584 77.8492 71.9712 77.7309 71.3476C77.6018 70.7241 77.3436 69.735 77.1499 69.1437C76.9455 68.5523 76.7196 67.9503 76.6443 67.7998C76.569 67.6493 76.5045 67.5202 76.4937 67.5095C76.4937 67.488 75.9989 67.5525 75.4072 67.6385C74.8155 67.7245 73.6752 67.832 72.8792 67.8643C72.0293 67.9073 70.8675 67.8858 70.0822 67.8105C69.3399 67.746 68.2534 67.5848 67.6617 67.4665C67.0701 67.3482 66.0266 67.0687 65.3489 66.8429C64.6711 66.6172 63.6492 66.1979 63.0898 65.9183C62.5304 65.6388 61.702 65.1873 61.261 64.9185C60.8199 64.6497 60.1852 64.2197 59.8625 63.9724C59.5398 63.7251 58.8943 63.1446 58.4425 62.6823C57.9907 62.2092 57.3667 61.5319 57.0763 61.1556C56.7751 60.7901 56.5276 60.4568 56.5276 60.403C56.5276 60.36 56.3017 59.9622 56.0113 59.5214C55.7208 59.0807 55.3658 58.5001 55.226 58.2421C55.0861 57.984 54.8387 57.5217 54.6881 57.2207C54.5267 56.9197 54.2578 56.2316 54.0749 55.7048C53.9028 55.178 53.6554 54.2749 53.537 53.7159C53.4079 53.1568 53.2573 52.1355 53.182 51.4581C53.1175 50.7486 53.0852 49.6735 53.1282 48.9316C53.1605 48.2221 53.2681 47.1792 53.3541 46.6202C53.451 46.0611 53.6554 45.0612 53.8275 44.4162C53.9996 43.7604 54.3331 42.7283 54.5698 42.1047C54.8495 41.3736 55.1076 40.8791 55.312 40.7071C55.5379 40.492 55.8284 40.3953 56.4738 40.2878C56.9472 40.2233 57.6464 40.1158 58.0337 40.062C58.421 40.0082 59.9378 39.9867 61.4223 40.0082ZM58.3026 42.3197C57.6464 42.3842 57.0332 42.4917 56.9364 42.567C56.8396 42.6423 56.6137 43.1046 56.4416 43.6099C56.2695 44.1152 56.0005 45.0827 55.8499 45.7601C55.6993 46.4374 55.5164 47.534 55.4411 48.1791C55.3766 48.8456 55.3443 49.8562 55.3873 50.4905C55.4196 51.1141 55.5164 52.0279 55.6132 52.5332C55.6993 53.0385 55.8929 53.8879 56.0435 54.4147C56.1941 54.9415 56.6029 55.9628 56.9472 56.6724C57.2914 57.382 57.8401 58.3388 58.152 58.7904C58.4748 59.2419 59.0557 59.973 59.4429 60.403C59.8302 60.8331 60.551 61.5211 61.0566 61.9189C61.5514 62.3275 62.4228 62.9295 62.9822 63.2628C63.5416 63.5961 64.3914 64.0261 64.8648 64.2304C65.3381 64.4239 66.188 64.725 66.7473 64.897C67.3067 65.0583 68.2749 65.2733 68.8989 65.37C69.5228 65.4775 70.5555 65.5851 71.2118 65.6173C71.868 65.6496 73.0298 65.6173 73.7936 65.5528C74.5574 65.4775 75.2351 65.3808 75.2996 65.327C75.3642 65.2625 75.2136 64.9292 74.8693 64.3917C74.5789 63.9294 73.9764 63.0693 73.5354 62.478C73.1051 61.8867 72.4704 61.0911 72.1369 60.7041C71.8142 60.317 70.9858 59.4032 70.2974 58.6721C69.6196 57.941 68.318 56.6617 67.4251 55.8231C66.5214 54.9845 65.7254 54.1889 65.6608 54.0384C65.5963 53.8879 65.5748 53.5976 65.607 53.3933C65.6393 53.1891 65.7469 52.931 65.8545 52.8343C65.962 52.7375 66.188 52.5978 66.3708 52.5332C66.6183 52.4365 66.7796 52.4472 67.0701 52.5655C67.2745 52.6515 68.1674 53.3933 69.0602 54.2212C69.9424 55.049 71.1149 56.1779 71.6421 56.7369C72.1799 57.296 72.9545 58.1346 73.3633 58.6076C73.7828 59.0807 74.439 59.8762 74.8371 60.3815C75.2243 60.8868 75.8375 61.7362 76.1925 62.263C76.7196 63.037 76.8595 63.1876 76.9025 63.0155C76.9348 62.8973 77.0531 62.2415 77.1715 61.5641C77.2898 60.8868 77.4081 59.801 77.4512 59.1452C77.4942 58.4678 77.4727 57.4142 77.4081 56.6724C77.3328 55.9628 77.193 54.9415 77.0854 54.4147C76.9671 53.8879 76.7519 53.06 76.5905 52.587C76.4292 52.114 76.1065 51.3184 75.8698 50.8131C75.6439 50.3078 75.1383 49.4369 74.7725 48.8779C74.396 48.3188 73.6645 47.4157 73.1374 46.8782C72.6102 46.3406 71.7711 45.5988 71.2655 45.2333C70.7599 44.8677 69.8886 44.3302 69.3292 44.0399C68.7698 43.7496 67.7801 43.3411 67.1239 43.1261C66.4677 42.9003 65.4672 42.6315 64.8863 42.524C64.3161 42.4057 63.1758 42.2767 62.3583 42.2122C61.5514 42.1585 60.8414 42.1155 60.7769 42.1262C60.7123 42.137 60.4004 42.1585 60.0776 42.18C59.7549 42.1907 58.9589 42.2552 58.3026 42.3197Z" fill="#76AA84"/>
</svg>
