<svg width="135" height="135" viewBox="0 0 135 135" fill="none" xmlns="http://www.w3.org/2000/svg">
<rect width="135" height="135" rx="67.5" fill="#F4F9F3"/>
<path fill-rule="evenodd" clip-rule="evenodd" d="M78 53.6H92C92.4971 53.6 92.9 54.0029 92.9 54.5V87.5C92.9 87.9971 92.4971 88.4 92 88.4H43C42.5029 88.4 42.1 87.9971 42.1 87.5V54.5C42.1 54.0029 42.5029 53.6 43 53.6H57V51.5H43C41.3431 51.5 40 52.8431 40 54.5V87.5C40 89.1569 41.3431 90.5 43 90.5H92C93.6569 90.5 95 89.1569 95 87.5V54.5C95 52.8431 93.6569 51.5 92 51.5H78V53.6Z" fill="#145333"/>
<path d="M41 60.1L65.7109 78.1903C66.7742 78.9687 68.2209 78.9621 69.2771 78.174L93.5 60.1" stroke="#145333" stroke-width="2.1"/>
<path d="M41 82L56 70.5" stroke="#145333" stroke-width="2.1"/>
<path d="M94 82L79 70.5" stroke="#145333" stroke-width="2.1"/>
<path d="M67.4889 46.4033C67.5074 46.4033 67.526 46.4034 67.5447 46.4035C67.5637 46.4036 67.583 46.4037 67.6026 46.4037C68.506 46.4167 69.272 46.785 69.9212 47.3964C70.5635 48.0628 70.9311 48.9662 70.9242 49.8902C70.924 49.9077 70.924 49.925 70.9239 49.9424C70.9238 49.9595 70.9237 49.9772 70.9235 49.9947C70.9053 51.1351 70.2915 51.9183 69.5427 52.7152L69.3297 52.9416L69.3278 52.9435C69.2731 53.0013 69.2185 53.059 69.1634 53.1164C68.7512 53.5561 68.5898 53.8824 68.5589 54.4767C68.5369 54.882 68.4623 55.1705 68.1604 55.4591C67.9316 55.6398 67.6555 55.7146 67.3669 55.7019C67.0485 55.6573 66.8001 55.4955 66.6043 55.2416C66.445 55.0015 66.4041 54.7642 66.4061 54.4825C66.4061 54.4676 66.4062 54.4529 66.4063 54.438C66.4064 54.423 66.4065 54.4079 66.4065 54.3925C66.424 53.4238 66.7174 52.6681 67.358 51.9468C67.4404 51.853 67.5177 51.7568 67.5947 51.6589C67.7252 51.4978 67.8677 51.3532 68.0137 51.2089C68.4362 50.7933 68.7488 50.4326 68.7866 49.8177C68.7715 49.4818 68.5977 49.117 68.3675 48.8731C68.0804 48.6303 67.7492 48.5351 67.3748 48.5502C67.0038 48.5966 66.6741 48.7495 66.4405 49.0449C66.2605 49.3149 66.1994 49.5807 66.1671 49.8968C66.132 50.2241 66.0046 50.4532 65.7652 50.6765C65.523 50.8678 65.2499 50.9527 64.9408 50.917C64.6206 50.8562 64.3912 50.7205 64.2057 50.4498C63.9316 50.0204 64.0119 49.5498 64.1057 49.0723C64.3043 48.2273 64.8236 47.4373 65.5622 46.9632C65.6401 46.9155 65.7188 46.8708 65.7985 46.8258C65.8335 46.8063 65.8686 46.7867 65.9046 46.7661C66.4027 46.5023 66.9317 46.3985 67.4916 46.402L67.4889 46.4033Z" fill="#76AA84"/>
<path d="M68.5331 57.9931C68.4768 57.7183 68.3638 57.4998 68.1415 57.3267L68.1419 57.3284C67.7159 57.0471 67.1938 57.0199 66.7885 57.3573C66.5521 57.584 66.4168 57.8464 66.4106 58.1817C66.4312 58.5252 66.5487 58.7594 66.7953 58.9958C67.0289 59.1909 67.3085 59.2541 67.6094 59.2297C67.9152 59.1816 68.1329 59.0624 68.3308 58.8209C68.5197 58.5599 68.5726 58.3132 68.5331 57.9931Z" fill="#76AA84"/>
<path fill-rule="evenodd" clip-rule="evenodd" d="M77.6579 46.7901C77.6493 46.7758 77.6409 46.7617 77.6327 46.7478C77.6278 46.7394 77.6227 46.7309 77.6178 46.7226C77.6156 46.7189 77.6134 46.7152 77.6112 46.7115C77.3604 46.2821 77.0784 45.863 76.7627 45.4783C76.7133 45.4199 76.6638 45.3612 76.6147 45.3024C76.412 45.0482 76.2025 44.8092 75.9723 44.5811C75.9551 44.5639 75.9383 44.5474 75.9215 44.5309C75.6673 44.2767 75.4121 44.0301 75.1349 43.8027C75.0848 43.7622 75.0844 43.7618 75.0362 43.723L75.0349 43.722C71.1494 40.5375 65.5191 40.0673 61.2179 42.7925C61.1956 42.8065 61.1743 42.8203 61.153 42.834C60.8026 43.0573 60.4667 43.2888 60.1465 43.5519L60.0187 43.6581C59.7542 43.871 59.5083 44.0909 59.2699 44.3313C59.2604 44.3409 59.251 44.3503 59.2417 44.3597C59.2326 44.3689 59.2236 44.378 59.2146 44.387C58.9501 44.6515 58.6904 44.9129 58.4555 45.2011L58.4468 45.2119C58.4059 45.2631 58.3649 45.3143 58.3236 45.3649C58.1037 45.6329 57.8997 45.9135 57.7052 46.2031C57.6757 46.2477 57.6458 46.2924 57.6159 46.337C56.6644 47.7179 56.1049 49.3667 55.8435 51.0087C55.8373 51.0478 55.8311 51.086 55.8249 51.1237C55.8162 51.1794 55.8074 51.2351 55.7985 51.2907C55.7897 51.3462 55.7808 51.4027 55.772 51.4583C55.6407 52.2926 55.7089 53.2029 55.7827 53.8542C55.9063 54.9466 56.1056 56.0767 56.5384 57.09C56.5669 57.1549 56.5947 57.2199 56.6215 57.2855C57.044 58.34 57.628 59.343 58.3527 60.2155C58.4345 60.3114 58.5159 60.4069 58.5949 60.5048C58.8491 60.8277 59.1394 61.1049 59.4434 61.3807C59.4781 61.412 59.5114 61.4422 59.545 61.4728C59.9882 61.8815 60.4553 62.2528 60.9534 62.5926C60.9652 62.6006 60.9769 62.6085 60.9884 62.6163C60.9997 62.624 61.0109 62.6316 61.0221 62.6393C61.3175 62.8402 61.6208 63.0182 61.9392 63.182C62.0107 63.2184 62.0821 63.2552 62.1532 63.2923C62.5895 63.5224 63.0429 63.722 63.5101 63.8831C63.552 63.8972 63.5925 63.9106 63.6331 63.9243C63.7127 63.951 63.7924 63.9773 63.872 64.0036L63.8738 64.0042L63.8763 64.005C63.9015 64.013 63.9266 64.0207 63.9516 64.0283C64.1025 64.0742 64.2475 64.1183 64.3675 64.2276L64.3805 64.2511C64.3862 64.2612 64.3902 64.2685 64.3944 64.2758C64.3968 64.2801 64.3992 64.2845 64.4019 64.2893C64.4067 64.2977 64.4124 64.3079 64.4207 64.3226C64.4626 64.394 64.5045 64.466 64.5447 64.5385C64.5667 64.5794 64.5667 64.5794 64.5883 64.6192C64.6474 64.7264 64.7062 64.8336 64.7645 64.9414C64.8882 65.175 65.0191 65.4048 65.1561 65.6319L65.1743 65.6621C65.2664 65.8157 65.3582 65.9688 65.4471 66.1231C65.4818 66.1832 65.4818 66.1832 65.5154 66.2423C65.5447 66.2934 65.5739 66.3445 65.603 66.3956L65.6518 66.481C65.8888 66.9001 66.1258 67.2845 66.5449 67.5459C67.0258 67.8004 67.4827 67.8499 68.0082 67.7259C68.6334 67.5404 68.9886 67.1488 69.3032 66.5992C69.3462 66.5229 69.3894 66.4467 69.4327 66.3704C69.4585 66.3257 69.4841 66.2808 69.5096 66.236L69.5372 66.1877C69.5928 66.0891 69.6491 65.9905 69.7055 65.8922C69.7129 65.8795 69.7202 65.8668 69.7274 65.8543C69.7413 65.8304 69.7554 65.806 69.769 65.7823L69.77 65.7807C69.8119 65.7081 69.8538 65.6354 69.8961 65.5632C69.9119 65.5362 69.9276 65.5093 69.9434 65.4824C70.0401 65.3177 70.1361 65.1539 70.2197 64.9827C70.3241 64.7662 70.4303 64.5529 70.5536 64.3472C70.7391 64.0748 70.9558 64.0057 71.2681 63.9453C71.4326 63.9164 71.582 63.8707 71.7387 63.811L71.74 63.8105C71.7835 63.7933 71.7846 63.7929 71.8287 63.7752C72.8935 63.363 73.9275 62.7791 74.8068 62.0474L74.8135 62.0417C74.904 61.964 74.9936 61.8869 75.0875 61.8139C75.2747 61.6668 75.4447 61.5099 75.613 61.3433L75.6958 61.2605C75.8425 61.1131 75.9878 60.9644 76.1252 60.807C76.187 60.7349 76.2495 60.6638 76.3134 60.5937C79.6694 56.93 80.3076 51.004 77.6579 46.7901ZM59.9768 46.7142C59.96 46.7352 59.9434 46.7562 59.9265 46.7774L59.9088 46.7998C59.9039 46.8059 59.899 46.8121 59.894 46.8183C57.1518 50.2821 57.0955 55.4255 59.9256 58.8769C59.9985 58.9628 60.0727 59.0469 60.1475 59.1311C60.1898 59.1795 60.232 59.2283 60.274 59.2767L60.3063 59.3133C60.314 59.322 60.3217 59.3307 60.3296 59.3396C60.3739 59.3898 60.4175 59.4403 60.4612 59.4911C60.4859 59.5196 60.5106 59.5481 60.536 59.5777C60.5427 59.5854 60.5494 59.593 60.556 59.6008C60.5652 59.6114 60.5744 59.6221 60.5837 59.6329C60.5905 59.6409 60.5974 59.6489 60.6044 59.657C60.657 59.723 60.657 59.723 60.7315 59.7151V59.7838C60.7823 59.8363 60.7823 59.8363 60.8496 59.8909C60.9486 59.9751 61.0458 60.0603 61.1416 60.1486C61.492 60.4601 61.8733 60.7394 62.2718 60.9867C62.3405 61.0296 62.4085 61.0729 62.4758 61.1176C63.1971 61.595 64.0284 61.9076 64.8528 62.1549C65.5707 62.372 65.8455 62.6359 66.2062 63.3022C66.3804 63.6183 66.56 63.9309 66.7455 64.24C66.9781 64.6282 67.2058 65.0232 67.4291 65.4182H67.5665C67.5769 65.3996 67.5821 65.3903 67.5874 65.3809C67.5896 65.3771 67.5918 65.3733 67.5943 65.3688C67.5978 65.3626 67.602 65.3553 67.6079 65.3451L67.6752 65.2273L67.6765 65.2251C67.9215 64.7967 68.1678 64.3662 68.4163 63.9415C68.5111 63.7801 68.6049 63.6183 68.6966 63.4537C68.731 63.3929 68.7653 63.3325 68.7997 63.2717C68.8429 63.1951 68.8859 63.1185 68.9285 63.0415C69.1792 62.5984 69.4025 62.3648 69.8903 62.224C69.9019 62.2208 69.9136 62.2175 69.9252 62.2143C69.9347 62.2117 69.9442 62.2091 69.9536 62.2065C69.9867 62.1975 70.0198 62.1885 70.0528 62.1795L70.0874 62.1701C71.1042 61.8922 72.0454 61.4728 72.9248 60.8854C72.9406 60.8745 72.9565 60.8639 72.9728 60.853L72.9832 60.846L72.9921 60.84C73.2885 60.6398 73.5623 60.4175 73.8302 60.1805C73.8715 60.1444 73.913 60.1094 73.9549 60.0747L74.0219 60.0194C74.0422 60.0029 74.0625 59.9864 74.0834 59.9692C74.136 59.927 74.136 59.927 74.1281 59.8559C74.1483 59.8466 74.1689 59.8373 74.1899 59.8281C74.2672 59.7862 74.3136 59.7449 74.373 59.6811L74.4327 59.6172C74.4534 59.5945 74.474 59.5718 74.4949 59.5488C74.5166 59.5254 74.5382 59.5021 74.5602 59.478C74.733 59.2888 74.8996 59.0968 75.0548 58.8941C75.0706 58.8731 75.0868 58.8522 75.1033 58.8309C75.567 58.2229 75.9483 57.5668 76.2574 56.8661C76.2725 56.8341 76.2877 56.8022 76.3035 56.7692C76.7225 55.8864 76.963 54.9143 77.0832 53.9456C77.0851 53.93 77.087 53.9143 77.089 53.8986L77.0952 53.8501C77.392 51.3975 76.7071 48.8693 75.1854 46.9457C74.9597 46.6623 74.7251 46.3893 74.4743 46.1282C74.4561 46.109 74.4379 46.0901 74.419 46.0705C74.3768 46.0268 74.3343 45.9832 74.2917 45.9397C74.2776 45.9253 74.2631 45.9104 74.249 45.896C74.2373 45.8843 74.2258 45.8725 74.2142 45.8606C74.2081 45.8543 74.2016 45.8477 74.1954 45.8414C74.1521 45.7981 74.1075 45.7569 74.0621 45.716H73.9934V45.6473C73.8955 45.5562 73.7897 45.4738 73.6842 45.3917C73.6613 45.3739 73.6384 45.356 73.6156 45.3381C73.6034 45.3284 73.5912 45.3186 73.579 45.3089C73.5714 45.3029 73.5639 45.2969 73.5563 45.2909C73.5483 45.2845 73.5403 45.2782 73.5323 45.2718C73.5246 45.2657 73.5168 45.2595 73.5091 45.2533C72.0423 44.0957 70.2561 43.3709 68.3909 43.2095C68.3514 43.2053 68.3115 43.2016 68.271 43.1978C65.28 42.9513 61.8431 44.2523 59.9768 46.7142Z" fill="#76AA84"/>
</svg>
