<svg width="136" height="135" viewBox="0 0 136 135" fill="none" xmlns="http://www.w3.org/2000/svg">
<rect x="0.5" width="135" height="135" rx="67.5" fill="#F4F9F3"/>
<path fill-rule="evenodd" clip-rule="evenodd" d="M70.8633 40.0057C71.9912 40.0272 72.335 40.0809 73.0117 40.3174C73.4521 40.4787 74.0859 40.7689 74.4082 40.9624C74.7305 41.1451 75.3428 41.6611 75.7725 42.0803C76.3848 42.7038 76.6641 43.08 77.04 43.8648C77.3086 44.4022 77.5986 45.1869 77.6846 45.6062C77.7705 46.0254 77.8457 46.7241 77.8457 47.1648C77.8457 47.6378 77.7598 48.3365 77.6309 48.831C77.5127 49.304 77.2441 50.0027 76.6963 51.0884L76.9111 51.3571C77.0293 51.5076 77.2656 51.9161 77.4268 52.2708C77.5986 52.6256 77.8027 53.206 77.8994 53.5608C77.9854 53.9155 78.0605 54.5605 78.0605 54.9797C78.0605 55.4097 78.0068 56.0224 77.9424 56.3234C77.8779 56.6351 77.6416 57.2908 77.4053 57.7746C77.083 58.4518 76.8037 58.8495 76.2344 59.4192C75.665 59.989 75.2676 60.2684 74.5908 60.5909C74.1074 60.8274 73.4521 61.0639 73.1514 61.1284C72.8398 61.1929 72.2275 61.2466 71.8086 61.2466C71.3789 61.2466 70.8096 61.1929 70.541 61.1284C70.2725 61.0747 69.9717 60.9994 69.875 60.9779C69.6924 60.9242 69.6816 61.2143 69.6816 66.4063H67.3184V63.5578C67.3184 60.9994 67.3076 60.8167 67.1357 60.8812C67.0283 60.9134 66.6523 61.0102 66.2979 61.0962C65.9434 61.1714 65.2451 61.2466 64.7402 61.2466C64.1924 61.2466 63.5049 61.1714 63.0215 61.0424C62.5811 60.9349 61.9043 60.6877 61.5176 60.4942C61.1309 60.3007 60.54 59.9245 60.1855 59.645C59.8418 59.3762 59.3369 58.8603 59.0684 58.5055C58.8105 58.1508 58.4238 57.5166 58.2305 57.1081C58.0264 56.6996 57.79 55.9902 57.6934 55.5494C57.5752 55.0012 57.543 54.4207 57.5752 53.722C57.6074 52.9696 57.7041 52.4428 57.9404 51.7334C58.252 50.8197 58.2627 50.7444 58.1123 50.3359C58.0264 50.0994 57.9297 49.4652 57.8975 48.9385C57.8545 48.2398 57.8867 47.7668 58.0156 47.2186C58.123 46.8101 58.3379 46.1759 58.5098 45.8212C58.6816 45.4664 59.0254 44.9289 59.2725 44.6387C59.5195 44.3377 59.9492 43.9185 60.2178 43.6928C60.4863 43.4778 60.9805 43.166 61.3027 43.0155C61.625 42.8543 62.1084 42.6608 62.377 42.5748C62.6562 42.4781 63.333 42.4028 65.1162 42.3706L65.6533 41.8976C65.9541 41.6504 66.459 41.2634 66.7812 41.0591C67.1035 40.8549 67.5869 40.5862 67.8555 40.4787C68.124 40.3604 68.6074 40.1992 68.9297 40.1239C69.3236 40.0236 69.9681 39.9842 70.8633 40.0057ZM68.3926 42.9618C68.124 43.1015 67.5117 43.6283 67.0176 44.1442L66.1152 45.0687C65.0947 44.9182 64.4287 44.8645 63.9883 44.8645C63.29 44.8537 63.0859 44.8967 62.4844 45.1977C62.0869 45.3912 61.6035 45.7352 61.3672 46.0039C61.1309 46.2511 60.8193 46.7349 60.6689 47.0573C60.4971 47.4443 60.3896 47.9173 60.3574 48.401C60.3252 48.9922 60.3682 49.2932 60.5508 49.7985C60.6797 50.1532 60.8086 50.6154 60.8408 50.8197C60.8838 51.1099 60.7979 51.3894 60.5078 52.0021C60.1855 52.6686 60.0996 52.9696 60.0459 53.722C60.0029 54.4315 60.0352 54.797 60.1855 55.3344C60.293 55.7214 60.5508 56.3019 60.7656 56.6244C60.9805 56.9469 61.3672 57.3983 61.6357 57.6241C61.8936 57.8498 62.4199 58.1938 62.8066 58.3765C63.4727 58.699 63.5693 58.7205 64.7402 58.7205C65.9004 58.7205 66.0186 58.699 66.6201 58.398L67.2646 58.0756L67.3184 54.582C67.9307 53.9908 68.0703 53.937 68.5107 53.937C68.9512 53.937 69.0908 53.9908 69.3594 54.2595L69.6816 54.582L69.7354 58.183C70.6807 58.656 71.0244 58.7313 71.6689 58.7528C72.335 58.785 72.668 58.742 73.1191 58.5808C73.4844 58.441 73.9463 58.1401 74.333 57.7853C74.7197 57.4306 75.0742 56.9899 75.2461 56.6244C75.5039 56.1084 75.5361 55.9042 75.5361 55.012C75.5254 54.195 75.4824 53.894 75.2891 53.4748C75.1602 53.1953 74.7842 52.6793 74.4619 52.3246C73.957 51.7656 73.8711 51.6259 73.8711 51.2496C73.8711 51.0132 73.9248 50.7122 74 50.5724C74.0645 50.4434 74.2578 50.1639 74.4189 49.9597C74.5801 49.7555 74.8486 49.2932 75.0098 48.9385C75.2246 48.4763 75.3105 48.057 75.3535 47.4336C75.3857 46.8101 75.3535 46.3909 75.2139 45.9287C75.1172 45.5739 74.9023 45.0472 74.752 44.757C74.5908 44.4775 74.2041 44.0045 73.9033 43.7143C73.5918 43.424 73.0117 43.0263 72.6143 42.8436C71.959 42.5318 71.7656 42.4888 70.8096 42.4673C70.1328 42.4458 69.5742 42.4888 69.3057 42.5748C69.0693 42.6608 68.6611 42.8328 68.3926 42.9618ZM47.875 44.7032C48.3799 44.7032 49.0352 44.757 49.3252 44.843C49.626 44.9182 50.1523 45.1224 50.5068 45.2944C50.8936 45.4879 51.4307 45.8857 51.8496 46.3049C52.2686 46.7241 52.666 47.2616 52.8594 47.6486C53.0312 48.0033 53.2354 48.53 53.3105 48.831C53.3965 49.1212 53.4502 49.777 53.4502 50.2822C53.4502 50.7874 53.3857 51.4109 53.3213 51.6796C53.1924 52.1526 53.2031 52.1741 53.5576 52.6471C53.7617 52.9158 54.0625 53.4318 54.2344 53.7973C54.3955 54.1735 54.6104 54.7755 54.6963 55.1409C54.7822 55.5172 54.8574 56.2266 54.8574 56.7319C54.8574 57.2371 54.7822 57.9573 54.6855 58.3443C54.5996 58.7313 54.3633 59.387 54.1592 59.7955C53.9551 60.204 53.5576 60.8274 53.2783 61.1607C52.999 61.4939 52.5264 61.9669 52.2256 62.1926C51.9355 62.4291 51.3877 62.7623 51.0225 62.9558C50.6465 63.1386 50.0879 63.3535 49.2178 63.5793L49.1641 66.4063H46.6934V64.9552C46.6934 63.9663 46.6611 63.6008 46.5645 63.5793C46.4893 63.5578 46.1133 63.4395 45.7266 63.3213C45.3398 63.1923 44.7168 62.9128 44.3301 62.6871C43.9434 62.4613 43.3203 61.9561 42.9336 61.5691C42.4502 61.0747 42.0957 60.5909 41.7842 59.9567C41.5264 59.4515 41.2471 58.7528 41.1611 58.398C41.0752 58.0433 41 57.2908 41 56.7319C41 56.1514 41.0752 55.4312 41.1611 55.0657C41.2578 54.711 41.4619 54.1305 41.623 53.7758C41.7842 53.421 42.0742 52.9158 42.6436 52.1633L42.5039 51.5721C42.4287 51.2496 42.375 50.5939 42.375 50.1209C42.3857 49.5835 42.4609 49.003 42.6006 48.5623C42.7188 48.1753 42.998 47.5733 43.2344 47.2186C43.46 46.8639 43.9111 46.3371 44.2334 46.0576C44.5557 45.7782 45.1035 45.4019 45.458 45.2299C45.8125 45.0579 46.2959 44.8752 46.5322 44.8215C46.7686 44.757 47.3701 44.714 47.875 44.7032ZM46.5322 47.4551C46.2959 47.5733 45.9414 47.8421 45.7373 48.0355C45.5332 48.2398 45.2432 48.6698 45.0928 48.9922C44.8887 49.4437 44.8242 49.7555 44.835 50.2822C44.835 50.7982 44.9209 51.1529 45.125 51.6259C45.3291 52.0773 45.4043 52.3783 45.3613 52.6148C45.3184 52.8406 45.0713 53.2168 44.6846 53.636C44.3516 54.0123 43.9541 54.582 43.8145 54.9045C43.6748 55.2269 43.5244 55.7859 43.4814 56.1406C43.4492 56.4954 43.4492 57.0651 43.4922 57.3983C43.5459 57.7423 43.6963 58.2798 43.8359 58.5808C43.9756 58.8925 44.3301 59.4192 44.6309 59.7417C44.9209 60.0642 45.4473 60.4834 45.791 60.6769C46.1348 60.8704 46.4893 61.0209 46.5537 61.0317C46.6611 61.0317 46.6934 60.5909 46.6934 59.1505C46.6934 57.6886 46.7256 57.1941 46.8545 56.9469C46.9404 56.7641 47.1768 56.5491 47.3916 56.4631C47.5957 56.3771 47.8428 56.3019 47.9287 56.3019C48.0146 56.3019 48.251 56.3664 48.4443 56.4524C48.6484 56.5491 48.8633 56.7641 48.9814 56.9899C49.1318 57.3123 49.1641 57.6778 49.1641 59.2043V61.0317C49.54 60.9242 49.8193 60.8167 50.0234 60.7092C50.2275 60.6017 50.6572 60.2792 50.9795 59.9997C51.377 59.6342 51.667 59.2257 51.9463 58.6775C52.3115 57.9036 52.333 57.8283 52.333 56.7426C52.333 55.6784 52.3115 55.5602 51.9785 54.8722C51.7959 54.4745 51.4199 53.9263 51.1621 53.636C50.9043 53.3565 50.6465 53.0233 50.5713 52.8836C50.5068 52.7546 50.4531 52.5503 50.4531 52.4321C50.4531 52.3138 50.5713 51.9269 50.7217 51.5721C50.915 51.0991 50.9902 50.7337 50.9902 50.1962C50.9902 49.7017 50.915 49.3255 50.7646 48.9922C50.6465 48.7235 50.3672 48.3258 50.1523 48.1C49.9375 47.8743 49.5615 47.5841 49.3252 47.4658C49.0889 47.3476 48.6699 47.2186 48.4014 47.1756C48.1221 47.1326 47.6924 47.1326 47.4346 47.1756C47.1768 47.2078 46.7686 47.3368 46.5322 47.4551ZM89.0176 44.7032C89.5332 44.6925 90.21 44.7677 90.5752 44.8645C90.9297 44.9504 91.4346 45.1439 91.7031 45.2944C91.9717 45.4342 92.4443 45.7782 92.7666 46.0684C93.0889 46.3479 93.54 46.8639 93.7656 47.2186C94.002 47.5733 94.2812 48.1753 94.3994 48.5623C94.5391 49.003 94.6143 49.5835 94.625 50.1209C94.625 50.5939 94.5713 51.2496 94.3564 52.1633L94.7217 52.6471C94.9258 52.9158 95.2158 53.421 95.377 53.7758C95.5381 54.1305 95.7422 54.711 95.8389 55.0657C95.9248 55.4312 96 56.1514 96 56.7319C96 57.2908 95.9248 58.0433 95.8389 58.398C95.7529 58.7528 95.4736 59.4515 95.2158 59.9567C94.9043 60.5909 94.5498 61.0747 94.0664 61.5691C93.6797 61.9561 93.0566 62.4613 92.6699 62.6871C92.2832 62.9128 91.6602 63.1923 91.2734 63.3213C90.8867 63.4395 90.5107 63.5578 90.4355 63.5793C90.3389 63.6008 90.3066 64.0737 90.3066 66.4063H87.8359L87.7822 63.5793L87.2129 63.4395C86.9121 63.3535 86.375 63.1493 86.0312 62.9773C85.6982 62.8053 85.1504 62.4721 84.8281 62.2249C84.5059 61.9776 84.001 61.5046 83.7217 61.1607C83.4424 60.8274 83.0449 60.204 82.8408 59.7955C82.6367 59.387 82.4004 58.7313 82.3145 58.3443C82.2178 57.9573 82.1426 57.2371 82.1426 56.7319C82.1426 56.2266 82.2178 55.5172 82.3037 55.1409C82.3896 54.7755 82.6045 54.1735 82.7656 53.7973C82.9375 53.4318 83.2383 52.9158 83.4424 52.6471C83.7969 52.1741 83.8076 52.1526 83.6787 51.6796C83.6143 51.4109 83.5498 50.7874 83.5498 50.2822C83.5498 49.777 83.6035 49.1212 83.6895 48.831C83.7646 48.53 83.9688 48.0033 84.1406 47.6486C84.334 47.2616 84.7314 46.7241 85.1504 46.3049C85.5371 45.9179 86.1172 45.4772 86.4395 45.3052C86.7617 45.1439 87.2666 44.9397 87.5674 44.8645C87.8574 44.7785 88.5127 44.7032 89.0176 44.7032ZM87.6748 47.4658C87.4385 47.5841 87.0625 47.8743 86.8477 48.1C86.6328 48.3258 86.3535 48.7235 86.2354 48.9922C86.085 49.3255 86.0098 49.7017 86.0098 50.1962C86.0098 50.7337 86.085 51.0991 86.2783 51.5721C86.4287 51.9269 86.5469 52.3138 86.5469 52.4321C86.5469 52.5503 86.4932 52.7546 86.4287 52.8836C86.3535 53.0233 86.0957 53.3565 85.8379 53.636C85.5801 53.9263 85.2041 54.4745 85.0107 54.8722C84.6885 55.5602 84.667 55.6784 84.667 56.7426C84.667 57.8283 84.6885 57.9036 85.0537 58.6775C85.333 59.2257 85.623 59.6342 86.0205 59.9997C86.3428 60.2792 86.7725 60.6017 86.9766 60.7092C87.1807 60.8167 87.46 60.9242 87.5889 60.9672L87.8359 61.0317C87.8359 57.8498 87.8789 57.2908 87.9863 57.0221C88.083 56.8179 88.2979 56.6029 88.5234 56.4846C88.7383 56.3879 88.9854 56.3019 89.0713 56.3019C89.1572 56.3019 89.4043 56.3771 89.6084 56.4631C89.8232 56.5491 90.0596 56.7641 90.1455 56.9469C90.2744 57.1941 90.3066 57.6886 90.3066 59.1505C90.3066 60.5909 90.3389 61.0317 90.4355 61.0317C90.5107 61.0209 90.8652 60.8704 91.209 60.6769C91.5527 60.4834 92.0791 60.0642 92.3691 59.7417C92.6699 59.4192 93.0244 58.8925 93.1641 58.5808C93.3037 58.2798 93.4541 57.7423 93.5078 57.3983C93.5508 57.0651 93.5508 56.4954 93.5186 56.1406C93.4756 55.7859 93.3252 55.2269 93.1855 54.9045C93.0459 54.582 92.6592 54.023 92.3369 53.6683C92.0039 53.3135 91.7031 52.8836 91.6602 52.7008C91.5957 52.4643 91.6494 52.1848 91.875 51.6259C92.0791 51.1099 92.165 50.6692 92.165 50.2284C92.1758 49.7662 92.1006 49.4222 91.8965 48.9922C91.7568 48.6698 91.4668 48.2398 91.2627 48.0463C91.0586 47.8421 90.7041 47.5841 90.4678 47.4658C90.2314 47.3476 89.8125 47.2186 89.5439 47.1756C89.2646 47.1326 88.835 47.1326 88.5771 47.1756C88.3193 47.2078 87.9111 47.3476 87.6748 47.4658Z" fill="#76AA84"/>
<path fill-rule="evenodd" clip-rule="evenodd" d="M68.6611 66.3312C93.2607 66.3527 95.2158 66.3635 95.4629 66.5355C95.6133 66.6322 95.7959 66.8365 95.8711 66.9869C95.9463 67.1482 96 67.6857 96 68.2554C96 68.8036 95.9141 69.9538 95.7959 70.8138C95.6777 71.6737 95.4629 72.9529 95.3018 73.6624C95.1406 74.3718 94.8184 75.5328 94.582 76.2422C94.3457 76.9517 93.916 78.0589 93.626 78.7146C93.3359 79.3596 92.8418 80.327 92.541 80.8645C92.2402 81.3912 91.7031 82.2619 91.3486 82.7994C90.9941 83.3261 90.3389 84.2291 89.8877 84.7881C89.4365 85.347 88.5664 86.3145 87.9434 86.938C87.3203 87.5614 86.3965 88.3999 85.9023 88.7976C85.3975 89.2061 84.334 89.9693 83.5391 90.5068C82.7441 91.0335 81.4551 91.7752 80.6924 92.1515C79.9297 92.5169 78.8877 92.9792 78.3828 93.1727C77.8779 93.3662 76.9434 93.6779 76.2881 93.8714C75.6328 94.0649 74.7197 94.3014 74.2471 94.3981C73.7744 94.4948 72.7324 94.6668 71.9375 94.7851C70.8848 94.9463 69.9395 95.0001 68.5 95.0001C67.0391 95.0001 66.1152 94.9463 65.0088 94.7743C64.1816 94.6561 63.043 94.4519 62.4844 94.3336C61.9258 94.2154 60.8623 93.9251 60.1211 93.6886C59.3799 93.4522 58.2197 93.0114 57.543 92.7212C56.8662 92.431 55.8242 91.9257 55.2334 91.5925C54.6426 91.27 53.6758 90.668 53.085 90.2596C52.4941 89.8618 51.6025 89.1954 51.0977 88.7976C50.6035 88.3999 49.6797 87.5614 49.0566 86.938C48.4336 86.3145 47.5635 85.347 47.1123 84.7881C46.6611 84.2291 46.0059 83.3261 45.6514 82.7994C45.2969 82.2619 44.7598 81.3912 44.459 80.8645C44.1582 80.327 43.6641 79.3488 43.3633 78.6824C43.0732 78.0267 42.6436 76.9087 42.4072 76.21C42.1816 75.522 41.8701 74.3933 41.709 73.7161C41.5586 73.0389 41.333 71.7812 41.2148 70.9213C41.0967 70.0613 41 68.8896 41 68.3091C41 67.6319 41.0537 67.1589 41.1504 66.9654C41.2256 66.8042 41.4082 66.6215 41.5479 66.5462C41.6875 66.4817 41.8809 66.3957 41.9668 66.3635C42.0527 66.342 54.0625 66.3205 68.6611 66.3312ZM43.4922 70.2225C43.5889 70.9965 43.793 72.2004 43.9541 72.9099C44.1152 73.6194 44.4268 74.7588 44.6523 75.436C44.8779 76.1132 45.2646 77.1344 45.5117 77.6934C45.7695 78.2524 46.21 79.1446 46.5107 79.6821C46.8008 80.2088 47.3594 81.1118 47.7461 81.6707C48.1328 82.2297 48.7451 83.0574 49.1211 83.4981C49.4863 83.9389 50.0342 84.5408 50.335 84.8418L50.8828 85.3793C52.0859 85.2503 52.6875 85.1321 52.9775 85.0353C53.3428 84.9171 53.6973 84.6698 54.1162 84.2614C54.5566 83.8206 54.793 83.4874 54.9648 83.0144C55.1475 82.5199 55.1904 82.2082 55.1582 81.6707C55.126 81.2192 55.0186 80.7678 54.8359 80.3808C54.6748 80.0583 54.3418 79.5961 54.084 79.3703C53.8369 79.1339 53.4072 78.8436 53.1387 78.7361C52.8701 78.6179 52.3438 78.4781 51.957 78.4351C51.5703 78.3814 51.1514 78.2739 51.0225 78.1771C50.8828 78.0912 50.7217 77.8332 50.6465 77.6074C50.5498 77.2957 50.5605 77.1344 50.6787 76.8442C50.7646 76.64 50.9473 76.382 51.0977 76.2745C51.3447 76.0918 51.5918 76.0703 54.1592 76.081C56.3936 76.081 57.0703 76.0488 57.543 75.909C57.8652 75.823 58.3809 75.5758 58.6709 75.3823C58.9717 75.178 59.3047 74.8878 59.4336 74.7158C59.5625 74.5546 59.7773 74.1998 59.917 73.9311C60.1426 73.5119 60.1748 73.2969 60.1748 72.3724C60.1748 71.4157 60.1426 71.2437 59.8848 70.76C59.7344 70.459 59.3906 70.0183 59.1328 69.7711C58.8857 69.5238 58.3809 69.1798 58.0264 69.0186L57.3818 68.7176C46.6182 68.6639 43.4492 68.6961 43.4062 68.7391C43.3633 68.7929 43.3955 69.4593 43.4922 70.2225ZM61.8828 69.5238C62.0869 69.9108 62.334 70.5128 62.4199 70.8675C62.5166 71.2222 62.5918 71.9425 62.5918 72.4799C62.5918 73.2539 62.5273 73.6194 62.291 74.3073C62.1299 74.7803 61.8291 75.4038 61.625 75.7048C61.4209 75.995 61.0127 76.4787 60.7119 76.7797C60.4004 77.07 59.7988 77.4999 59.3584 77.7257C58.918 77.9407 58.2197 78.1986 57.8115 78.2846C57.4033 78.3706 56.9307 78.4459 56.7695 78.4459H56.4688C57.1025 79.6498 57.3389 80.2948 57.4141 80.6495C57.4893 81.0043 57.543 81.5632 57.543 81.8857C57.543 82.2082 57.4678 82.7779 57.3818 83.1434C57.2959 83.5196 57.0703 84.1216 56.877 84.4871C56.6943 84.8633 56.2969 85.4223 55.9961 85.7448C55.6953 86.0673 55.1582 86.5187 54.8037 86.7445C54.4492 86.9702 53.9766 87.2175 53.751 87.2927C53.5254 87.3679 53.3643 87.4647 53.3857 87.5292C53.4072 87.5829 53.9014 87.9592 54.4922 88.3569C55.0723 88.7546 56.1572 89.3996 56.8984 89.7758C57.6396 90.1628 58.7998 90.6895 59.4766 90.9583C60.1533 91.227 61.3672 91.614 62.1621 91.8075C62.957 92.0117 64.1924 92.2697 64.9014 92.3772C65.8252 92.5169 66.8242 92.5707 68.4463 92.5814C69.7461 92.5814 71.1318 92.5169 71.7227 92.4417C72.2812 92.3557 73.1836 92.2052 73.71 92.087C74.2363 91.9795 75.2031 91.7215 75.8369 91.5387C76.4707 91.3453 76.9971 91.1625 76.9971 91.1303C76.9971 91.098 76.8682 90.9583 76.707 90.8078C76.5459 90.6573 76.2666 90.2918 76.0732 90.0016C75.8799 89.7006 75.6113 89.1524 75.4824 88.7654C75.2998 88.2387 75.2354 87.8302 75.2354 87.0992C75.2354 86.3145 75.2891 85.992 75.5254 85.4008C75.7832 84.7343 75.7939 84.6806 75.6221 84.6161C75.5146 84.5838 75.1172 84.4011 74.7305 84.2184C74.2793 84.0034 73.7529 83.6164 73.248 83.1219C72.6787 82.5737 72.3457 82.1437 72.0557 81.5632C71.8301 81.1225 71.583 80.5098 71.4971 80.2195C71.4111 79.9186 71.3467 79.2091 71.3467 78.6071C71.3467 77.8117 71.4111 77.3279 71.583 76.7797C71.7227 76.3282 72.0449 75.6833 72.3887 75.178C72.7109 74.6943 73.2158 74.1138 73.5488 73.8451C73.8711 73.5871 74.4082 73.2324 74.7305 73.0711C75.0527 72.9099 75.5898 72.6842 75.9121 72.5767C76.46 72.3939 77.0938 72.3724 84.8604 72.3509C89.4473 72.3294 93.207 72.2972 93.207 72.2649C93.207 72.2327 93.2715 71.7382 93.3574 71.1577C93.4434 70.588 93.5293 69.8033 93.5508 69.4163L93.583 68.7176C68.7363 68.6746 61.5176 68.6961 61.5176 68.7391C61.5176 68.7929 61.6787 69.1368 61.8828 69.5238ZM75.8047 75.1673C75.6006 75.2748 75.2783 75.4683 75.1064 75.5973C74.9346 75.737 74.6016 76.1025 74.3867 76.4142C74.1719 76.7367 73.9141 77.2849 73.8066 77.6397C73.6777 78.1127 73.6455 78.4781 73.6992 78.9834C73.7314 79.3703 73.8926 79.9508 74.0322 80.2733C74.1826 80.5958 74.5264 81.0903 74.8164 81.3697C75.0957 81.6492 75.5898 82.004 75.9121 82.1652C76.3848 82.4017 76.6855 82.4662 77.416 82.5092C77.9209 82.5307 78.4688 82.6059 78.6406 82.6704C78.8125 82.7457 79.0488 82.9177 79.1562 83.0682C79.2852 83.2401 79.3604 83.5089 79.3496 83.7884C79.3496 84.2076 79.2959 84.3043 78.7051 84.8633C78.3398 85.2073 77.9531 85.7018 77.8242 85.9705C77.6631 86.3145 77.5879 86.6585 77.5879 87.153C77.5879 87.6904 77.6523 87.9807 77.8672 88.3891C78.0176 88.6794 78.3291 89.0986 78.5654 89.3029C78.8125 89.5071 79.1777 89.7436 79.3926 89.8081C79.7578 89.9371 79.8223 89.9263 80.6172 89.5071C81.0684 89.2706 81.9062 88.7654 82.4648 88.3891C83.0234 88.0129 83.8721 87.3894 84.3447 87.0132C84.8174 86.6262 85.7197 85.7878 86.3535 85.1428C86.9873 84.5086 87.7822 83.6486 88.1045 83.2294C88.4375 82.8102 89.082 81.918 89.5332 81.2407C89.9951 80.5635 90.6611 79.4026 91.0264 78.6609C91.3809 77.9192 91.8535 76.855 92.0576 76.296C92.2725 75.737 92.4658 75.1458 92.498 74.9738L92.5625 74.6836C79.4033 74.6943 77.2012 74.7373 76.7715 74.8341C76.4492 74.9093 76.0088 75.0491 75.8047 75.1673Z" fill="#145333"/>
</svg>
