<svg width="135" height="135" viewBox="0 0 135 135" fill="none" xmlns="http://www.w3.org/2000/svg">
<rect width="135" height="135" rx="67.5" fill="#F4F9F3"/>
<mask id="mask0_975_8017" style="mask-type:alpha" maskUnits="userSpaceOnUse" x="40" y="40" width="55" height="55">
<rect x="40" y="40" width="55" height="55" fill="#D9D9D9"/>
</mask>
<g mask="url(#mask0_975_8017)">
<path d="M77.3126 41.6689C77.3477 41.6923 77.3477 41.6923 77.3834 41.7163C78.2565 42.3071 79.109 43.0283 79.7518 43.8664C79.7783 43.8997 79.8048 43.9326 79.8323 43.967C80.0763 44.2758 80.2963 44.5989 80.5095 44.9321C80.5243 44.9551 80.539 44.9781 80.5542 45.0018C81.3379 46.2451 81.8157 47.6636 82.0117 49.1233C82.0158 49.1542 82.0199 49.1847 82.024 49.2163C82.0986 49.8105 82.0952 50.4013 82.0931 50.9989C82.0931 51.0875 82.0928 51.1761 82.0928 51.2647C82.0924 51.4801 82.0918 51.6975 82.0911 51.9104C82.1361 51.9138 82.1361 51.9138 82.1818 51.9169C82.2213 51.92 82.2612 51.9228 82.3018 51.9259C82.3606 51.9303 82.3606 51.9303 82.4204 51.9348C84.8748 52.145 87.1985 53.3086 88.986 54.9331C89.0053 54.95 89.0242 54.9671 89.0441 54.9843C89.4738 55.369 89.8657 55.7846 90.2232 56.2379C90.2644 56.2881 90.2644 56.2881 90.3067 56.3392C90.7673 56.8991 91.1592 57.5173 91.4961 58.1596C91.5078 58.1815 91.5194 58.2035 91.5315 58.2265C92.1743 59.4458 92.5765 60.7475 92.769 62.1076C92.7728 62.1344 92.7765 62.1615 92.7807 62.1893C92.8642 62.7869 92.8834 63.3914 92.8721 63.9959C92.8718 64.023 92.8711 64.0501 92.8707 64.078C92.8295 66.1593 92.166 68.2681 91.0488 70.0197C91.0341 70.0427 91.0196 70.0661 91.0045 70.0898C90.4098 71.0205 89.6604 71.917 88.8148 72.6313C88.7866 72.6557 88.7584 72.6801 88.7292 72.7055C87.0998 74.0931 85.1198 75.0238 82.9886 75.3776C82.9611 75.3824 82.9339 75.3869 82.9058 75.392C81.5101 75.6269 80.0698 75.5572 78.6433 75.5493C78.6408 75.5792 78.6408 75.5792 78.6381 75.6098C78.6164 75.8447 78.5814 76.0769 78.5422 76.307C78.5357 76.3475 78.5288 76.388 78.5219 76.4299C78.5033 76.5416 78.4848 76.6528 78.4659 76.7645C78.4456 76.8847 78.4257 77.0049 78.4054 77.1251C78.3662 77.3607 78.3267 77.5956 78.2871 77.8326C78.2407 78.1108 78.1943 78.389 78.1476 78.6672C77.9571 79.8075 77.766 80.9443 77.5735 82.0846C77.5649 82.1351 77.5563 82.1856 77.5481 82.2364C77.5226 82.3879 77.4972 82.5393 77.4714 82.6897C77.4652 82.7272 77.4652 82.7272 77.459 82.7653C77.4126 83.0411 77.3662 83.3183 77.3198 83.593C77.1259 84.7436 76.9348 85.8942 76.7423 87.0619C76.7279 87.1488 76.7138 87.2357 76.6993 87.3223C76.6117 87.8512 76.5244 88.3801 76.4374 88.909C76.4037 89.1137 76.37 89.3177 76.336 89.5238C76.3168 89.6413 76.2972 89.7587 76.2779 89.8776C76.2026 90.3378 76.1256 90.7946 76.0428 91.2514C76.0359 91.2885 76.0294 91.3256 76.0225 91.364C75.8283 92.4184 75.28 93.4694 74.3863 94.1014C73.9944 94.3579 73.6025 94.5856 73.1591 94.7368C73.1364 94.7447 73.114 94.7525 73.091 94.7608C72.5101 94.9514 71.9532 94.993 71.3448 94.9909C71.2619 94.9913 71.1791 94.9916 71.0962 94.9916C70.9171 94.9923 70.7387 94.9923 70.56 94.9923C70.2939 94.992 70.0272 94.9923 69.7625 94.993C69.2606 94.994 68.7553 94.994 68.2534 94.9937C67.865 94.9937 67.4765 94.9937 67.0847 94.994C67.0286 94.994 66.9726 94.9944 66.9166 94.9944H66.6636C65.8798 94.9951 65.0961 94.9954 64.3089 94.9951H64.2195C64.07 94.9951 63.9204 94.9951 63.7692 94.9947H63.6791H63.499C62.564 94.9944 61.629 94.9951 60.694 94.9961C59.6421 94.9975 58.5903 94.9985 57.5384 94.9981H57.2015C57.1737 94.9978 57.1462 94.9978 57.1176 94.9978C56.7017 94.9978 56.2858 94.9985 55.8698 94.9992C55.3954 94.9999 54.9211 94.9999 54.4501 94.9992C54.1858 94.9988 53.9208 94.9988 53.6561 94.9999C53.4577 95.0002 53.2608 94.9999 53.0614 94.9992C52.9816 94.9988 52.9022 94.9992 52.8228 94.9995C52.0666 95.0047 51.3138 94.8872 50.6228 94.5599C50.5881 94.5444 50.553 94.529 50.5173 94.5132C49.5651 94.0701 48.7985 93.1977 48.4238 92.2258C48.2678 91.7621 48.1695 91.2916 48.0908 90.8107C48.0794 90.7431 48.0681 90.6754 48.0564 90.6074L47.9821 90.1643C47.9409 89.9143 47.8986 89.6629 47.8567 89.4156C47.7718 88.9107 47.6875 88.4059 47.6037 87.901C47.5727 87.7152 47.5418 87.5301 47.5108 87.3446C47.2169 85.5792 46.923 83.807 46.6308 82.0554C46.5841 81.7744 46.5377 81.4921 46.4909 81.2105C46.4868 81.1854 46.4827 81.1603 46.4786 81.1346C46.3531 80.3755 46.2266 79.6165 46.1004 78.8609C46.0843 78.7627 46.0678 78.6641 46.0513 78.5659C45.9781 78.1263 45.9048 77.6901 45.8313 77.2505C45.8034 77.0853 45.7759 76.9201 45.7481 76.7559C45.7354 76.6796 45.7227 76.6037 45.7099 76.5278C45.6924 76.4244 45.6752 76.3214 45.658 76.218C45.6529 76.1882 45.6481 76.1586 45.6429 76.1281C45.6123 75.944 45.5889 75.7606 45.5697 75.5751C45.5412 75.5751 45.513 75.5754 45.4834 75.5754C45.2139 75.5768 44.9437 75.5778 44.6756 75.5785C44.5371 75.5789 44.3985 75.5796 44.2597 75.5802C44.1259 75.5809 43.9919 75.5813 43.8575 75.5816C43.8066 75.5816 43.7557 75.582 43.7052 75.5823C42.8183 75.5885 42.8183 75.5885 42.4746 75.2708C42.225 75.0015 42.1604 74.735 42.1604 74.3709C42.1604 74.3431 42.1604 74.3156 42.16 74.2871C42.1597 74.1944 42.1597 74.1017 42.1593 74.0093C42.1593 73.9427 42.159 73.876 42.1587 73.8097C42.158 73.5916 42.1576 73.3735 42.1573 73.1537C42.1573 73.0785 42.1569 73.0033 42.1569 72.9281C42.1563 72.5743 42.1559 72.2206 42.1556 71.8702C42.1552 71.4615 42.1542 71.0563 42.1528 70.6475C42.1518 70.3323 42.1514 70.0156 42.1511 69.703C42.1511 69.5148 42.1508 69.3253 42.1501 69.1398C42.149 68.9629 42.149 68.786 42.1494 68.6074C42.1494 68.5425 42.149 68.4776 42.1487 68.413C42.1456 67.9803 42.1662 67.5991 42.4749 67.2659C42.7183 67.0471 42.9871 66.9753 43.3068 66.9781C43.3374 66.9777 43.3683 66.9774 43.3999 66.9774C43.5027 66.9771 43.6055 66.9771 43.7086 66.9774C43.7829 66.9774 43.8575 66.9771 43.9321 66.9767C44.1369 66.976 44.3411 66.976 44.5474 66.9764C44.7681 66.9764 44.9874 66.9757 45.2108 66.9753C45.5924 66.9743 45.9774 66.974 46.3589 66.974C46.7611 66.9736 47.1599 66.9733 47.5621 66.9726H47.6377C47.7645 66.9722 47.8914 66.9722 48.0193 66.9719C48.9164 66.9705 49.8136 66.9695 50.7108 66.9688C51.5839 66.9681 52.4536 66.9671 53.3268 66.9657H53.4082C53.6781 66.9654 53.9479 66.965 54.2195 66.9647C54.7695 66.9637 55.3195 66.963 55.8695 66.9623H55.9461C57.6339 66.9599 59.3218 66.9582 60.9993 66.9568L61.0336 64.793C60.6964 64.7961 60.6964 64.7961 60.353 64.7996C58.4658 64.8044 56.7093 64.3393 55.2311 63.1441C55.194 63.1149 55.1565 63.0854 55.1194 63.0562C54.9211 62.8982 54.9211 62.8982 54.853 62.835V62.7663C54.8338 62.7581 54.8142 62.7498 54.7942 62.7416C54.4965 62.5757 54.2683 62.2401 54.062 61.9757C54.0376 61.9451 54.0136 61.9145 53.9885 61.8829C53.325 61.0277 52.8747 60.0626 52.61 59.0151C52.598 58.9684 52.598 58.9684 52.5856 58.921C52.3942 58.1173 52.3959 57.2999 52.399 56.479C52.3997 56.3204 52.3993 56.1613 52.3986 56.0016C52.3983 55.8776 52.3983 55.7537 52.3986 55.6307C52.3986 55.572 52.3986 55.5132 52.3983 55.4548C52.3969 55.0049 52.4272 54.6546 52.7558 54.3146C53.103 54.022 53.4673 54.0295 53.9005 54.0305H54.0668C54.183 54.0305 54.2996 54.0305 54.4175 54.0309C54.5639 54.0312 54.7103 54.0309 54.8575 54.0305C56.4731 54.0268 56.4731 54.0268 57.1743 54.1878C57.2084 54.1954 57.2424 54.203 57.2778 54.2109C57.5642 54.2754 57.845 54.3517 58.12 54.452C58.1458 54.4612 58.1716 54.4705 58.1984 54.4801C59.2571 54.8682 60.2128 55.4727 61.0068 56.273C61.0068 56.242 61.0072 56.2108 61.0072 56.1788C61.0099 55.4198 61.013 54.6608 61.0168 53.8983C61.0185 53.5308 61.0199 53.1633 61.0213 52.7958C61.0226 52.475 61.024 52.1536 61.0254 51.8342C61.0264 51.6645 61.0271 51.4952 61.0274 51.3258C61.0326 49.5708 61.0326 49.5708 61.1873 48.7293C61.1948 48.6878 61.2021 48.6462 61.21 48.6033C61.5606 46.7177 62.4268 44.9627 63.7193 43.5545C63.7819 43.4855 63.8428 43.4151 63.9033 43.344C64.1934 43.0125 64.5117 42.7154 64.8589 42.4441C64.8991 42.4115 64.939 42.3785 64.9788 42.3455C65.2707 42.1065 65.5701 41.8887 65.8898 41.6895C65.9101 41.6768 65.93 41.6641 65.951 41.6507C67.2091 40.8608 68.56 40.4074 70.0072 40.143C70.0437 40.1361 70.0798 40.1296 70.1172 40.1224C72.5725 39.698 75.2021 40.4168 77.3126 41.6689ZM66.5766 43.764C66.5443 43.7884 66.512 43.8128 66.4783 43.8378C66.2978 43.9783 66.1277 44.1308 65.9627 44.2878C65.8908 44.3547 65.8203 44.4183 65.7406 44.4756C65.7217 44.4904 65.7031 44.5052 65.6839 44.5203V44.589H65.6151C65.5636 44.6388 65.5636 44.6388 65.5099 44.7051C65.4192 44.8119 65.3264 44.9156 65.2305 45.0183C64.8386 45.4545 64.5292 45.9353 64.2405 46.4436C64.2274 46.4656 64.2147 46.4876 64.2013 46.5106C63.4691 47.7608 63.1941 49.2205 63.201 50.6664C63.2013 50.7348 63.2013 50.8031 63.2013 50.8715C63.2017 51.0494 63.2023 51.2286 63.203 51.4038C63.2037 51.5858 63.2041 51.7679 63.2044 51.9499C63.2051 52.3071 63.2065 52.6608 63.2078 53.018C63.246 52.9964 63.2838 52.9748 63.3233 52.9524C63.3553 52.9342 63.3553 52.9342 63.388 52.9157C63.4602 52.8738 63.5286 52.8281 63.5973 52.7807C64.5392 52.1488 65.5911 51.898 66.7151 51.8843C66.7495 51.884 66.7495 51.884 66.7842 51.8836C66.9681 51.8816 67.152 51.8805 67.3342 51.8802C67.36 51.8798 67.3854 51.8798 67.4119 51.8798C68.4672 51.8767 68.4672 51.8767 68.7869 52.1608C69.0846 52.474 69.1021 52.7653 69.1001 53.1808C69.1001 53.2303 69.1001 53.2801 69.1004 53.3299C69.1004 53.4336 69.1004 53.5377 69.0997 53.6418C69.099 53.773 69.0994 53.9042 69.1001 54.0367C69.1028 54.7133 69.0843 55.3659 68.878 56.0185C68.8677 56.0511 68.8574 56.0837 68.8471 56.1174C68.3796 57.553 67.3586 58.6521 66.0283 59.3355C65.1346 59.7786 64.1961 59.8507 63.2096 59.9194V66.9602H69.6033C69.582 66.7895 69.5603 66.6312 69.5243 66.4657C69.5153 66.4251 69.5067 66.3846 69.4978 66.3427C69.4885 66.3001 69.4796 66.2579 69.4699 66.2139C68.8271 63.164 69.3565 59.963 71.0615 57.3184C71.2843 56.9788 71.5153 56.6487 71.7696 56.3327C71.7944 56.3011 71.8195 56.2699 71.8449 56.2376C72.3365 55.6228 72.9002 55.0286 73.5224 54.5478C73.5599 54.5169 73.597 54.486 73.6345 54.4551C74.3185 53.8884 75.0885 53.4178 75.8929 53.0366C75.94 53.0139 75.9871 52.9913 76.0342 52.9679C77.2648 52.36 78.602 52.0921 79.9529 51.9032C79.9553 51.6532 79.9571 51.4017 79.9584 51.1545C79.9588 51.038 79.9595 50.9219 79.9608 50.8041C79.9815 48.6335 79.3318 46.511 77.8296 44.8967C77.7646 44.8263 77.7028 44.7545 77.6416 44.681C76.4178 43.2832 74.6028 42.4692 72.7947 42.1669C72.7675 42.1625 72.7407 42.1577 72.7129 42.1532C70.5713 41.8132 68.2785 42.4548 66.5598 43.7468L66.5766 43.764ZM64.1738 54.9606C64.1123 55.0283 64.0555 55.098 63.9988 55.1694C63.9748 55.1976 63.951 55.2261 63.9263 55.2553C63.421 55.8838 63.1975 56.636 63.2044 57.4362C63.2044 57.4696 63.2048 57.5025 63.2048 57.5369C63.2051 57.6176 63.2058 57.6986 63.2065 57.7797C64.279 57.8103 65.2071 57.5643 66.0115 56.8111C66.6646 56.1792 67.0083 55.3068 67.0255 54.4001C67.0259 54.3524 67.0255 54.305 67.0252 54.2572C67.0255 54.2328 67.0255 54.2081 67.0259 54.183C67.0362 54.0642 67.0362 54.0642 66.9867 53.9653C65.9279 53.91 64.9345 54.193 64.1714 54.9579L64.1738 54.9606ZM75.2082 55.8914C75.1886 55.9058 75.169 55.9206 75.1487 55.9353C74.8153 56.1854 74.5093 56.4608 74.2103 56.7493C74.18 56.7785 74.18 56.7785 74.1491 56.8081C73.8988 57.0499 73.6678 57.2992 73.4547 57.574C73.4272 57.6087 73.3997 57.643 73.3715 57.6787C72.7081 58.5167 72.2028 59.4544 71.8384 60.4607C71.8246 60.4978 71.8246 60.4978 71.8109 60.5356C70.9584 62.8779 71.1474 65.55 72.1924 67.7825C72.5118 68.4522 72.8834 69.0738 73.3509 69.6543C73.387 69.6993 73.387 69.6993 73.4238 69.745C73.8706 70.2979 74.3622 70.8371 74.9328 71.2699C74.9737 71.3018 75.0143 71.3334 75.0552 71.3654C77.0764 72.9281 79.6614 73.6528 82.2052 73.3437C83.3877 73.1846 84.5427 72.8354 85.5946 72.2652C85.6289 72.2467 85.6289 72.2467 85.664 72.2278C86.3412 71.8603 86.9565 71.4138 87.534 70.9055C87.5873 70.8584 87.6413 70.8117 87.6949 70.7654C87.8166 70.6599 87.8166 70.6599 87.9324 70.5483V70.4796H88.0012C88.0527 70.4298 88.0527 70.4298 88.1063 70.3635C88.1947 70.2591 88.2854 70.1585 88.3793 70.0589C88.8193 69.5712 89.1837 69.0216 89.5137 68.4515C89.5271 68.4288 89.5401 68.4058 89.5539 68.3825C90.8017 66.2187 91.0629 63.5398 90.4304 61.1356C90.263 60.5345 90.0592 59.9335 89.7567 59.384C89.7154 59.3074 89.6759 59.2301 89.6364 59.1528C89.4755 58.8386 89.3064 58.538 89.1001 58.253C89.0623 58.198 89.0623 58.198 89.0235 58.1417C88.7107 57.6883 88.3669 57.2556 87.9647 56.8778C87.8788 56.7929 87.7939 56.7071 87.7103 56.6198C87.1878 56.0806 86.5485 55.641 85.9022 55.2632C85.8816 55.2508 85.861 55.2388 85.8397 55.2261C85.0284 54.7453 84.1381 54.4121 83.2203 54.1992C83.1601 54.1844 83.1601 54.1844 83.0986 54.1696C82.8593 54.1147 82.6173 54.0759 82.3767 54.0405C82.3334 54.034 82.3334 54.034 82.2894 54.0275C81.87 53.9691 81.4541 53.9505 81.0347 53.9502H80.9601C78.8873 53.9533 76.8695 54.644 75.2195 55.8804L75.2082 55.8914ZM54.5832 56.1318C54.5804 56.3337 54.5787 56.5371 54.5777 56.7363C54.577 56.8046 54.5763 56.873 54.5753 56.9413C54.5677 57.5458 54.601 58.1468 54.7788 58.7307C54.7873 58.7599 54.7959 58.7894 54.8052 58.8197C55.0593 59.644 55.503 60.348 56.0943 60.9731C56.1359 61.0181 56.1359 61.0181 56.1785 61.0638C57.0619 61.9843 58.3716 62.5887 59.6504 62.6231C60.1248 62.6317 60.6026 62.6269 61.0769 62.6207C61.0787 62.4266 61.08 62.2326 61.0807 62.0368C61.0811 61.9712 61.0814 61.9056 61.0821 61.8397C61.0869 61.2936 61.0749 60.7509 60.9353 60.2186C60.9243 60.1767 60.9243 60.1767 60.913 60.1337C60.6641 59.2167 60.1877 58.4233 59.5311 57.7433C59.5039 57.7141 59.4768 57.6849 59.4489 57.6547C58.5586 56.717 57.2077 56.1572 55.9083 56.1194C55.7031 56.1163 55.4993 56.1187 55.293 56.1211C55.2218 56.1218 55.1503 56.1222 55.0792 56.1225C54.9077 56.1239 54.7361 56.1256 54.5636 56.1277L54.5832 56.1318ZM44.3394 69.08C44.336 69.136 44.3353 69.1923 44.3353 69.2483V69.3589C44.3353 69.3994 44.3353 69.4396 44.3356 69.4812V69.6089C44.3356 69.725 44.3356 69.8411 44.336 69.9558C44.336 70.0771 44.3363 70.1983 44.3363 70.3199C44.3363 70.5497 44.3367 70.7801 44.337 71.0102C44.3373 71.3204 44.3377 71.6319 44.3377 71.941C44.338 72.4287 44.3387 72.9198 44.3394 73.4075C46.481 73.4371 48.6363 73.445 50.7675 73.4426H50.8638C51.675 73.4416 52.4828 73.4405 53.2941 73.4391C53.8303 73.4381 54.37 73.4371 54.9063 73.4364H55.0156C55.1992 73.4361 55.3834 73.4357 55.5656 73.4357C56.8512 73.4337 58.1403 73.4319 59.4156 73.4299C60.6634 73.4278 61.9112 73.4258 63.1625 73.424H63.2797C63.6681 73.4233 64.0566 73.4227 64.445 73.4223C65.2356 73.4213 66.0297 73.4199 66.8203 73.4189C66.875 73.4189 66.875 73.4189 66.9307 73.4185C69.3438 73.4151 71.7432 73.4113 74.1838 73.4075C74.1253 73.2805 74.0686 73.2286 73.9518 73.15C73.5839 72.8917 73.2539 72.5867 72.9308 72.281C72.8562 72.2164 72.7947 72.179 72.7067 72.1375C72.6637 72.0646 72.6637 72.0646 72.6379 72.0001H72.5692C72.5565 71.9705 72.5565 71.9705 72.5434 71.9403C72.4936 71.8503 72.4351 71.7919 72.3609 71.7212C72.2289 71.5945 72.2289 71.5945 72.1911 71.5192H72.1223C72.1141 71.5 72.1058 71.4811 72.0972 71.4615C72.0443 71.365 71.9797 71.2908 71.9075 71.2081C71.3953 70.6036 70.945 69.9373 70.5875 69.2298C70.5345 69.1175 70.5345 69.1175 70.4376 69.046C70.3792 69.0429 70.3207 69.0416 70.2619 69.0416H70.1485H70.0223H69.8886H69.5174H69.1152C68.8804 69.0412 68.6443 69.0412 68.4105 69.0416H67.3655C66.7433 69.0412 66.1177 69.0412 65.4955 69.0412C64.9489 69.0416 64.4058 69.0416 63.8593 69.0416H63.7496C63.6032 69.0416 63.4564 69.0416 63.3096 69.0412C61.9346 69.0412 60.5562 69.0412 59.1846 69.0416H55.5065C54.1315 69.0412 52.7599 69.0412 51.3815 69.0416H50.9415H50.8322C50.289 69.0416 49.7425 69.0416 49.1959 69.0412C48.5772 69.0412 47.9584 69.0412 47.3362 69.0416H46.2947C46.0633 69.0412 45.8306 69.0416 45.6003 69.0416H45.205H44.7787H44.6522H44.5388H44.4405C44.3679 69.0378 44.3679 69.0378 44.3332 69.0804L44.3394 69.08ZM47.7769 75.537C47.802 75.8584 47.802 75.8584 47.8446 76.1758C47.8512 76.2156 47.8577 76.2555 47.8646 76.2967C47.8714 76.3386 47.8787 76.3808 47.8859 76.4244C47.8938 76.4705 47.9013 76.5165 47.9089 76.5625C47.9295 76.6872 47.9502 76.8115 47.9711 76.9369C47.9935 77.0695 48.0155 77.202 48.0375 77.3353C48.0794 77.5881 48.1213 77.8402 48.1636 78.0943C48.2104 78.3749 48.2571 78.6542 48.3039 78.9358C48.4063 79.554 48.5091 80.1688 48.6119 80.787C48.6497 81.0127 48.6872 81.2404 48.725 81.4636C48.782 81.8071 48.8394 82.1505 48.8968 82.494C48.9312 82.7011 48.9659 82.9096 49.0003 83.1156C49.1268 83.8747 49.2543 84.6337 49.3819 85.3927C49.4132 85.5782 49.4441 85.7637 49.4754 85.9491C49.506 86.1318 49.5369 86.3132 49.5675 86.4987C49.5792 86.5677 49.5909 86.6367 49.6022 86.7054C49.6184 86.8006 49.6345 86.896 49.6503 86.9912C49.6552 87.019 49.66 87.0472 49.6648 87.076C49.6847 87.1935 49.7071 87.3082 49.7359 87.4229H74.5203C74.5736 87.29 74.6038 87.1924 74.6269 87.0554C74.6334 87.0162 74.6403 86.9767 74.6472 86.9362C74.6578 86.8716 74.6578 86.8716 74.6685 86.8057C74.6764 86.7597 74.6839 86.7133 74.6918 86.6673C74.7132 86.5409 74.7341 86.4145 74.7551 86.2895C74.7774 86.1545 74.8001 86.0192 74.8228 85.8842C74.8668 85.6222 74.9105 85.3622 74.9541 85.0977C75.0047 84.7941 75.0552 84.4898 75.1061 84.1875C75.2033 83.6071 75.2999 83.0267 75.3969 82.4462C75.4588 82.0753 75.5206 81.7044 75.5828 81.3334C75.5866 81.3101 75.5908 81.2867 75.5945 81.2627C75.6138 81.1487 75.6327 81.0343 75.6519 80.9203C75.7417 80.381 75.8314 79.8453 75.9211 79.306C75.9273 79.2676 75.9338 79.2294 75.9403 79.1899C75.9778 78.9653 75.9778 78.9653 76.0149 78.74C76.0913 78.2798 76.1683 77.823 76.2456 77.3662L76.3281 76.8751C76.3487 76.7535 76.3693 76.6316 76.39 76.511C76.4116 76.3843 76.4329 76.2572 76.4543 76.1298C76.4604 76.0937 76.4666 76.0576 76.4732 76.0202C76.4814 75.9711 76.4814 75.9711 76.4897 75.9206C76.4945 75.8928 76.4993 75.8646 76.5041 75.8358C76.5154 75.7396 76.5141 75.6421 76.5141 75.5452H47.7766L47.7769 75.537ZM50.1144 89.5499C50.1196 89.6155 50.1251 89.6811 50.1302 89.7467C50.1333 89.7835 50.1361 89.8199 50.1392 89.8576C50.1581 90.0634 50.1959 90.2663 50.232 90.469C50.2454 90.5456 50.2584 90.6218 50.2712 90.6984C50.3358 91.0693 50.4135 91.4368 50.6128 91.7631C50.6421 91.8119 50.6421 91.8119 50.672 91.8617C50.7338 91.9548 50.7964 92.042 50.8707 92.1258H50.9394L50.9738 92.2288C51.6132 92.7818 52.3282 92.823 53.1394 92.823C53.2202 92.823 53.3013 92.8234 53.3821 92.8234C53.5808 92.8237 53.7808 92.8237 53.9768 92.8237C54.215 92.8234 54.4512 92.8237 54.6918 92.8241C55.1868 92.8244 55.6783 92.8244 56.1733 92.8244C56.5549 92.8244 56.9365 92.8244 57.318 92.8247H57.4823H57.7302C58.4968 92.8251 59.2668 92.8251 60.0333 92.8251H60.121H60.561H60.6493H60.826C61.7404 92.8247 62.6582 92.8251 63.576 92.8258C64.6073 92.8265 65.6351 92.8268 66.6663 92.8265H66.996H67.0778C67.4868 92.8265 67.8925 92.8268 68.3015 92.8271C68.7656 92.8275 69.2297 92.8275 69.6937 92.8271C69.9306 92.8268 70.1681 92.8268 70.4053 92.8271C70.6222 92.8278 70.8384 92.8275 71.055 92.8271C71.133 92.8271 71.2114 92.8271 71.2898 92.8275C72.0598 92.832 72.0598 92.832 72.7816 92.5867C72.8047 92.5747 72.8273 92.5627 72.8507 92.5507C73.0587 92.438 73.2254 92.2975 73.3904 92.1282C73.4148 92.1055 73.4389 92.0825 73.464 92.0592C73.8352 91.6883 73.9452 91.1765 74.0277 90.6785C74.0449 90.5768 74.0638 90.4755 74.0827 90.3739C74.0954 90.3038 74.1085 90.2334 74.1212 90.163C74.1274 90.1303 74.1333 90.0977 74.1394 90.0637C74.1449 90.0328 74.1504 90.0015 74.1563 89.9693C74.1635 89.9284 74.1635 89.9284 74.1711 89.8865C74.18 89.8065 74.1824 89.7312 74.1821 89.6505C74.1817 89.6073 74.1817 89.5636 74.1814 89.519C72.0948 89.5183 70.022 89.518 67.9251 89.5176H67.8313C67.1575 89.5173 66.4838 89.5173 65.81 89.5173H64.82C64.7705 89.5169 64.7705 89.5169 64.7203 89.5169C63.6582 89.5169 62.596 89.5166 61.5338 89.5162C60.4407 89.5159 59.3475 89.5159 58.2544 89.5159H57.7903C57.7598 89.5159 57.7292 89.5156 57.6975 89.5156C57.2094 89.5156 56.7213 89.5156 56.2366 89.5152H54.7585C54.4928 89.5152 54.2257 89.5152 53.961 89.5149C52.6822 89.5142 51.4069 89.5245 50.1453 89.5533L50.1144 89.5499Z" fill="#145333"/>
<circle cx="81" cy="63.7" r="10.95" fill="#F4F9F3" stroke="#76AA84" stroke-width="2.1"/>
<path d="M81.8736 56.486C82.0926 56.6809 82.2067 56.9363 82.2414 57.225C82.2439 57.3154 82.2449 57.4052 82.2439 57.4956C82.2435 57.5193 82.2435 57.543 82.2432 57.5674C82.2428 57.6252 82.2421 57.6829 82.2414 57.7407C82.271 57.7482 82.271 57.7482 82.3013 57.7558C82.7378 57.8764 83.1297 58.0913 83.5147 58.3264C83.5422 58.3429 83.5697 58.3594 83.5979 58.3763C83.8086 58.5175 83.9691 58.7372 84.0551 58.9778C84.1032 59.2848 84.0939 59.5725 83.9286 59.8406C83.9076 59.8764 83.9076 59.8764 83.8856 59.9132C83.7388 60.1349 83.5281 60.2707 83.2737 60.3566C82.8647 60.392 82.5828 60.3078 82.2425 60.0816V62.591C82.3673 62.625 82.492 62.659 82.6206 62.6941C82.7199 62.7374 82.8121 62.78 82.9066 62.8316C82.9437 62.8515 82.9437 62.8515 82.9815 62.8718C83.8203 63.3393 84.4012 64.0818 84.6659 65.0031C84.9364 65.9862 84.7072 66.9934 84.2225 67.8631C84.1056 68.0559 83.9712 68.2275 83.8237 68.3993C83.8031 68.4251 83.7825 68.4509 83.7612 68.4774C83.3968 68.9139 82.8468 69.2749 82.3105 69.4639H82.2418C82.2428 69.5069 82.2435 69.5502 82.2445 69.5945C82.2562 70.5055 82.2562 70.5055 81.9262 70.8664C81.6784 71.1002 81.3762 71.1627 81.0462 71.1596C80.7571 71.1339 80.5306 71.0012 80.3415 70.7884C80.092 70.4742 80.093 70.0906 80.0789 69.7056C80.0552 69.7011 80.0315 69.6966 80.0067 69.6918C79.896 69.6709 79.7857 69.6495 79.675 69.6282C79.6375 69.621 79.6001 69.6141 79.5616 69.6069C78.8156 69.4612 77.8531 69.1154 77.3959 68.4691C77.2499 68.2099 77.2179 67.9535 77.2749 67.6647C77.3588 67.3719 77.5338 67.1594 77.7906 67.0013C78.0749 66.8573 78.3371 66.8215 78.6431 66.9126C78.8394 66.9845 79.0143 67.0865 79.1931 67.1934C79.433 67.332 79.7981 67.5441 80.0799 67.5441V64.0378L79.4268 63.6941C79.1078 63.5198 78.8149 63.3366 78.5331 63.1097C78.5049 63.087 78.4764 63.0643 78.4471 63.0409C77.9212 62.5975 77.6462 61.9272 77.5706 61.2534C77.5152 60.3322 77.7583 59.4316 78.3612 58.72C78.8459 58.1769 79.389 57.8778 80.0799 57.6784C80.0813 57.6582 80.0824 57.6379 80.0837 57.6169C80.0896 57.5234 80.0968 57.4303 80.1037 57.3368C80.1064 57.289 80.1064 57.289 80.1092 57.2402C80.1353 56.9177 80.2604 56.6799 80.4976 56.4564C80.917 56.1237 81.4739 56.1604 81.8795 56.4898L81.8736 56.486ZM80.0414 60.0266C79.8008 60.3659 79.6186 60.6969 79.6633 61.1266C79.7235 61.3095 79.8039 61.4387 79.9383 61.5735L80.1102 61.6079V60.061L80.0414 60.0266ZM82.2414 65.011V66.936C82.4601 66.8267 82.5065 66.606 82.5852 66.386C82.7158 65.946 82.6484 65.5747 82.4439 65.176C82.382 65.067 82.382 65.067 82.2414 65.011Z" fill="#76AA84"/>
</g>
</svg>
