<svg width="129" height="34" viewBox="0 0 129 34" fill="none" xmlns="http://www.w3.org/2000/svg">
<mask id="mask0_426_10319" style="mask-type:alpha" maskUnits="userSpaceOnUse" x="0" y="0" width="129" height="34">
<rect width="129" height="34" fill="black"/>
</mask>
<g mask="url(#mask0_426_10319)">
<path d="M56.8113 6.16627V26.1001H52.8131V17.6182H44.2741V26.1001H40.276V6.16627H44.2741V14.3626H52.8131V6.16627H56.8113ZM66.9152 26.3571C65.3921 26.3571 64.0213 26.0239 62.8028 25.3576C61.5843 24.6722 60.6228 23.7107 59.9184 22.4732C59.233 21.2356 58.8903 19.8077 58.8903 18.1894C58.8903 16.5711 59.2425 15.1432 59.947 13.9056C60.6704 12.6681 61.651 11.7161 62.8885 11.0498C64.126 10.3644 65.5063 10.0217 67.0295 10.0217C68.5526 10.0217 69.9329 10.3644 71.1705 11.0498C72.408 11.7161 73.379 12.6681 74.0834 13.9056C74.8069 15.1432 75.1686 16.5711 75.1686 18.1894C75.1686 19.8077 74.7974 21.2356 74.0549 22.4732C73.3314 23.7107 72.3413 24.6722 71.0848 25.3576C69.8472 26.0239 68.4574 26.3571 66.9152 26.3571ZM66.9152 22.873C67.6387 22.873 68.3146 22.7016 68.9429 22.3589C69.5902 21.9972 70.1043 21.4641 70.485 20.7597C70.8658 20.0552 71.0562 19.1985 71.0562 18.1894C71.0562 16.6853 70.6564 15.5335 69.8568 14.7338C69.0762 13.9151 68.1147 13.5058 66.9724 13.5058C65.83 13.5058 64.8685 13.9151 64.0879 14.7338C63.3264 15.5335 62.9456 16.6853 62.9456 18.1894C62.9456 19.6935 63.3169 20.8549 64.0594 21.6735C64.8209 22.4732 65.7729 22.873 66.9152 22.873ZM86.0122 10.0502C87.897 10.0502 89.4202 10.6499 90.5815 11.8494C91.7429 13.0298 92.3236 14.6862 92.3236 16.8186V26.1001H88.3254V17.3612C88.3254 16.1046 88.0113 15.1432 87.383 14.4768C86.7547 13.7914 85.8979 13.4487 84.8127 13.4487C83.7085 13.4487 82.8327 13.7914 82.1853 14.4768C81.557 15.1432 81.2429 16.1046 81.2429 17.3612V26.1001H77.2447V10.2787H81.2429V12.2492C81.776 11.5638 82.4519 11.0307 83.2706 10.6499C84.1083 10.2501 85.0221 10.0502 86.0122 10.0502ZM101.952 10.193C103.303 10.193 104.484 10.4881 105.493 11.0783C106.521 11.6685 107.283 12.4111 107.778 13.3059V10.45H110.405V26.4428C110.405 27.8707 110.1 29.1368 109.491 30.2411C108.882 31.3644 108.006 32.2402 106.864 32.8685C105.74 33.4967 104.427 33.8109 102.923 33.8109C100.866 33.8109 99.1529 33.3254 97.7821 32.3544C96.4113 31.3834 95.6021 30.0602 95.3546 28.3848H97.9249C98.2104 29.3367 98.8006 30.0983 99.6955 30.6695C100.59 31.2597 101.666 31.5548 102.923 31.5548C104.351 31.5548 105.512 31.1074 106.407 30.2125C107.321 29.3177 107.778 28.0611 107.778 26.4428V23.1586C107.263 24.0724 106.502 24.834 105.493 25.4433C104.484 26.0525 103.303 26.3571 101.952 26.3571C100.562 26.3571 99.2957 26.0144 98.1533 25.329C97.03 24.6436 96.1447 23.6821 95.4974 22.4446C94.8501 21.2071 94.5264 19.7982 94.5264 18.218C94.5264 16.6187 94.8501 15.2193 95.4974 14.0199C96.1447 12.8014 97.03 11.8589 98.1533 11.1926C99.2957 10.5262 100.562 10.193 101.952 10.193ZM107.778 18.2465C107.778 17.0661 107.54 16.038 107.064 15.1622C106.588 14.2864 105.94 13.62 105.122 13.1631C104.322 12.6871 103.437 12.4491 102.466 12.4491C101.495 12.4491 100.609 12.6776 99.8097 13.1345C99.0101 13.5915 98.3723 14.2578 97.8963 15.1336C97.4203 16.0094 97.1823 17.0375 97.1823 18.218C97.1823 19.4174 97.4203 20.4646 97.8963 21.3594C98.3723 22.2352 99.0101 22.9111 99.8097 23.387C100.609 23.844 101.495 24.0724 102.466 24.0724C103.437 24.0724 104.322 23.844 105.122 23.387C105.94 22.9111 106.588 22.2352 107.064 21.3594C107.54 20.4646 107.778 19.4269 107.778 18.2465ZM120.765 26.3571C119.299 26.3571 117.967 26.0239 116.767 25.3576C115.587 24.6912 114.654 23.7488 113.968 22.5303C113.302 21.2928 112.969 19.8648 112.969 18.2465C112.969 16.6472 113.312 15.2383 113.997 14.0199C114.701 12.7823 115.653 11.8399 116.853 11.1926C118.052 10.5262 119.395 10.193 120.88 10.193C122.365 10.193 123.707 10.5262 124.906 11.1926C126.106 11.8399 127.048 12.7728 127.734 13.9913C128.438 15.2098 128.79 16.6282 128.79 18.2465C128.79 19.8648 128.429 21.2928 127.705 22.5303C127.001 23.7488 126.039 24.6912 124.821 25.3576C123.602 26.0239 122.25 26.3571 120.765 26.3571ZM120.765 24.0724C121.698 24.0724 122.574 23.8535 123.393 23.4156C124.211 22.9777 124.868 22.3209 125.363 21.4451C125.877 20.5693 126.134 19.5031 126.134 18.2465C126.134 16.9899 125.887 15.9238 125.392 15.048C124.897 14.1722 124.25 13.5248 123.45 13.106C122.65 12.6681 121.784 12.4491 120.851 12.4491C119.899 12.4491 119.023 12.6681 118.224 13.106C117.443 13.5248 116.815 14.1722 116.339 15.048C115.863 15.9238 115.625 16.9899 115.625 18.2465C115.625 19.5221 115.853 20.5978 116.31 21.4736C116.786 22.3494 117.415 23.0063 118.195 23.4442C118.976 23.863 119.832 24.0724 120.765 24.0724Z" fill="white"/>
<path d="M16.6261 33.0901H0.5V10.6604L15.6463 0.100098L30.7926 10.6604V17.2647C30.7926 20.3658 30.4615 22.4634 29.5666 24.0851C28.7041 25.649 27.3921 26.6804 25.4353 27.6238C24.9111 28.948 23.6184 30.3967 22.0037 31.4529C20.4214 32.4883 18.4901 33.1928 16.6261 33.0901ZM2.82301 30.7671H16.627L16.7042 30.7717C18.0455 30.8615 19.5052 30.3148 20.7336 29.5112C22.12 28.6043 23.1603 27.4352 23.3594 26.537L23.4853 25.9682L24.0126 25.7293C25.7675 24.9348 26.8872 24.1426 27.5343 22.9691C28.217 21.7316 28.4698 19.9682 28.4698 17.2648V11.861L15.6463 2.92029L2.82301 11.8608V30.7671Z" fill="white"/>
<path d="M8.97713 10.4538C11.2797 9.83655 13.7042 9.83637 16.0069 10.4532C18.3095 11.0701 20.4092 12.2823 22.0949 13.9679C23.7805 15.6535 24.9928 17.7532 25.6097 20.0559C26.2266 22.3585 26.2264 24.783 25.6093 27.0856L25.4363 27.7336L24.7883 27.9067C22.4857 28.5239 20.0612 28.524 17.7586 27.9071C15.4559 27.2902 13.3563 26.078 11.6706 24.3924C9.98499 22.7067 8.7728 20.607 8.15591 18.3044C7.53902 16.0017 7.53918 13.5773 8.15636 11.2747L8.32947 10.6267L8.97745 10.4536L8.97713 10.4538ZM15.4198 12.698C13.7291 12.2454 11.9565 12.191 10.2412 12.5389C9.89319 14.2542 9.94758 16.0268 10.4001 17.7176C10.9148 19.6206 11.9192 21.3556 13.3133 22.7496C14.7073 24.1435 16.4423 25.1479 18.3454 25.6625C20.0361 26.115 21.8088 26.1695 23.5241 25.8216C23.872 24.1062 23.8176 22.3336 23.3652 20.6428C22.8504 18.7397 21.846 17.0047 20.452 15.6107C19.0579 14.2166 17.3229 13.2122 15.4198 12.6975V12.698Z" fill="white"/>
<path fill-rule="evenodd" clip-rule="evenodd" d="M15.4201 12.698C13.7294 12.2455 11.9568 12.1911 10.2414 12.5389C9.89345 14.2543 9.94784 16.0269 10.4003 17.7176C10.9151 19.6207 11.9195 21.3556 13.3135 22.7496C14.7076 24.1436 16.4426 25.1479 18.3457 25.6626C20.0364 26.1151 21.809 26.1695 23.5243 25.8216C23.8723 24.1063 23.8179 22.3336 23.3654 20.6429C22.8507 18.7398 21.8463 17.0048 20.4522 15.6108C19.0582 14.2167 17.3232 13.2123 15.4201 12.6975V12.698Z" fill="#CCFF66"/>
<path fill-rule="evenodd" clip-rule="evenodd" d="M23.3705 25.8519L10.2414 12.5391C9.89345 14.2544 9.94784 16.027 10.4003 17.7177C10.9151 19.6208 11.9195 21.3557 13.3135 22.7497C14.7076 24.1437 16.4426 25.148 18.3457 25.6627C19.9853 26.1015 21.7027 26.1661 23.3707 25.8518L23.3705 25.8519Z" fill="#99CC33"/>
</g>
</svg>
