<svg width="135" height="135" viewBox="0 0 135 135" fill="none" xmlns="http://www.w3.org/2000/svg">
<rect width="135" height="135" rx="67.5" fill="#F4F9F3"/>
<path fill-rule="evenodd" clip-rule="evenodd" d="M67.4212 39.8264C68.6172 39.8151 69.4295 39.8716 70.3434 40.0411C71.0429 40.154 72.1373 40.4139 72.7691 40.606C73.4122 40.7867 74.3261 41.1031 74.8 41.2951C75.2851 41.4872 76.1088 41.8713 76.639 42.1538C77.1693 42.4362 78.0268 42.9672 78.5571 43.3288C79.0873 43.6903 79.8997 44.3004 80.3623 44.6958C80.8248 45.0912 81.6033 45.8595 82.0885 46.4244C82.5736 46.9893 83.2844 47.8931 83.6568 48.458C84.0291 49.0229 84.5819 49.972 84.8865 50.582C85.1912 51.1808 85.5861 52.0508 85.7666 52.4914C85.9471 52.9433 86.2292 53.8471 86.3984 54.5024C86.5564 55.1577 86.7707 56.1745 86.861 56.762C86.94 57.3495 87.0189 58.5471 87.0189 59.417C87.0189 60.6598 86.9512 61.3038 86.7369 62.411C86.5789 63.1905 86.263 64.3768 86.0374 65.066C85.823 65.7552 85.3604 66.9415 85.0107 67.721C84.6722 68.5006 84.0516 69.7659 83.6342 70.5455C83.228 71.3251 82.427 72.6695 81.8741 73.5395C81.3213 74.4094 80.2833 75.9346 79.5725 76.9288C78.8617 77.9231 77.5868 79.5952 76.7406 80.6572C75.8944 81.7192 74.2246 83.7189 73.0286 85.1199C71.8327 86.5208 70.3321 88.2494 69.7003 88.9612C69.0685 89.6729 68.3915 90.396 68.1997 90.5768C67.9966 90.7462 67.7033 90.8818 67.5228 90.8818C67.3535 90.8931 67.0715 90.7688 66.8909 90.6332C66.6991 90.4864 65.7853 89.5148 64.8488 88.4527C63.9124 87.3907 62.818 86.148 62.4118 85.6848C62.0169 85.2215 61.1707 84.2273 60.5502 83.4817C59.9296 82.736 58.7337 81.2673 57.8988 80.2052C57.0752 79.1432 55.8566 77.5389 55.2023 76.6238C54.5479 75.7087 53.6001 74.3077 53.1037 73.5169C52.596 72.7147 51.8739 71.5171 51.5016 70.828C51.1293 70.1388 50.5087 68.896 50.1251 68.06C49.7415 67.2239 49.2338 65.9472 48.9969 65.2355C48.7599 64.5237 48.444 63.2809 48.2748 62.4675C48.0491 61.3264 47.9814 60.6711 47.9814 59.53C47.9814 58.7166 48.0379 57.632 48.0943 57.101C48.162 56.57 48.3651 55.5305 48.5456 54.7849C48.7261 54.0392 49.0646 52.9772 49.2902 52.4123C49.5159 51.8474 49.8995 50.9888 50.1477 50.4917C50.3959 49.9945 50.8698 49.1811 51.1857 48.684C51.5129 48.1869 52.156 47.3282 52.6298 46.7633C53.0924 46.1984 53.8484 45.4076 54.3109 45.0009C54.7735 44.5941 55.4505 44.0292 55.8228 43.7468C56.1951 43.4643 56.8495 43.0124 57.2895 42.7526C57.7183 42.4814 58.587 42.0182 59.2075 41.7245C59.8281 41.4307 60.7871 41.0466 61.3512 40.8545C61.9041 40.6737 62.8744 40.4139 63.4949 40.2896C64.1154 40.154 64.8714 40.0072 65.1873 39.9507C65.4919 39.8942 66.496 39.8377 67.4099 39.8264H67.4212ZM63.7318 42.6509C63.1113 42.7752 62.0959 43.0689 61.4753 43.2836C60.8548 43.4982 59.8619 43.9276 59.2752 44.2326C58.6886 44.5376 57.7408 45.1138 57.188 45.5206C56.6239 45.916 55.7438 46.673 55.2135 47.1927C54.6833 47.7124 53.9386 48.5936 53.5437 49.1472C53.1488 49.7008 52.5621 50.6837 52.2237 51.339C51.8965 51.9943 51.4677 52.9772 51.2759 53.5421C51.0954 54.107 50.8359 55.0221 50.7118 55.5757C50.5877 56.1293 50.441 57.0897 50.3733 57.6997C50.3056 58.2985 50.2492 59.2137 50.2492 59.7221C50.2492 60.2418 50.3282 61.123 50.4185 61.6766C50.52 62.2302 50.7231 63.1567 50.8923 63.7102C51.0503 64.2638 51.3888 65.2129 51.637 65.8004C51.8739 66.3879 52.4719 67.6645 52.957 68.6249C53.4535 69.5852 54.3109 71.1104 54.8751 72.0142C55.4505 72.9181 56.3192 74.2399 56.8269 74.9517C57.3234 75.6635 58.1131 76.7594 58.587 77.3808C59.0496 78.0021 60.065 79.3014 60.8435 80.2617C61.622 81.2221 62.7277 82.5665 63.3144 83.2557C63.9011 83.9449 65.0745 85.278 65.9206 86.227C66.7668 87.1761 67.4776 87.9556 67.5115 87.9556C67.5453 87.9556 68.2561 87.1761 69.1023 86.227C69.9485 85.278 71.246 83.7867 71.9794 82.9168C72.724 82.0468 73.8297 80.7024 74.4615 79.9228C75.082 79.1432 75.9734 78.0021 76.4359 77.3808C76.9098 76.7594 77.6996 75.6635 78.196 74.9517C78.7037 74.2399 79.5161 73.0198 80.0012 72.2402C80.4976 71.4606 81.231 70.2179 81.6485 69.4722C82.0546 68.7265 82.63 67.5854 82.9234 66.9302C83.2055 66.2749 83.6455 65.1564 83.8937 64.4446C84.1306 63.7328 84.4352 62.5692 84.5481 61.8687C84.6722 61.1795 84.7737 60.1288 84.7737 59.5639C84.7737 58.9877 84.6947 57.9596 84.6045 57.2704C84.5142 56.5812 84.2886 55.474 84.1081 54.7849C83.9163 54.107 83.6003 53.1354 83.3973 52.6383C83.1829 52.1412 82.7654 51.2825 82.4608 50.7176C82.1562 50.1527 81.6146 49.3167 81.2649 48.8535C80.9151 48.3902 80.2269 47.6107 79.7417 47.1249C79.2453 46.6504 78.4217 45.9386 77.8914 45.5658C77.3611 45.1816 76.6052 44.6958 76.199 44.4699C75.7928 44.2439 75.0256 43.8711 74.4728 43.6338C73.9312 43.3965 72.9158 43.0576 72.2163 42.8768C71.5281 42.6961 70.5916 42.4927 70.1629 42.4249C69.7228 42.3684 68.8202 42.2894 68.132 42.2555C67.4438 42.2329 66.4284 42.2555 65.8755 42.3006C65.3227 42.3571 64.3524 42.5153 63.7318 42.6509Z" fill="#145333"/>
<path fill-rule="evenodd" clip-rule="evenodd" d="M61.498 84.7922C61.5657 84.7809 61.8703 85.0521 62.1524 85.3684C62.4457 85.696 62.8068 86.1367 62.976 86.34C63.134 86.5434 63.2468 86.7354 63.2129 86.758C63.1791 86.7919 62.5698 86.9162 61.859 87.0405C61.1482 87.1535 60.1215 87.3907 59.58 87.5489C59.0271 87.7071 58.2712 87.9556 57.8876 88.1138C57.4927 88.272 56.9286 88.5657 56.624 88.7691C56.3193 88.9724 55.9809 89.2662 55.868 89.4357C55.7101 89.6616 55.6875 89.8085 55.7552 89.9441C55.8116 90.057 56.0034 90.283 56.1839 90.4525C56.3532 90.6219 56.9286 90.9609 57.4589 91.2094C57.9891 91.458 58.982 91.8082 59.659 92.0003C60.3359 92.1924 61.3513 92.4183 61.9155 92.5087C62.4683 92.6104 63.5176 92.7347 64.2284 92.8024C64.9392 92.8589 66.4397 92.9154 67.5567 92.9154C68.6737 92.9154 70.2984 92.8363 71.1671 92.746C72.0359 92.6556 73.1754 92.4974 73.7057 92.407C74.236 92.3053 75.1724 92.0681 75.7929 91.8873C76.4135 91.6952 77.3274 91.3224 77.8125 91.0739C78.3089 90.814 78.8505 90.4299 79.031 90.2265C79.3244 89.8876 79.3357 89.8424 79.189 89.5486C79.11 89.3792 78.7715 89.0628 78.4331 88.8369C78.0946 88.6109 77.5079 88.2946 77.1243 88.1251C76.7294 87.9669 75.996 87.7071 75.4883 87.5602C74.9693 87.4133 73.92 87.1761 73.1416 87.0405C72.3631 86.9049 71.7087 86.7693 71.6748 86.7467C71.641 86.7242 71.9456 86.34 72.3405 85.8881C72.7467 85.4362 73.1303 84.9956 73.1867 84.9165C73.2882 84.7922 73.5703 84.8261 74.7211 85.0747C75.4996 85.2328 76.5602 85.5266 77.0904 85.7073C77.6207 85.8994 78.4331 86.2383 78.8956 86.4869C79.3582 86.7242 80.0126 87.1648 80.3511 87.4585C80.6896 87.7636 81.0619 88.2494 81.2198 88.5657C81.3778 88.8821 81.5019 89.3566 81.5019 89.639C81.5132 89.9215 81.4455 90.3734 81.3665 90.6558C81.265 91.0174 81.0168 91.3563 80.5316 91.8421C80.1029 92.2827 79.5275 92.7008 78.9521 92.9945C78.4556 93.2544 77.6997 93.6046 77.2597 93.7628C76.8197 93.9322 75.9622 94.1808 75.3416 94.3277C74.7211 94.4745 73.3334 94.7344 72.2728 94.8926C70.5917 95.1298 69.926 95.175 67.5341 95.175C65.65 95.175 64.3299 95.1185 63.495 95.0055C62.8068 94.9152 61.6898 94.7344 61.0129 94.6101C60.3359 94.4858 59.2415 94.2373 58.5871 94.0452C57.9327 93.8419 56.9286 93.4577 56.3532 93.1866C55.6424 92.8476 55.0895 92.4748 54.6044 92.0342C54.1869 91.6388 53.8146 91.1755 53.6905 90.8705C53.5777 90.5993 53.4761 90.0909 53.4761 89.752C53.4649 89.2775 53.5438 88.995 53.8033 88.5205C53.9838 88.1816 54.3787 87.6845 54.6946 87.4133C54.9993 87.1422 55.7101 86.7016 56.2742 86.4191C56.8383 86.148 57.6958 85.7864 58.1922 85.617C58.6887 85.4588 59.6025 85.2102 60.2231 85.0634C60.8436 84.9165 61.419 84.7922 61.4867 84.7922H61.498ZM67.9065 45.8595C68.8204 45.8821 69.8471 45.9725 70.3322 46.0855C70.7948 46.1871 71.562 46.3905 72.0246 46.5487C72.4872 46.7068 73.3334 47.0797 73.8862 47.3621C74.439 47.6559 75.2852 48.1756 75.7478 48.5258C76.2104 48.8761 76.9776 49.5539 77.4402 50.051C77.9141 50.5368 78.5572 51.3277 78.8618 51.7909C79.1777 52.2541 79.6064 52.9659 79.8095 53.3726C80.0126 53.7794 80.3511 54.6154 80.5542 55.2368C80.7573 55.8582 81.0168 56.8976 81.1183 57.5529C81.2537 58.4115 81.2762 59.112 81.2311 60.0949C81.1973 60.8406 81.0619 61.88 80.9491 62.411C80.8249 62.942 80.5767 63.8006 80.3849 64.3316C80.1931 64.8626 79.8095 65.6987 79.5275 66.1958C79.2454 66.6929 78.7377 67.4612 78.4105 67.8905C78.072 68.3311 77.4402 69.0203 77.0002 69.4496C76.5602 69.8676 75.8268 70.4664 75.3868 70.7715C74.9355 71.0878 74.157 71.5397 73.6606 71.7883C73.1641 72.0368 72.2954 72.3758 71.7425 72.5565C71.1897 72.7373 70.3435 72.9633 69.8809 73.0423C69.4183 73.1214 68.3465 73.1892 67.5116 73.1892C66.5187 73.1892 65.6387 73.1214 64.973 72.9859C64.4202 72.8729 63.5289 72.6243 62.9986 72.4436C62.4683 72.2515 61.7913 71.969 61.4754 71.8222C61.1708 71.664 60.4826 71.2573 59.9523 70.9183C59.3995 70.5568 58.5307 69.8224 57.9102 69.201C57.3122 68.6023 56.5563 67.7097 56.2291 67.2126C55.8906 66.7155 55.4054 65.8569 55.1459 65.292C54.8752 64.7384 54.5593 63.891 54.4239 63.4278C54.2998 62.9646 54.1192 62.0946 54.029 61.5072C53.9387 60.9197 53.8597 60.0271 53.8597 59.53C53.8597 59.0329 53.9387 58.0952 54.0403 57.4399C54.1418 56.7846 54.3675 55.8017 54.5593 55.2368C54.7398 54.6832 55.1234 53.7681 55.4167 53.2032C55.7101 52.6496 56.2291 51.8022 56.5788 51.339C56.9286 50.8758 57.583 50.1301 58.0456 49.6895C58.5081 49.2489 59.1851 48.6614 59.5574 48.3902C59.9297 48.1191 60.6405 47.6785 61.137 47.4186C61.6334 47.1588 62.3668 46.8311 62.7729 46.673C63.1791 46.5261 63.9914 46.2888 64.5781 46.1532C65.7211 45.9111 66.7305 45.8289 67.9065 45.8595ZM63.9576 48.6953C63.653 48.797 63.0324 49.0568 62.6037 49.2828C62.175 49.4974 61.4416 49.9381 60.979 50.2544C60.5164 50.5707 59.7943 51.2034 59.3769 51.6553C58.9482 52.096 58.3615 52.8416 58.0681 53.2935C57.7748 53.7342 57.4024 54.412 57.2332 54.7849C57.0527 55.1577 56.7819 55.926 56.6014 56.4796C56.3193 57.4286 56.2968 57.632 56.2968 59.53C56.2968 61.4055 56.3193 61.6427 56.6014 62.5805C56.7706 63.1454 57.1204 64.0266 57.3799 64.5576C57.6394 65.0886 58.1471 65.9133 58.5081 66.3992C58.8692 66.8737 59.2189 67.2465 59.2753 67.2126C59.308 66.9334 59.6141 66.6443 59.8169 66.4895C60.0426 66.3088 60.5954 65.9924 61.0241 65.7778C62.9838 64.8406 64.6248 65.6248 66.4172 66.3427C66.4623 66.354 66.4962 66.0715 66.4962 65.7213L66.5074 65.066C65.4018 64.4107 64.7135 63.9023 64.2622 63.5069C63.7996 63.1228 63.1227 62.4562 62.7504 62.0156C62.378 61.5862 61.8816 60.8971 61.656 60.4903C61.419 60.0836 61.1031 59.4509 60.9564 59.0781C60.5047 57.9473 60.5017 56.3848 61.0467 55.2933C61.2611 54.8414 61.6221 54.3556 61.9719 54.0279C62.2878 53.7229 62.8406 53.35 63.2017 53.1806C64.2271 52.6671 65.7473 52.6936 66.7782 53.1806L67.4552 53.4969C68.7632 52.8294 70.2945 52.5597 71.6748 53.2032C72.1374 53.4178 72.5887 53.7568 72.9385 54.1409C73.2431 54.4572 73.6267 55.0221 73.7959 55.3837C74.3421 56.5212 74.2471 58.1547 73.7734 59.3041C73.5929 59.7447 73.2093 60.4564 72.9272 60.8858C72.6451 61.3264 71.9343 62.1511 71.3476 62.7386C70.7609 63.3148 69.9035 64.0379 69.4635 64.3429C69.0122 64.648 68.5947 64.8965 68.527 64.8965C68.4593 64.8965 68.4142 65.2129 68.4142 65.6309V66.3653C69.1588 65.9359 69.6778 65.71 70.0501 65.5744C70.524 65.4162 71.0092 65.3484 71.6635 65.3484C72.2277 65.3484 72.8369 65.4275 73.2431 65.5518C73.5929 65.6648 74.1457 65.9133 74.4503 66.1054C74.7662 66.2975 75.1047 66.5573 75.2175 66.6703C75.3191 66.7833 75.4545 67.0544 75.4996 67.2691L75.5899 67.6645C76.594 66.4444 77.1017 65.7326 77.3612 65.292C77.6207 64.8626 77.993 64.0718 78.1848 63.5408C78.3879 63.0098 78.6361 62.1285 78.7377 61.5636C78.8844 60.7954 78.9182 60.1853 78.8731 59.0781C78.8392 58.1404 78.7377 57.3043 78.591 56.762C78.4669 56.2988 78.2074 55.5305 78.0156 55.0673C77.8238 54.6041 77.4063 53.8133 77.0792 53.3161C76.7632 52.819 76.0863 52.0056 75.5899 51.4972C75.0821 51.0001 74.3488 50.3674 73.9426 50.0962C73.5364 49.8251 72.8031 49.4071 72.3067 49.1811C71.8102 48.9438 70.9979 48.6501 70.5014 48.5145C69.8019 48.3112 69.2152 48.2547 67.8501 48.2208C66.6203 48.1982 65.8643 48.2321 65.3115 48.345C64.8828 48.4354 64.2735 48.5936 63.9576 48.6953ZM63.055 55.7565C62.8293 56.0728 62.6714 56.457 62.615 56.8185C62.5698 57.1348 62.5811 57.6094 62.6488 57.9257C62.7165 58.2194 62.9083 58.7279 63.0663 59.0555C63.2355 59.3718 63.5853 59.9254 63.8448 60.2644C64.1043 60.6033 64.691 61.236 65.1535 61.654C65.6161 62.0833 66.2931 62.6256 66.6654 62.8629C67.2408 63.2357 67.3875 63.2809 67.6244 63.1905C67.7824 63.1228 68.2111 62.8516 68.5834 62.5805C68.9557 62.3206 69.6553 61.6879 70.1404 61.1795C70.6143 60.6824 71.201 59.9706 71.4266 59.6204C71.6523 59.2589 71.9343 58.6714 72.0472 58.3211C72.16 57.9596 72.2502 57.4512 72.2502 57.1913C72.2502 56.8863 72.1374 56.4796 71.9456 56.0841C71.7312 55.6774 71.4605 55.3498 71.1446 55.1238C70.2787 54.5235 69.1284 54.7141 68.3014 55.2707C67.8952 55.5305 67.4665 55.7452 67.3423 55.7452C67.2182 55.7452 66.9362 55.6209 66.7218 55.4515C66.5074 55.2933 66.1238 55.056 65.8756 54.943C65.6274 54.8301 65.1987 54.7284 64.9166 54.7284C64.5781 54.7284 64.2284 54.8188 63.9125 54.9995C63.6417 55.1464 63.2581 55.4853 63.055 55.7565ZM61.3626 68.06C61.3965 68.2181 61.5544 68.5458 61.7011 68.7943C61.8478 69.0429 62.0847 69.3592 62.2314 69.4948C62.3668 69.6304 62.897 69.9015 63.3935 70.1049C64.1043 70.3873 64.3976 70.4438 64.8038 70.3986C65.0858 70.3647 65.5371 70.2405 65.8079 70.1275C66.2705 69.9354 66.2931 69.9015 66.2254 69.5626C66.1915 69.3592 66.011 68.9638 65.8192 68.6813C65.6274 68.3989 65.3115 68.0487 65.1197 67.9018C64.9166 67.7436 64.5217 67.5403 64.2397 67.4386C63.9576 67.3482 63.4273 67.2691 63.055 67.2691C62.6037 67.2691 62.1975 67.3595 61.8365 67.529C61.3513 67.7549 61.2949 67.8114 61.3626 68.06ZM69.2829 68.3198C68.9896 68.6474 68.6737 69.122 68.5834 69.3931L68.4142 69.8676C69.3619 70.3195 69.6778 70.376 70.3322 70.376C70.9866 70.3647 71.2912 70.3082 71.6635 70.1162C71.923 69.9806 72.3179 69.6982 72.5436 69.5061C72.7692 69.3027 73.0739 68.8621 73.2205 68.5458C73.3672 68.2181 73.4913 67.9131 73.4913 67.8679C73.5026 67.8114 73.2431 67.6645 72.9272 67.529C72.521 67.3369 72.1487 67.2691 71.5959 67.2691C71.0769 67.2691 70.682 67.3482 70.3322 67.5064C70.0501 67.6306 69.5763 68.0035 69.2829 68.3198Z" fill="#76AA84"/>
</svg>
