<svg width="135" height="135" viewBox="0 0 135 135" fill="none" xmlns="http://www.w3.org/2000/svg">
<rect width="135" height="135" rx="67.5" fill="#F4F9F3"/>
<path d="M71.7422 68.5313C71.9832 68.7461 71.9832 68.7461 72.0928 68.8482C72.1664 68.9159 72.1664 68.9159 72.2465 68.9713C72.2757 68.9946 72.2757 68.9946 72.3056 69.0184V69.0871C72.3397 69.0985 72.3737 69.1098 72.4087 69.1215C72.4593 69.1703 72.4593 69.1703 72.5139 69.2353C72.5349 69.26 72.5562 69.2851 72.5779 69.3109C72.6012 69.3391 72.625 69.3673 72.6494 69.3965C72.6896 69.4432 72.6896 69.4432 72.7305 69.4907C73.9336 70.9001 74.4871 72.7185 74.3599 74.5438C74.2585 75.6816 73.9027 76.8676 73.2324 77.8026C73.2111 77.8331 73.1894 77.8637 73.1674 77.8954C72.7515 78.4797 72.2358 79.1397 71.6171 79.5213H71.5483V79.5901C71.5903 79.6028 71.6319 79.6155 71.6752 79.6286C71.8935 79.7014 72.098 79.8011 72.3042 79.9015C72.3245 79.9115 72.3452 79.9211 72.3661 79.9314C72.7099 80.0988 73.0467 80.2786 73.3699 80.4848C73.4043 80.5065 73.4386 80.5278 73.474 80.5501C73.9965 80.8894 74.4881 81.272 74.9522 81.688C74.9707 81.7045 74.9889 81.721 75.0082 81.7378C75.3519 82.0465 75.6854 82.3634 75.9741 82.7244C76.0429 82.8096 76.114 82.8921 76.1866 82.9746C76.4454 83.2713 76.6644 83.5934 76.8775 83.9234C76.8961 83.9516 76.915 83.9801 76.9342 84.0093C77.192 84.4012 77.412 84.8034 77.608 85.2331C77.6241 85.2681 77.6399 85.3028 77.6568 85.3389C77.6709 85.3702 77.685 85.4015 77.6994 85.4335C77.7321 85.5101 77.7321 85.5101 77.8067 85.5393C77.8317 85.4946 77.8317 85.4946 77.8575 85.4493C78.1532 84.9371 78.5003 84.4593 78.906 84.0261C78.9434 83.9825 78.9806 83.9388 79.0177 83.8952C79.3075 83.5635 79.6261 83.2661 79.9733 82.9946C80.0012 82.9715 80.029 82.9488 80.0575 82.9255C81.4394 81.7911 81.4394 81.7911 81.9688 81.7911C81.8516 81.6409 81.7268 81.5202 81.5803 81.3992C81.5229 81.3439 81.5229 81.3439 81.4886 81.2407H81.4198C81.3088 81.1215 81.2108 80.9908 81.1104 80.8626C81.0843 80.8293 81.0578 80.7956 81.031 80.7612C80.2988 79.8056 79.8485 78.6334 79.8038 77.4268C79.8025 77.3993 79.8011 77.3718 79.7997 77.3436C79.7574 75.7486 80.4013 74.2121 81.4875 73.0468C81.5123 73.0196 81.537 72.9928 81.5628 72.965C82.3913 72.0918 83.5462 71.5418 84.7184 71.3287C84.782 71.317 84.782 71.317 84.847 71.305C86.3664 71.0736 87.9442 71.4741 89.1782 72.3672C89.577 72.6614 89.9723 72.9997 90.2782 73.3916C90.2985 73.4173 90.2985 73.4173 90.3188 73.4435C90.8551 74.1344 91.2297 74.8803 91.4463 75.7294C91.4566 75.7689 91.4666 75.8088 91.4773 75.8497C91.8279 77.3485 91.5529 78.9538 90.7588 80.2497C90.4329 80.7619 90.0232 81.2019 89.5901 81.6247L89.4869 81.7278C89.5045 81.7361 89.5217 81.7443 89.5395 81.7529C90.3405 82.1345 91.0589 82.6123 91.7292 83.1932C91.789 83.2448 91.8499 83.295 91.9121 83.3438C92.1469 83.5356 92.3452 83.7735 92.5446 83.9969C92.5611 84.0151 92.5776 84.033 92.5944 84.0519C93.2407 84.7669 93.7426 85.5919 94.1276 86.4719C94.1544 86.5321 94.1544 86.5321 94.1815 86.5936C94.7659 87.9755 94.8553 89.4364 94.8553 90.9249C94.8553 91.0091 94.8553 91.0936 94.8556 91.1779C94.8556 91.3528 94.856 91.5285 94.8556 91.7038C94.8556 91.9276 94.8563 92.1507 94.857 92.3741C94.8573 92.5474 94.8573 92.7213 94.8573 92.8932C94.8573 92.9757 94.8573 93.0582 94.8577 93.1407C94.858 93.2558 94.858 93.371 94.8577 93.4844C94.858 93.5178 94.858 93.5511 94.8584 93.5858C94.8567 93.9949 94.8023 94.3111 94.517 94.6171C94.2145 94.899 93.8433 94.9048 93.4514 94.9038C93.4143 94.9041 93.3775 94.9041 93.3393 94.9041H92.9647H92.6938C92.4965 94.9045 92.2985 94.9045 92.1025 94.9041C91.8072 94.9041 91.5113 94.9041 91.2157 94.9045C90.7138 94.9045 90.2085 94.9048 89.7066 94.9045C89.1978 94.9045 88.6857 94.9045 88.1769 94.9048H88.0793H87.6874C86.3193 94.9051 84.9512 94.9051 83.5968 94.9055H83.1533H83.0427H80.6123H79.612H79.5007C77.39 94.9058 75.2725 94.9058 73.1757 94.9058H72.9388H71.8697H71.3919H71.153C68.6333 94.9058 66.0999 94.9062 63.5905 94.9065C62.9546 94.9069 62.3221 94.9069 61.6862 94.9069H61.5676C60.3644 94.9072 59.1613 94.9072 57.9582 94.9076H57.8437H55.355H54.4647H54.2433C53.0677 94.9076 51.8886 94.9076 50.7027 94.9079C49.5167 94.9082 48.3308 94.9082 47.162 94.9082C46.9984 94.9079 46.8344 94.9079 46.6705 94.9079H46.5732C46.0644 94.9079 45.5557 94.9079 45.0469 94.9082C44.5451 94.9086 44.0466 94.9086 43.5482 94.9082C43.2546 94.9082 42.9604 94.9082 42.6682 94.9086C42.4733 94.9086 42.2797 94.9086 42.0838 94.9082H41.7524C41.6338 94.9086 41.5149 94.9086 41.3949 94.9082C41.3609 94.9082 41.3269 94.9086 41.2922 94.9086C40.9175 94.9069 40.615 94.8556 40.3297 94.5999C40.0471 94.307 39.9966 93.964 40.0003 93.5721C40.0003 93.5305 40.0003 93.4889 40 93.4459C40 93.3325 40.0003 93.2191 40.001 93.1056C40.0017 92.986 40.0014 92.866 40.0014 92.7481C40.0014 92.5463 40.0021 92.3459 40.0031 92.1431C40.0041 91.9125 40.0045 91.6825 40.0045 91.4522C40.0045 91.204 40.0048 90.9572 40.0055 90.7062C40.0055 90.6361 40.0058 90.5656 40.0058 90.4955C40.0089 87.773 40.9065 85.408 42.8177 83.483C42.9972 83.3056 43.1855 83.1461 43.3849 82.9915C43.4196 82.964 43.4543 82.9361 43.4897 82.9079C44.9094 81.7873 44.9094 81.7873 45.3804 81.7873C45.2511 81.6306 45.1133 81.4851 44.9679 81.3439C43.9435 80.3401 43.2801 78.9136 43.2354 77.4595C43.2343 77.3698 43.234 77.2797 43.234 77.1896C43.2343 77.1659 43.2343 77.1422 43.2343 77.1178C43.2398 75.5366 43.8772 74.1066 44.9668 72.9584C44.9882 72.9351 45.0091 72.9117 45.0311 72.8876C45.8252 72.0386 47.0008 71.5161 48.1283 71.3098C48.1706 71.3019 48.2132 71.294 48.2569 71.2861C49.735 71.0609 51.3437 71.4226 52.5537 72.307C52.7957 72.4892 53.0247 72.6886 53.2481 72.8914C53.2763 72.9165 53.3045 72.9419 53.3337 72.9681C54.3856 73.9615 55.0009 75.4568 55.0456 76.8868C55.0566 77.6018 54.994 78.2927 54.7623 78.9699C54.7517 79.0016 54.7517 79.0016 54.7407 79.0342C54.4224 79.9623 53.8916 80.7323 53.2007 81.4301C53.1828 81.4484 53.1649 81.4662 53.1464 81.4848C53.0182 81.613 53.0182 81.613 52.9408 81.6515L52.9064 81.7546C52.948 81.767 52.948 81.767 52.9907 81.7794C53.1395 81.833 53.2756 81.9018 53.4169 81.976C53.4454 81.9908 53.474 82.0059 53.5035 82.0217C54.3045 82.4514 54.9954 83.0255 55.6588 83.6442C55.6925 83.6759 55.6925 83.6759 55.7269 83.7078C55.9043 83.879 56.0552 84.0722 56.2082 84.2647C56.2305 84.2915 56.2528 84.3183 56.2755 84.3462C56.5722 84.7071 56.8358 85.0956 57.0662 85.5012C57.1614 85.385 57.2246 85.2575 57.2896 85.1231C57.6849 84.3221 58.1455 83.5762 58.7162 82.8887C58.7316 82.8694 58.7474 82.8505 58.7636 82.8306C59.0083 82.5326 59.2723 82.2565 59.5439 81.9815C59.5907 81.9344 59.5907 81.9344 59.6384 81.8863C59.8471 81.6787 60.0647 81.491 60.295 81.3088C60.3211 81.2878 60.3472 81.2669 60.3744 81.2452C61.2132 80.5715 62.1619 79.9665 63.1725 79.5883C63.255 79.5619 63.255 79.5619 63.2839 79.4859C63.2647 79.477 63.2451 79.468 63.2251 79.4591C62.6614 79.159 62.1732 78.5516 61.8054 78.0428C61.7845 78.014 61.7845 78.014 61.7632 77.9847C60.9485 76.8572 60.5153 75.5063 60.4638 74.1347C60.4617 74.0866 60.4617 74.0866 60.4593 74.0378C60.4256 72.5459 60.9337 70.9887 61.8377 69.8097C61.8721 69.7643 61.8721 69.7643 61.9072 69.7179C62.1622 69.3906 62.4503 69.0476 62.7666 68.7795H62.8353V68.7107C62.9034 68.6502 62.9718 68.5942 63.0436 68.5388C63.0653 68.522 63.0869 68.5051 63.1093 68.488C63.3423 68.3096 63.5837 68.1456 63.8312 67.9895C63.8676 67.9661 63.904 67.9428 63.9415 67.9191C66.2927 66.4959 69.6477 66.7022 71.7446 68.5L71.7422 68.5313ZM65.761 69.4319C65.6981 69.4536 65.6981 69.4536 65.6338 69.4756C65.1388 69.6577 64.6782 69.9431 64.2828 70.2902C64.266 70.3047 64.2488 70.3191 64.2316 70.3342C63.2623 71.1661 62.6676 72.3521 62.5644 73.6239C62.5177 74.5417 62.6865 75.4183 63.1144 76.2364C63.1251 76.2571 63.1357 76.2777 63.1471 76.299C63.3004 76.5912 63.4798 76.849 63.6971 77.0965C63.7218 77.1254 63.7466 77.1542 63.772 77.1841C64.0848 77.5416 64.432 77.8373 64.8308 78.0916C64.8634 78.113 64.8964 78.1339 64.9301 78.1559C65.9683 78.7919 67.2608 78.9741 68.4364 78.7094C68.4783 78.7004 68.5202 78.6918 68.5636 78.6826C69.3748 78.4918 70.1379 78.0776 70.7257 77.4863C70.7739 77.4385 70.8234 77.3925 70.8732 77.3464C71.4645 76.7895 71.8735 76.0161 72.0832 75.2358C72.0904 75.209 72.0977 75.1825 72.1049 75.155C72.308 74.3678 72.2857 73.5119 72.0832 72.7281C72.0729 72.6882 72.0729 72.6882 72.0626 72.6477C71.8536 71.8742 71.4267 71.2108 70.8801 70.6299C70.8543 70.602 70.8289 70.5742 70.8024 70.5453C70.1355 69.8441 69.2418 69.4144 68.3033 69.2219C68.2666 69.214 68.2301 69.2064 68.1923 69.1981C67.3776 69.0541 66.5354 69.1507 65.7586 69.4281L65.761 69.4319ZM46.2703 74.6913C45.6516 75.3994 45.2838 76.3585 45.3113 77.3038C45.3965 78.3247 45.7513 79.1463 46.456 79.8956C46.4824 79.9262 46.4824 79.9262 46.5096 79.9572C47.1249 80.6309 48.108 80.9506 48.9915 81.0022C50.0227 81.0256 50.9783 80.6412 51.7312 79.9434C52.4393 79.2559 52.8518 78.3759 52.9171 77.3859C52.9198 77.3454 52.9198 77.3454 52.9226 77.3045C52.9546 76.3763 52.6087 75.4276 51.9876 74.7401C51.9635 74.7112 51.9398 74.6823 51.9151 74.6528C51.3651 74.0065 50.6019 73.649 49.7872 73.4668C49.7608 73.4606 49.7343 73.4545 49.7068 73.4483C48.4315 73.2255 47.1287 73.746 46.2693 74.6892L46.2703 74.6913ZM84.5985 73.5741C84.5641 73.5844 84.5294 73.5947 84.494 73.6054C83.4902 73.9395 82.7512 74.6813 82.2699 75.6026C81.8333 76.5032 81.8024 77.5276 82.1262 78.4694C82.2953 78.9266 82.5387 79.3151 82.8447 79.6932C82.8728 79.7282 82.901 79.7636 82.9299 79.7997C83.0674 79.9579 83.2293 80.0806 83.394 80.2088C83.4345 80.2401 83.4345 80.2401 83.4754 80.2724C84.2626 80.8533 85.2698 81.1043 86.2358 80.9736C87.2017 80.8251 88.1229 80.3136 88.7142 79.5265C89.3501 78.6499 89.6079 77.6427 89.4498 76.5633C89.3347 75.9033 89.0442 75.2915 88.6179 74.7758C88.5956 74.7483 88.5736 74.7208 88.5506 74.6926C88.1415 74.208 87.5915 73.8642 87.0037 73.6408C86.9683 73.6274 86.9329 73.614 86.8961 73.5999C86.5077 73.4617 86.1227 73.4211 85.7102 73.4215C85.6682 73.4215 85.6263 73.4218 85.583 73.4218C85.2392 73.4263 84.9264 73.4716 84.5964 73.572L84.5985 73.5741ZM63.4922 81.8241C63.4699 81.8344 63.4472 81.8447 63.4242 81.8557C62.8329 82.1304 62.276 82.4779 61.7742 82.8904C61.7425 82.9151 61.7112 82.9402 61.6789 82.9657C61.1702 83.3713 60.6992 83.8251 60.2971 84.3338C60.2675 84.3699 60.2379 84.4056 60.208 84.4417C59.944 84.7652 59.7199 85.1086 59.5068 85.4696C59.4917 85.495 59.4765 85.5201 59.4607 85.5462C58.9485 86.409 58.6117 87.344 58.4054 88.3237C58.4002 88.3485 58.3947 88.3736 58.3892 88.3993C58.2483 89.08 58.2229 89.7675 58.2267 90.4618C58.227 90.5309 58.227 90.6 58.227 90.6688C58.2273 90.8475 58.228 91.0263 58.2287 91.205C58.2294 91.3886 58.2297 91.5728 58.2301 91.755C58.2308 92.1125 58.2322 92.47 58.2335 92.8275C58.3373 92.8619 58.4054 92.866 58.5137 92.8657C58.5694 92.866 58.5694 92.866 58.6261 92.866C58.6876 92.8657 58.6876 92.8657 58.7505 92.8653H58.8836C59.0066 92.8653 59.13 92.865 59.2548 92.8646C59.3902 92.8643 59.5253 92.8643 59.6604 92.864C59.9341 92.8636 60.207 92.8629 60.482 92.8626C60.7168 92.8619 60.9529 92.8616 61.1867 92.8612C61.2382 92.8609 61.2383 92.8609 61.2912 92.8609C61.3617 92.8609 61.4325 92.8605 61.5029 92.8605C62.3657 92.8591 63.2286 92.8571 64.0914 92.855C64.5245 92.8543 64.9611 92.8533 65.3942 92.8523C66.1676 92.8506 66.9411 92.8488 67.7179 92.8471C68.4673 92.8454 69.2167 92.8437 69.9695 92.8423C69.9925 92.842 70.0159 92.842 70.04 92.842C70.2741 92.8416 70.5075 92.8409 70.7412 92.8406C72.6903 92.8361 74.6256 92.8316 76.585 92.8275C76.5867 92.4975 76.5877 92.1675 76.5884 91.8375C76.5887 91.6842 76.5894 91.5306 76.5901 91.3769C76.5932 90.7581 76.5922 90.1394 76.5551 89.5206C76.5523 89.476 76.5499 89.4316 76.5472 89.3859C76.4313 87.6671 75.7806 85.9759 74.7287 84.6078C74.6954 84.5645 74.6954 84.5645 74.6617 84.5208C74.5211 84.3414 74.3726 84.1702 74.2182 84.0017C74.1285 83.9034 74.0416 83.8034 73.9546 83.7027C73.88 83.6191 73.88 83.6191 73.7996 83.5415H73.7308V83.4727C73.6847 83.4232 73.6847 83.4232 73.6212 83.3716C73.5957 83.3503 73.5706 83.3287 73.5445 83.3067C73.5153 83.2819 73.4861 83.2575 73.4558 83.2321C73.4238 83.2039 73.3915 83.1757 73.3585 83.1465C72.1554 82.0946 70.6567 81.3934 69.096 81.1012C69.0586 81.094 69.0211 81.0867 68.9823 81.0795C67.1329 80.7396 65.201 81.0142 63.4823 81.822L63.4922 81.8241ZM44.3797 84.9694C44.3254 85.0251 44.268 85.0739 44.2078 85.1234C44.0721 85.2379 43.961 85.3681 43.8469 85.505C43.818 85.5376 43.7895 85.5703 43.7596 85.6036C43.5214 85.8755 43.3162 86.1605 43.1237 86.4664C43.0886 86.5218 43.0886 86.5218 43.0532 86.5781C42.4207 87.63 42.1388 88.8056 42.1079 90.0156C42.1072 90.0438 42.1065 90.0724 42.1055 90.1016C42.0879 90.8028 42.0903 91.5041 42.1103 92.2088C42.112 92.2679 42.1134 92.3274 42.1151 92.3868C42.1192 92.5305 42.123 92.6742 42.1271 92.8165C43.9043 92.8217 45.6677 92.8265 47.4552 92.8313C47.6649 92.832 47.8746 92.8323 48.0843 92.833C48.1259 92.833 48.1675 92.8334 48.2108 92.8334C48.888 92.8351 49.5652 92.8371 50.2389 92.8392C50.9333 92.8413 51.6277 92.843 52.3186 92.8447C52.7483 92.8461 53.1746 92.8471 53.6042 92.8485C53.8975 92.8495 54.1921 92.8502 54.4842 92.8509C54.6537 92.8512 54.8232 92.8516 54.993 92.8523C55.1477 92.853 55.3027 92.8533 55.4571 92.8533C55.5134 92.8536 55.5695 92.8536 55.6258 92.854C55.7018 92.8543 55.7778 92.8543 55.8541 92.8547C55.9177 92.8547 55.9177 92.8547 55.9823 92.855C56.0731 92.8616 56.0731 92.8616 56.1105 92.8165C56.1143 92.7155 56.116 92.6151 56.116 92.5144C56.1164 92.4824 56.1164 92.4508 56.1167 92.4181C56.1171 92.3122 56.1174 92.2064 56.1174 92.1005C56.1178 92.0266 56.1177 91.9527 56.1181 91.8788C56.1184 91.7234 56.1188 91.5677 56.1188 91.4113C56.1191 91.214 56.1198 91.016 56.1208 90.82C56.1215 90.6671 56.1215 90.5141 56.1215 90.3594C56.1219 90.2869 56.1219 90.214 56.1226 90.1415C56.1291 89.014 55.8995 87.8933 55.356 86.8999C55.3196 86.8329 55.2842 86.7658 55.2491 86.6985C54.9954 86.2206 54.675 85.8047 54.3038 85.4128C54.2309 85.3351 54.1611 85.2561 54.0924 85.175C53.9734 85.0385 53.8432 84.9223 53.7039 84.8071C53.6857 84.792 53.6678 84.7769 53.6489 84.7614C53.3667 84.5266 53.0783 84.3111 52.7655 84.1221C52.7098 84.0884 52.6545 84.0536 52.5995 84.0189C51.6438 83.4414 50.4888 83.1217 49.3717 83.0908C49.3301 83.0894 49.2885 83.0881 49.2458 83.0867C47.5168 83.0571 45.5677 83.6814 44.3646 84.9636L44.3797 84.9694ZM81.9172 84.2303C81.8784 84.2568 81.8399 84.2829 81.801 84.3094C81.5333 84.494 81.2957 84.6944 81.0585 84.9178C81.0107 84.9594 80.9626 85.001 80.9145 85.0423C80.3129 85.5682 79.842 86.2385 79.4776 86.9466C79.467 86.9673 79.456 86.9882 79.445 87.0096C79.0772 87.7349 78.84 88.5427 78.7575 89.3539C78.7547 89.3794 78.7516 89.4048 78.7489 89.4309C78.7145 89.7781 78.7186 90.1253 78.7197 90.4759C78.7197 90.544 78.72 90.6121 78.72 90.6798C78.72 90.8575 78.7203 91.0338 78.7207 91.2126C78.721 91.4264 78.7214 91.6388 78.7214 91.8554C78.7217 92.1792 78.7224 92.5016 78.7231 92.8282C80.2081 92.8629 81.6897 92.8677 83.1575 92.8671H83.845H83.9453H84.1471C84.7728 92.8674 85.3949 92.8671 86.0171 92.8671C86.5534 92.8667 87.0862 92.8667 87.6224 92.8671C88.2481 92.8671 88.8737 92.8674 89.4959 92.8671H89.6952H89.7943H90.4852C90.7643 92.8674 91.0421 92.8674 91.3205 92.8671H91.7467H92.1352C92.2046 92.8667 92.2744 92.8671 92.3438 92.8671C92.405 92.8671 92.405 92.8671 92.4676 92.8667H92.5752C92.6591 92.8681 92.6591 92.8681 92.7275 92.8282C92.7292 92.426 92.7302 92.0273 92.7309 91.6251C92.7313 91.4388 92.7319 91.2538 92.7326 91.0648C92.7333 90.8843 92.7337 90.7038 92.734 90.5251C92.734 90.457 92.7343 90.3886 92.7347 90.3202C92.7378 89.7736 92.7196 89.2236 92.5986 88.6874C92.5896 88.6479 92.5896 88.6479 92.5807 88.6073C92.284 87.3045 91.6594 86.1529 90.7141 85.2111C90.6646 85.1616 90.6158 85.1114 90.568 85.0601C89.8668 84.3176 88.8562 83.7333 87.8833 83.4445C87.8545 83.4356 87.8252 83.427 87.7953 83.4181C85.8566 82.8406 83.6016 83.0468 81.9172 84.2362V84.2303Z" fill="#145333"/>
<path d="M72.2924 47.0469C72.5035 47.2122 72.6671 47.4113 72.7359 47.6725C72.7699 47.9705 72.752 48.2363 72.5984 48.4975C72.4127 48.7244 72.203 48.9306 71.9968 49.1369C71.9689 49.1647 71.9414 49.1926 71.9126 49.2214C71.8208 49.3136 71.7287 49.4057 71.6365 49.4982C71.5702 49.5645 71.5039 49.6312 71.4375 49.6975C71.2581 49.8777 71.08 50.0585 70.8978 50.2372C70.7858 50.3496 70.6734 50.462 70.5609 50.5744C70.2499 50.8862 69.9388 51.1966 69.6259 51.5094L69.5053 51.6301C69.4651 51.6703 69.4249 51.7109 69.3843 51.7511C69.3544 51.7814 69.3544 51.7814 69.3238 51.8119C68.9989 52.1368 68.6741 52.4616 68.351 52.7882C68.0172 53.1227 67.6841 53.4585 67.3507 53.7919C67.1633 53.9793 66.976 54.1666 66.7869 54.3557C66.6278 54.5152 66.4686 54.6747 66.3091 54.8335C66.2276 54.9146 66.1465 54.9958 66.0654 55.0772C65.9774 55.1659 65.8894 55.2539 65.801 55.3419C65.7629 55.3804 65.7629 55.3804 65.7237 55.4196C65.4679 55.6733 65.2081 55.8321 64.8403 55.8355C64.3212 55.8307 64.0462 55.5134 63.6956 55.1687C63.6609 55.1346 63.6261 55.1006 63.5914 55.0669C63.4965 54.9738 63.402 54.8803 63.3078 54.7868C63.2697 54.7493 63.2315 54.7115 63.1937 54.674C63.1397 54.6207 63.0861 54.5674 63.0328 54.5138C62.9857 54.4671 62.9857 54.4671 62.9379 54.4196C62.8706 54.3437 62.8706 54.3437 62.8706 54.2749C62.8362 54.2636 62.8022 54.2522 62.7674 54.2405V54.1718C62.7485 54.1639 62.7296 54.1563 62.71 54.1484C62.5433 54.0542 62.4151 53.9009 62.2804 53.7669C62.225 53.7115 62.169 53.6565 62.1129 53.6019C61.8022 53.2945 61.5079 52.9694 61.4839 52.5156C61.4921 52.2145 61.6238 51.9106 61.8414 51.6975C62.1604 51.4696 62.4533 51.4146 62.8383 51.4569C63.2439 51.5682 63.5567 51.9656 63.8454 52.2544L63.9321 52.341C64.0218 52.4307 64.1112 52.5208 64.2009 52.6108C64.2621 52.6724 64.3236 52.7339 64.3851 52.7954C64.5343 52.9453 64.6835 53.0948 64.832 53.2457C65.0046 53.101 65.1665 52.9501 65.3236 52.7885L65.3971 52.715C65.4779 52.6339 65.5587 52.5527 65.6395 52.4716C65.6976 52.4132 65.7557 52.3547 65.8138 52.2966C65.9385 52.1712 66.0637 52.0457 66.1884 51.9185C66.3858 51.7202 66.5838 51.5232 66.7797 51.3238C66.8474 51.2561 66.9151 51.188 66.9829 51.12L67.0341 51.0688C67.2266 50.8756 67.4191 50.6838 67.6116 50.4913C67.6291 50.4737 67.6466 50.4559 67.6649 50.4376C67.9498 50.152 68.2355 49.867 68.5174 49.5817C68.8099 49.2874 69.1017 48.9939 69.3974 48.7017C69.5617 48.537 69.726 48.3724 69.8889 48.2067C70.0429 48.0517 70.1976 47.8966 70.353 47.7426C70.4097 47.6859 70.4661 47.6292 70.5224 47.5721C70.5998 47.4941 70.6771 47.4168 70.7548 47.3394C70.7882 47.3057 70.7882 47.3057 70.8219 47.2714C71.2447 46.8554 71.7672 46.7557 72.2931 47.0514L72.2924 47.0469Z" fill="#76AA84"/>
<path fill-rule="evenodd" clip-rule="evenodd" d="M67.3037 62.7734C73.5924 62.7734 78.6904 57.6754 78.6904 51.3867C78.6904 45.098 73.5924 40 67.3037 40C61.015 40 55.917 45.098 55.917 51.3867C55.917 57.6754 61.015 62.7734 67.3037 62.7734ZM67.3037 60.5176C72.3465 60.5176 76.4346 56.4296 76.4346 51.3867C76.4346 46.3439 72.3465 42.2559 67.3037 42.2559C62.2609 42.2559 58.1729 46.3439 58.1729 51.3867C58.1729 56.4296 62.2609 60.5176 67.3037 60.5176Z" fill="#76AA84"/>
</svg>
