<svg width="172" height="58" viewBox="0 0 172 58" fill="none" xmlns="http://www.w3.org/2000/svg">
<path fill-rule="evenodd" clip-rule="evenodd" d="M171.803 19.8596C171.797 19.7614 171.766 19.6663 171.714 19.5831C171.661 19.4999 171.588 19.4314 171.502 19.3837C171.114 19.1882 170.547 19.055 169.394 19.055C166.792 19.055 164.49 20.347 163.485 22.5088V19.8681C163.486 19.8137 163.475 19.7597 163.454 19.7094C163.434 19.659 163.403 19.6134 163.365 19.5748C163.326 19.5363 163.281 19.5056 163.23 19.4847C163.18 19.4638 163.126 19.4531 163.072 19.4531H159.174C159.12 19.4531 159.066 19.4638 159.016 19.4847C158.966 19.5056 158.92 19.5363 158.881 19.5748C158.843 19.6134 158.813 19.659 158.792 19.7094C158.771 19.7597 158.761 19.8137 158.761 19.8681V37.67C158.761 37.8981 158.945 38.0836 159.174 38.0836H163.257C163.312 38.0836 163.365 38.073 163.416 38.0522C163.466 38.0314 163.511 38.0008 163.55 37.9624C163.588 37.924 163.619 37.8784 163.64 37.8282C163.66 37.778 163.671 37.7243 163.671 37.67V29.663C163.671 26.0859 166.159 24.308 169.394 24.308C170.149 24.308 170.903 24.4752 171.281 24.5999C171.541 24.6849 171.803 24.4723 171.803 24.1989V19.8596ZM145.715 33.7147C142.924 33.7147 140.766 31.7413 140.766 28.7607C140.766 25.78 142.925 23.8051 145.715 23.8051C148.504 23.8051 150.662 25.78 150.662 28.7607C150.662 31.7413 148.504 33.7147 145.715 33.7147ZM145.715 18.9969C139.986 18.9969 135.709 22.9481 135.709 28.7607C135.709 34.5732 139.987 38.5229 145.715 38.5229C151.441 38.5229 155.719 34.5732 155.719 28.762C155.719 22.948 151.441 18.9969 145.715 18.9969ZM123 33.7161C120.209 33.7161 118.051 31.7413 118.051 28.7607C118.051 25.78 120.209 23.8051 123 23.8051C125.789 23.8051 127.945 25.78 127.945 28.7607C127.945 31.7413 125.789 33.7161 123 33.7161ZM123 18.9969C117.271 18.9969 112.993 22.9481 112.993 28.7607C112.993 34.5732 117.271 38.5229 123 38.5229C128.726 38.5229 133.004 34.5732 133.004 28.7607C133.004 22.9481 128.726 18.9969 123 18.9969ZM100.316 33.7614C97.5268 33.7614 95.4429 31.7866 95.4429 28.7691C95.4429 25.7502 97.5268 23.7753 100.316 23.7753C103.07 23.7753 105.19 25.6766 105.19 28.7691C105.19 31.8235 103.07 33.7614 100.316 33.7614ZM109.537 12.0014H105.455C105.345 12.0014 105.24 12.045 105.162 12.1226C105.084 12.2002 105.041 12.3053 105.041 12.415V22.1363C103.776 20.347 101.693 18.9671 98.7933 18.9671C94.2543 18.9671 90.3854 22.4721 90.3854 28.7691C90.3854 35.0662 94.2529 38.5682 98.8656 38.5682C101.581 38.5682 103.702 37.3754 105.042 35.4756V37.67C105.042 37.8981 105.226 38.0836 105.453 38.0836H109.537C109.764 38.0836 109.95 37.8995 109.95 37.67V12.415C109.95 12.3056 109.906 12.2007 109.829 12.1231C109.752 12.0456 109.647 12.0018 109.537 12.0014ZM87.681 32.444C87.681 36.694 84.5941 38.5186 79.6485 38.5186C76.2301 38.5186 73.2905 37.5978 71.6089 35.6909C71.5454 35.6162 71.5097 35.5217 71.5079 35.4236C71.5061 35.3255 71.5382 35.2297 71.599 35.1526L73.9592 32.0841C73.9956 32.0377 74.0416 31.9999 74.0941 31.9731C74.1466 31.9463 74.2042 31.9313 74.2631 31.929C74.322 31.9267 74.3807 31.9371 74.4351 31.9597C74.4895 31.9824 74.5383 32.0167 74.5782 32.06C75.8249 33.3393 77.7431 34.1212 80.1316 34.1212C81.5058 34.1212 82.6221 33.75 82.6221 32.706C82.6221 31.7001 81.6191 31.4764 78.4939 30.8049C75.7413 30.2467 72.3187 28.9802 72.3187 24.9186C72.3187 21.1545 75.2965 18.9941 80.167 18.9941C83.3729 18.9941 85.6778 19.9631 87.3013 21.4874C87.4572 21.6334 87.4714 21.8799 87.3396 22.0484L85.0998 24.9612C85.067 25.0059 85.0253 25.0432 84.9773 25.071C84.9293 25.0987 84.876 25.1162 84.8209 25.1223C84.7657 25.1284 84.7099 25.1231 84.657 25.1066C84.6041 25.09 84.5551 25.0626 84.5133 25.0262C83.4154 24.0444 81.5894 23.4283 79.7959 23.4283C78.2715 23.4283 77.4159 23.9128 77.4159 24.7317C77.4159 25.6638 78.4216 25.8876 81.731 26.5959C84.9652 27.3042 87.681 28.5311 87.681 32.444ZM68.8025 32.4552C68.8025 36.7038 65.7141 38.53 60.7686 38.53C57.3516 38.53 54.412 37.6091 52.7304 35.7008C52.667 35.6263 52.6313 35.5321 52.6292 35.4343C52.6271 35.3365 52.6588 35.241 52.719 35.1638L55.0792 32.0939C55.1159 32.0479 55.162 32.0103 55.2146 31.9838C55.2671 31.9573 55.3248 31.9425 55.3836 31.9404C55.4424 31.9382 55.501 31.9487 55.5553 31.9713C55.6096 31.9939 55.6584 32.028 55.6983 32.0713C56.9464 33.3491 58.8646 34.1326 61.2516 34.1326C62.6272 34.1326 63.7436 33.7615 63.7436 32.716C63.7436 31.7101 62.7392 31.4876 59.6154 30.8161C56.8614 30.2566 53.4387 28.99 53.4387 24.9298C53.4387 21.1658 56.4166 19.0053 61.2885 19.0053C64.493 19.0053 66.7965 19.9729 68.4214 21.4987C68.5773 21.6446 68.5914 21.8897 68.4611 22.0597L66.2199 24.9724C66.0783 25.1566 65.8091 25.1934 65.6348 25.0376C64.5355 24.0558 62.7109 23.4381 60.9174 23.4381C59.3916 23.4381 58.5359 23.9241 58.5359 24.7429C58.5359 25.6751 59.5418 25.899 62.8511 26.6073C66.0868 27.3142 68.8025 28.5438 68.8025 32.4552ZM44.3324 30.5569C44.3324 32.6054 42.6608 34.3946 40.0555 34.3946C38.3442 34.3946 37.4148 33.6112 37.4148 32.4184C37.4148 31.3757 38.1968 30.5923 39.7211 30.3684L44.3324 29.8104V30.5569ZM41.0981 19.0422C37.2023 19.0422 34.2684 20.3483 32.9566 22.9309C32.9133 23.0205 32.903 23.1226 32.9276 23.219C32.9523 23.3154 33.0102 23.4001 33.0912 23.458L36.0676 25.5887C36.2546 25.7219 36.5181 25.6779 36.63 25.4753C37.4573 23.9849 39.3075 23.4763 41.0981 23.4763C43.2925 23.4763 44.3324 24.2584 44.3324 25.3394V25.6368C44.3324 26.0845 44.0731 26.3083 43.3662 26.3834L38.2705 26.8297C34.8492 27.164 32.3205 29.2891 32.3205 32.6791C32.3205 36.1075 34.9229 38.4916 38.6049 38.4916C41.5062 38.4916 43.3662 37.0765 44.3324 35.5862V37.7054C44.3324 37.9349 44.5166 38.1205 44.7461 38.1205H48.8289C48.9386 38.1205 49.0439 38.0768 49.1214 37.9993C49.199 37.9217 49.2426 37.8165 49.2426 37.7068V26.6059C49.2426 21.4266 46.5282 19.0422 41.0981 19.0422ZM28.9517 12.4137V37.6686C28.9517 37.8967 28.7675 38.0823 28.538 38.0823H24.4183C24.3086 38.0823 24.2034 38.0386 24.1258 37.961C24.0482 37.8835 24.0047 37.7783 24.0047 37.6686V12.4066C24.0047 12.1813 24.186 12 24.4098 12H28.538C28.7661 12 28.9517 12.1842 28.9517 12.4137ZM10.3168 33.7416C7.526 33.7416 5.4435 31.7667 5.4435 28.7492C5.4435 25.7317 7.52742 23.7555 10.3168 23.7555C13.1077 23.7555 15.1519 25.6567 15.1519 28.7492C15.1519 31.8036 13.1063 33.7416 10.3168 33.7416ZM19.5365 19.4332H15.4593C15.3481 19.4332 15.2415 19.4775 15.1628 19.5561C15.0842 19.6348 15.04 19.7413 15.04 19.8525V22.0427C13.9987 20.3654 11.8412 18.9856 8.97807 18.9856C4.36541 18.9856 0.385986 22.4522 0.385986 28.6756C0.385986 34.8593 4.1798 38.2495 9.1268 38.2495C11.8043 38.2495 13.8868 37.1317 15.115 35.3807V36.5734C15.115 39.2552 13.8117 41.3803 9.64672 41.3803C7.55289 41.3803 5.87131 40.6818 4.39656 39.3742C4.35253 39.3336 4.30001 39.3033 4.24282 39.2854C4.18564 39.2675 4.12526 39.2624 4.06591 39.2707C4.00656 39.2789 3.94975 39.3002 3.89964 39.3331C3.84952 39.3659 3.80733 39.4096 3.77608 39.4607L1.92734 42.5661C1.68792 42.967 1.72045 43.1937 1.87062 43.3254C3.77178 44.9787 6.2425 46 9.83375 46C17.6438 46 19.9502 41.6424 19.9502 36.8342V19.8484C19.9503 19.794 19.9398 19.74 19.9191 19.6896C19.8984 19.6393 19.868 19.5935 19.8295 19.5549C19.7911 19.5164 19.7454 19.4857 19.6952 19.4648C19.6449 19.4439 19.5909 19.4332 19.5365 19.4332Z" fill="#1D2019"/>
</svg>
