<svg width="121" height="58" viewBox="0 0 121 58" fill="none" xmlns="http://www.w3.org/2000/svg">
<path d="M55.2787 12.5649H56.1602C58.2953 12.6629 60.3717 13.564 61.8801 15.0527C61.2924 15.6208 60.7243 16.2084 60.1367 16.7765C59.1572 15.8558 57.9036 15.229 56.5715 15.0723C55.0436 14.8764 53.457 15.2094 52.1641 16.0321C50.9888 16.7765 50.0877 17.9322 49.598 19.2251C48.9712 20.9293 49.0691 22.9077 49.9114 24.5336C50.5774 25.846 51.7136 26.9234 53.0652 27.5111C54.4168 28.0987 55.9447 28.1967 57.3747 27.8637C58.5696 27.5894 59.647 26.9234 60.4501 26.0223C61.1357 25.2192 61.4491 24.181 61.5862 23.1624C59.6078 23.1624 57.6489 23.1624 55.6705 23.1624C55.6705 22.3397 55.6705 21.517 55.6705 20.7138C58.4521 20.7138 61.2141 20.7138 63.9956 20.7138C64.2699 22.4572 64.0936 24.3181 63.3688 25.944C62.7616 27.3348 61.6646 28.4513 60.3913 29.2545C58.8047 30.2535 56.885 30.5865 55.024 30.469C52.7714 30.3318 50.597 29.2936 49.0299 27.6874C47.5216 26.1595 46.6009 24.0831 46.4834 21.9479V21.086C46.6009 19.0488 47.4237 17.0703 48.8144 15.562C50.4795 13.799 52.8301 12.6825 55.2787 12.5649Z" fill="#1D2019"/>
<path d="M94.0838 19.2839C95.2395 18.6179 96.6695 18.3633 97.982 18.7158C98.7459 18.9117 99.3923 19.3427 99.9408 19.8912C99.9604 19.5386 99.9408 19.2056 99.9408 18.853C100.764 18.853 101.586 18.853 102.409 18.853C102.409 22.3397 102.409 25.8069 102.409 29.2937C102.409 30.7629 102.056 32.3104 101.077 33.4661C100.176 34.5239 98.7851 35.0919 97.4139 35.1899C96.1014 35.3074 94.7302 35.0332 93.6529 34.2888C92.7322 33.6816 92.0074 32.8001 91.5765 31.8206C92.3208 31.5072 93.0848 31.2134 93.8292 30.9C94.1818 31.6639 94.7694 32.3495 95.553 32.6825C96.3169 33.0351 97.218 33.0155 98.0015 32.7609C98.7459 32.5258 99.3532 31.9578 99.647 31.2722C99.9996 30.469 99.98 29.568 99.9604 28.7256C99.4511 29.2154 98.883 29.6463 98.1778 29.8618C96.9438 30.2536 95.553 30.0968 94.3972 29.5092C93.2219 28.9215 92.2817 27.9029 91.7528 26.7276C91.1063 25.278 91.0672 23.5738 91.6744 22.0851C92.125 20.9294 92.9869 19.9108 94.0838 19.2839ZM96.2777 20.9098C95.6313 21.0469 95.0437 21.4191 94.6323 21.9284C93.7116 23.0449 93.5941 24.6708 94.1622 25.9636C94.456 26.6297 94.9653 27.1977 95.6313 27.5111C96.5324 27.9617 97.649 27.9029 98.5109 27.3936C99.2552 26.9431 99.7841 26.1791 99.98 25.3564C100.313 24.0048 99.9604 22.3985 98.8243 21.4974C98.1387 20.9098 97.1592 20.6943 96.2777 20.9098Z" fill="#1D2019"/>
<path d="M104.133 12.9961C104.995 12.9961 105.857 12.9961 106.719 12.9961C106.719 18.8335 106.719 24.6709 106.719 30.5083C105.857 30.5083 104.995 30.5083 104.133 30.5083C104.133 24.6709 104.133 18.8335 104.133 12.9961Z" fill="#1D2019"/>
<path d="M70.2444 18.6376C71.5764 18.4222 72.9672 18.6376 74.1425 19.3036C75.122 19.8521 75.9251 20.6944 76.4344 21.6935C77.0808 22.9863 77.218 24.5142 76.8458 25.905C76.5128 27.1783 75.7096 28.3144 74.6322 29.0588C73.4569 29.8815 71.9682 30.2341 70.5578 30.0578C69.0299 29.9011 67.5608 29.098 66.6205 27.8639C65.1318 25.9442 65.0534 23.1038 66.3854 21.1058C67.2473 19.7738 68.6773 18.8727 70.2444 18.6376ZM70.4991 20.9099C69.8134 21.0666 69.167 21.478 68.7361 22.0265C67.9134 23.0647 67.7566 24.5534 68.2464 25.7679C68.599 26.6298 69.3041 27.335 70.1856 27.6288C71.0671 27.9422 72.1053 27.8247 72.8889 27.335C73.692 26.8453 74.2405 26.003 74.4168 25.0823C74.691 23.7894 74.2601 22.3007 73.1631 21.4976C72.4383 20.9099 71.4197 20.6944 70.4991 20.9099Z" fill="#1D2019"/>
<path d="M111.243 19.5189C112.478 18.6766 114.064 18.3632 115.514 18.6962C116.767 18.9704 117.864 19.7931 118.589 20.8313C119.04 21.4582 119.314 22.183 119.608 22.8881C117.003 23.9459 114.417 25.0037 111.812 26.0811C112.164 26.7471 112.713 27.3544 113.437 27.6286C114.436 27.9812 115.631 27.8832 116.493 27.276C116.905 27.0018 117.218 26.6296 117.492 26.2378C118.158 26.6687 118.824 27.1193 119.49 27.5502C118.726 28.6472 117.61 29.5091 116.297 29.8617C114.809 30.2926 113.144 30.1359 111.792 29.3916C110.754 28.8431 109.911 27.942 109.422 26.9038C108.775 25.5914 108.697 24.0439 109.069 22.6335C109.422 21.3798 110.186 20.2437 111.243 19.5189ZM112.282 21.6736C111.655 22.3397 111.4 23.2603 111.4 24.1418C113.163 23.4366 114.907 22.7118 116.67 21.9871C116.474 21.5169 116.082 21.1643 115.612 20.9489C114.515 20.4592 113.104 20.7922 112.282 21.6736Z" fill="#1D2019"/>
<path d="M83.1729 18.6376C84.4853 18.4221 85.8957 18.6572 87.0515 19.3232C88.0113 19.8521 88.8144 20.6748 89.3041 21.6543C90.0289 23.0647 90.1269 24.7885 89.6176 26.2772C89.1866 27.5505 88.2659 28.667 87.0906 29.333C84.8771 30.6259 81.8213 30.2929 79.9995 28.4711C78.1582 26.7081 77.786 23.6915 79.0397 21.4976C79.882 19.9501 81.4687 18.8923 83.1729 18.6376ZM83.5843 20.8707C82.9182 20.9883 82.2914 21.3213 81.8213 21.8306C80.881 22.81 80.646 24.3379 81.0965 25.5916C81.3903 26.4535 82.0368 27.1783 82.8791 27.5505C83.741 27.9226 84.7792 27.903 85.6019 27.4525C86.4246 27.0216 87.0319 26.238 87.2669 25.3369C87.6195 24.0637 87.2865 22.5553 86.2875 21.6543C85.5627 21.0078 84.5441 20.6944 83.5843 20.8707Z" fill="#1D2019"/>
<path d="M40.8419 29C40.8419 40.048 31.8703 49 20.8223 49V44.142C20.8614 44.142 20.9202 44.142 20.9594 44.142C29.3433 44.142 36.121 37.3643 36.121 29H40.8419Z" fill="#1D2019"/>
<path d="M0.802734 29H5.81743C5.81743 37.3448 12.5755 44.1224 20.9399 44.142V49C20.9007 49 20.8811 49 20.8419 49C9.75474 49 0.802734 40.048 0.802734 29Z" fill="#1D2019"/>
<path d="M20.8223 9C31.8898 9 40.8419 17.952 40.8419 29C40.8419 29.0392 40.8419 29.0588 40.8419 29.0979H36.121C36.121 29.0588 36.121 29.0392 36.121 29C36.121 20.6357 29.3237 13.858 20.9594 13.858C20.9202 13.858 20.8614 13.858 20.8223 13.858V9Z" fill="#1D2019"/>
<path d="M0.802734 29.0979C0.802734 29.0588 0.802734 29.0392 0.802734 29C0.802734 17.952 9.77433 9 20.8223 9C20.8615 9 20.8811 9 20.9203 9V13.858C12.5755 13.8776 5.79784 20.6552 5.79784 29C5.79784 29.0392 5.79784 29.0588 5.79784 29.0979H0.802734Z" fill="#1D2019"/>
<path d="M11.0083 25.8266L13.7311 22.7708L20.6655 26.9236L39.1964 9L41.645 11.2331L21.1161 35.9148L11.0083 25.8266Z" fill="#1D2019"/>
<path d="M103.624 37.423C104.035 37.2076 104.564 37.5797 104.525 38.0499C104.505 38.52 103.917 38.8138 103.526 38.5396C103.134 38.2849 103.193 37.5993 103.624 37.423ZM47.5805 38.2262C48.8342 37.1292 50.891 37.1488 52.1055 38.3045C51.9684 38.5004 51.8508 38.7159 51.655 38.8726C51.4983 38.9118 51.3807 38.7942 51.2436 38.7355C50.4992 38.2066 49.4414 38.1478 48.6383 38.5788C48.0115 38.9118 47.6197 39.5974 47.5022 40.283C47.365 41.0861 47.4434 41.9676 47.9135 42.6728C48.2661 43.2213 48.893 43.5935 49.5394 43.6326C50.1662 43.6718 50.8322 43.5935 51.322 43.1625C51.4395 43.0841 51.557 42.9274 51.7137 42.947C51.9096 43.0841 52.0467 43.28 52.2034 43.4367C51.655 44.0636 50.8518 44.4358 50.0291 44.4749C49.1672 44.5533 48.2465 44.3182 47.5805 43.7306C46.9733 43.2213 46.6403 42.4573 46.5032 41.6934V40.2438C46.6403 39.4798 46.9929 38.7355 47.5805 38.2262ZM88.5208 37.5014C89.2847 37.5014 90.0683 37.4818 90.8322 37.5014C91.5178 37.5406 92.2818 37.7365 92.7127 38.3241C93.222 39.0881 93.1045 40.2242 92.4385 40.851C92.1447 41.1253 91.7725 41.3016 91.3807 41.3995C91.6354 41.5954 91.7921 41.8501 91.9684 42.1047C92.5364 42.8883 93.0849 43.6522 93.653 44.4358C93.32 44.4358 93.0066 44.4554 92.6736 44.4162C92.5169 44.4162 92.4189 44.2986 92.3406 44.1811C91.7921 43.3976 91.224 42.614 90.6755 41.8305C90.4209 41.4387 89.892 41.6346 89.5198 41.5954C89.5198 42.5553 89.5198 43.4955 89.5198 44.4554C89.1868 44.4554 88.8538 44.4554 88.5404 44.4554C88.5208 42.1243 88.5208 39.8128 88.5208 37.5014ZM89.5002 38.2849C89.5002 39.1272 89.5002 39.9891 89.5002 40.8315C90.1662 40.8119 90.891 40.9294 91.4787 40.5768C92.1839 40.1654 92.2818 38.9509 91.557 38.5004C90.9302 38.1674 90.1858 38.3241 89.5002 38.2849ZM62.5267 37.9911C62.7225 37.9323 62.9184 37.9715 63.1143 37.9519C63.1143 38.5004 63.1143 39.0489 63.1143 39.5974C63.5649 39.5974 64.035 39.5974 64.4855 39.5974C64.4855 39.8129 64.4855 40.0479 64.4855 40.2634C64.035 40.2634 63.5649 40.2634 63.1143 40.2634C63.1143 41.2624 63.1143 42.2418 63.1143 43.2409C63.1143 43.4955 63.3102 43.7306 63.5844 43.7306C63.8391 43.7698 64.0154 43.5935 64.2309 43.5151C64.4268 43.6326 64.4855 43.8873 64.6226 44.0636C64.1329 44.4749 63.4081 44.6317 62.8205 44.377C62.3895 44.2007 62.1936 43.6914 62.2132 43.2604C62.2132 42.2614 62.2132 41.2624 62.2132 40.2634C61.9978 40.2634 61.7627 40.283 61.5472 40.2438C61.3905 40.1067 61.4885 39.8716 61.4493 39.6953C61.7039 39.6561 61.9782 39.617 62.2328 39.5974C62.2916 39.1468 62.3504 38.6963 62.4091 38.2653C62.4483 38.1674 62.4483 38.0499 62.5267 37.9911ZM58.3151 39.7737C59.1378 39.2448 60.3131 39.3427 61.0183 40.0087C60.94 40.1459 60.8616 40.283 60.7637 40.4201C60.6266 40.5572 60.4503 40.4005 60.3327 40.3417C59.941 40.1263 59.4512 40.0479 59.0399 40.2046C58.7852 40.3026 58.5697 40.5572 58.6089 40.851C58.6285 41.0861 58.8244 41.2232 59.0007 41.3212C59.5884 41.5954 60.2936 41.6542 60.7833 42.1047C61.1555 42.4573 61.175 43.0254 60.9987 43.4759C60.842 43.9069 60.4894 44.2203 60.0585 44.3574C59.2358 44.6512 58.2563 44.4749 57.5903 43.9069C57.7274 43.7306 57.7862 43.3976 58.08 43.4172C58.3347 43.5151 58.5306 43.711 58.8048 43.7698C59.1966 43.8873 59.6667 43.8873 59.9997 43.613C60.2936 43.378 60.3523 42.8491 60.0193 42.6336C59.4121 42.2223 58.5893 42.2614 58.0604 41.7129C57.5316 41.1645 57.7079 40.185 58.3151 39.7737ZM66.6011 39.519C67.3259 39.3623 68.129 39.4603 68.7167 39.9304C69.2651 40.3613 69.5198 41.0861 69.559 41.7717C69.5982 42.5161 69.4219 43.3192 68.893 43.8677C67.9135 44.8275 66.0134 44.6904 65.2887 43.4759C64.8577 42.7316 64.8185 41.7913 65.0536 40.9882C65.2299 40.2438 65.8567 39.6561 66.6011 39.519ZM66.8166 40.2046C66.2681 40.3222 65.9351 40.8706 65.8763 41.3995C65.798 42.0264 65.798 42.712 66.1506 43.2604C66.5031 43.7893 67.2475 43.8677 67.796 43.6718C68.3249 43.4563 68.5404 42.8687 68.5991 42.3398C68.6383 41.7521 68.6187 41.0861 68.2269 40.5964C67.8939 40.1654 67.3063 40.1067 66.8166 40.2046ZM71.3024 40.185C71.6745 39.7541 72.2034 39.3819 72.7911 39.4603C73.3396 39.4603 73.7509 39.9304 73.8881 40.4397C74.2602 39.4407 75.651 39.1664 76.4738 39.7737C76.9243 40.1263 77.081 40.7335 77.0614 41.282C77.0614 42.3398 77.0614 43.378 77.0614 44.4358C76.748 44.4358 76.4542 44.4358 76.1408 44.4358C76.1408 43.378 76.1408 42.3398 76.1408 41.282C76.1408 40.949 76.0624 40.5572 75.7686 40.3417C75.3376 40.0675 74.6912 40.1654 74.3974 40.5964C74.2407 40.8119 74.2015 41.1057 74.2015 41.3604C74.2015 42.379 74.2015 43.3976 74.2015 44.4358C73.8881 44.4358 73.5942 44.4358 73.2808 44.4358C73.2808 43.3584 73.2808 42.281 73.2808 41.2036C73.2808 40.8119 73.1241 40.3222 72.6932 40.2242C72.1643 40.0675 71.655 40.3809 71.3415 40.7923C71.3415 42.0068 71.3415 43.2213 71.3415 44.4358C71.0281 44.4358 70.7343 44.4358 70.4209 44.4358C70.4209 42.8099 70.4209 41.1645 70.4209 39.5386C70.6559 39.5386 70.8714 39.4994 71.1065 39.5582C71.3024 39.6953 71.2436 39.9696 71.3024 40.185ZM78.5502 40.0479C79.1966 39.4211 80.2348 39.2644 81.0575 39.6365C81.8802 40.0087 82.272 40.9882 82.1545 41.8501C82.1545 41.9872 82.0173 42.0068 81.8998 42.0068C80.842 42.0068 79.7842 42.0068 78.746 42.0068C78.7656 42.4965 78.8832 43.0254 79.2358 43.3976C79.6471 43.8089 80.3131 43.8481 80.842 43.6914C81.1359 43.613 81.3709 43.4172 81.6452 43.3192C81.8606 43.3388 81.9586 43.613 82.0957 43.7502C81.5668 44.3378 80.7637 44.5337 79.9997 44.4945C79.3925 44.4554 78.7852 44.2007 78.413 43.7306C77.9821 43.2017 77.8254 42.4769 77.845 41.7913C77.8646 41.1449 78.0996 40.4985 78.5502 40.0479ZM79.4512 40.283C79.0399 40.518 78.8636 40.9882 78.7852 41.4387C79.6471 41.4387 80.509 41.4387 81.3709 41.4387C81.3513 41.1057 81.273 40.7531 81.0379 40.4984C80.6461 40.0479 79.941 40.0283 79.4512 40.283ZM84.5835 39.5778C84.9361 39.3819 85.367 39.4015 85.7392 39.5386C85.7196 39.8128 85.7196 40.0871 85.6608 40.3417C85.4454 40.4593 85.1907 40.3026 84.9556 40.3417C84.4072 40.3613 84.035 40.8706 83.8979 41.3604C83.8783 42.379 83.8979 43.3976 83.8979 44.4358C83.5844 44.4358 83.2906 44.4358 82.9772 44.4358C82.9772 42.8099 82.9772 41.1645 82.9772 39.5386C83.2123 39.5582 83.4669 39.4994 83.6824 39.5778C83.8587 39.8324 83.7803 40.185 83.8195 40.4984C84.0154 40.1263 84.2309 39.7737 84.5835 39.5778ZM94.7891 39.6757C95.6119 39.284 96.748 39.3819 97.3552 40.1067C97.7666 40.5964 97.9429 41.3016 97.8254 41.9284C97.8058 41.948 97.747 41.9676 97.7274 41.9872C96.6305 42.0264 95.5335 41.9872 94.4366 42.0068C94.4561 42.4965 94.5737 43.0254 94.9263 43.3976C95.2985 43.7698 95.8861 43.8481 96.3758 43.7306C96.7088 43.6718 96.9831 43.4759 97.2769 43.3388C97.5316 43.2409 97.6491 43.5935 97.8058 43.7502C97.2769 44.3182 96.4738 44.5337 95.7098 44.4945C95.083 44.4749 94.4561 44.1811 94.0839 43.6718C93.6138 43.045 93.4767 42.2027 93.5746 41.4387C93.6726 40.6943 94.1035 39.9891 94.7891 39.6757ZM95.1417 40.283C94.7304 40.518 94.5541 40.9882 94.4757 41.4387C95.3376 41.4387 96.1995 41.4387 97.0614 41.4387C97.0418 41.0861 96.9635 40.7139 96.6892 40.4593C96.2975 40.0479 95.6315 40.0283 95.1417 40.283ZM105.837 40.1263C106.503 39.4015 107.678 39.2252 108.54 39.6953C109.285 40.1067 109.618 41.0273 109.52 41.8501C109.52 41.9872 109.383 42.0068 109.285 41.9872C108.227 41.9872 107.169 41.9872 106.111 41.9872C106.131 42.4769 106.248 43.0058 106.601 43.378C107.012 43.7893 107.678 43.8285 108.207 43.6718C108.501 43.5935 108.736 43.378 109.03 43.2996C109.245 43.3192 109.343 43.5935 109.481 43.7306C108.952 44.2986 108.148 44.5141 107.385 44.4749C106.777 44.4554 106.17 44.1811 105.798 43.711C105.367 43.2017 105.23 42.5161 105.23 41.8501C105.21 41.2428 105.406 40.5964 105.837 40.1263ZM106.797 40.283C106.386 40.518 106.209 40.9882 106.131 41.4191C106.993 41.4191 107.855 41.4191 108.717 41.4191C108.697 41.0861 108.619 40.7335 108.384 40.4789C107.992 40.0479 107.306 40.0283 106.797 40.283ZM118.041 39.7541C118.863 39.2644 120 39.3623 120.705 40.0283C120.568 40.185 120.529 40.4985 120.274 40.4789C119.921 40.3417 119.588 40.1067 119.196 40.1459C118.824 40.1263 118.393 40.3026 118.295 40.6943C118.217 40.949 118.393 41.1841 118.609 41.3016C119.196 41.615 119.921 41.6542 120.431 42.1047C120.862 42.4965 120.842 43.1821 120.587 43.6718C120.293 44.2399 119.627 44.4945 119.02 44.4945C118.393 44.5337 117.747 44.3182 117.277 43.9069C117.414 43.711 117.492 43.3584 117.806 43.4172C118.06 43.5347 118.276 43.7306 118.55 43.7893C118.922 43.8677 119.334 43.8677 119.647 43.6326C119.98 43.3976 120.039 42.8295 119.667 42.614C119.079 42.2223 118.276 42.2418 117.747 41.7325C117.198 41.1841 117.375 40.1459 118.041 39.7541ZM52.7323 39.4994C53.0458 39.4994 53.3396 39.4994 53.653 39.4994C53.653 40.5572 53.653 41.615 53.653 42.6728C53.653 43.0841 53.8293 43.5739 54.2602 43.6914C54.8675 43.8873 55.4943 43.5543 55.9057 43.1037C55.9057 41.9088 55.9057 40.6943 55.9057 39.4994C56.2191 39.4994 56.5129 39.4994 56.8264 39.4994C56.8264 41.1253 56.8264 42.7707 56.8264 44.3966C56.6109 44.3966 56.3758 44.4358 56.1408 44.377C55.9645 44.2203 56.0232 43.946 55.9449 43.7306C55.6315 44.044 55.2593 44.3378 54.8087 44.4358C54.2994 44.5337 53.7118 44.4749 53.3004 44.1223C52.889 43.7698 52.7519 43.2017 52.7519 42.6924C52.7323 41.615 52.7519 40.5572 52.7323 39.4994ZM98.0604 39.4994C98.3347 39.4994 98.6285 39.4798 98.9028 39.519C99.0399 39.5386 99.079 39.6953 99.1182 39.7933C99.4708 40.7335 99.843 41.6738 100.215 42.614C100.313 42.8883 100.391 43.1821 100.45 43.4563C100.568 42.8687 100.822 42.3202 101.038 41.7521C101.292 41.1057 101.547 40.4593 101.802 39.8128C101.861 39.6953 101.9 39.5386 102.037 39.519C102.291 39.4994 102.566 39.519 102.82 39.519C102.154 41.1449 101.508 42.7903 100.842 44.4162C100.568 44.4162 100.293 44.4162 100.019 44.4162C99.3729 42.7707 98.7265 41.1449 98.0604 39.4994ZM103.428 39.519C103.741 39.519 104.035 39.519 104.348 39.519C104.348 41.1449 104.348 42.7903 104.348 44.4162C104.035 44.4162 103.741 44.4162 103.428 44.4162C103.428 42.7903 103.428 41.1645 103.428 39.519ZM109.814 39.519C110.127 39.5582 110.48 39.4211 110.754 39.5974C110.93 40.0087 111.028 40.4789 111.165 40.9098C111.4 41.7521 111.694 42.5748 111.851 43.4367C112.164 42.2222 112.595 41.0469 112.967 39.8716C113.026 39.7345 113.046 39.5386 113.222 39.519C113.418 39.4994 113.614 39.4994 113.79 39.5386C113.947 39.617 113.966 39.8324 114.025 39.9696C114.378 41.1253 114.789 42.2614 115.083 43.4563C115.318 42.281 115.729 41.1645 116.043 40.0087C116.101 39.852 116.121 39.5778 116.337 39.5386C116.591 39.519 116.826 39.5386 117.081 39.5386C116.552 41.1645 116.043 42.8099 115.514 44.4358C115.24 44.4358 114.965 44.4554 114.711 44.4162C114.613 44.3182 114.593 44.1615 114.534 44.0244C114.182 42.8883 113.77 41.7521 113.457 40.5964C113.144 41.7717 112.713 42.9079 112.36 44.0636C112.301 44.1811 112.301 44.377 112.164 44.4162C111.91 44.4358 111.655 44.4162 111.42 44.4358C110.871 42.7903 110.342 41.1645 109.814 39.519Z" fill="#1D2019"/>
</svg>
