<svg width="159" height="58" viewBox="0 0 159 58" fill="none" xmlns="http://www.w3.org/2000/svg">
<path d="M41.8324 19.7773H57.837V22.7634H51.544V39.5494H48.0835V22.7634H41.8184V19.7773H41.8324ZM57.1533 25.2332H60.1114V27.9959H60.1673C60.2649 27.6053 60.4463 27.2285 60.7114 26.8657C60.9766 26.5029 61.2975 26.1541 61.6742 25.8611C62.051 25.5541 62.4696 25.3169 62.93 25.1215C63.3905 24.9401 63.8649 24.8425 64.3393 24.8425C64.7021 24.8425 64.9673 24.8564 65.1068 24.8704C65.2463 24.8843 65.3859 24.9122 65.5393 24.9262V27.968C65.3161 27.9262 65.0928 27.8983 64.8556 27.8704C64.6184 27.8425 64.3952 27.8285 64.1719 27.8285C63.6417 27.8285 63.1393 27.9401 62.6649 28.1494C62.1905 28.3587 61.7859 28.6797 61.437 29.0843C61.0882 29.5029 60.8091 30.0053 60.5998 30.6192C60.3905 31.2332 60.2928 31.9308 60.2928 32.7262V39.5355H57.1393V25.2332H57.1533ZM80.037 39.5494H76.9393V37.5541H76.8835C76.4928 38.2797 75.9207 38.8518 75.1533 39.2843C74.3859 39.7169 73.6045 39.9401 72.8091 39.9401C70.9254 39.9401 69.5579 39.4797 68.7207 38.5448C67.8835 37.6099 67.4649 36.2006 67.4649 34.3169V25.2332H70.6184V34.0099C70.6184 35.2657 70.8556 36.1587 71.344 36.675C71.8184 37.1913 72.5021 37.4564 73.3673 37.4564C74.037 37.4564 74.5812 37.3587 75.0277 37.1494C75.4742 36.9401 75.837 36.675 76.1021 36.3262C76.3812 35.9913 76.5765 35.5727 76.7021 35.0983C76.8277 34.6239 76.8835 34.1076 76.8835 33.5494V25.2471H80.037V39.5494ZM85.4091 34.9587C85.5068 35.8797 85.8556 36.5215 86.4556 36.8983C87.0696 37.2611 87.7952 37.4564 88.6463 37.4564C88.9393 37.4564 89.2742 37.4285 89.651 37.3866C90.0277 37.3448 90.3905 37.2471 90.7114 37.1215C91.0463 36.9959 91.3114 36.8006 91.5347 36.5494C91.744 36.2983 91.8417 35.9773 91.8277 35.5727C91.8138 35.168 91.6603 34.8332 91.3812 34.582C91.1021 34.3169 90.7533 34.1215 90.3207 33.9541C89.8882 33.8006 89.3998 33.6611 88.8417 33.5494C88.2835 33.4378 87.7254 33.3122 87.1533 33.1866C86.5672 33.0611 85.9952 32.8936 85.451 32.7122C84.9068 32.5308 84.4184 32.2797 83.9858 31.9587C83.5533 31.6518 83.2045 31.2471 82.9533 30.7587C82.6882 30.2704 82.5626 29.6704 82.5626 28.9448C82.5626 28.1634 82.7579 27.5215 83.1347 26.9913C83.5114 26.4611 83.9998 26.0425 84.5719 25.7215C85.1579 25.4006 85.7998 25.1773 86.5114 25.0378C87.2231 24.9122 87.9068 24.8425 88.5486 24.8425C89.2882 24.8425 89.9998 24.9262 90.6696 25.0797C91.3393 25.2332 91.9533 25.4843 92.4975 25.8471C93.0417 26.1959 93.4882 26.6564 93.851 27.2146C94.2138 27.7727 94.437 28.4564 94.5347 29.2518H91.2417C91.0882 28.4983 90.7533 27.982 90.2091 27.7308C89.6649 27.4657 89.037 27.3401 88.3393 27.3401C88.1161 27.3401 87.851 27.3541 87.544 27.3959C87.237 27.4378 86.9579 27.5076 86.6789 27.6053C86.4138 27.7029 86.1905 27.8564 85.9952 28.0518C85.8138 28.2471 85.7161 28.4983 85.7161 28.8192C85.7161 29.2099 85.8556 29.5169 86.1207 29.7541C86.3858 29.9913 86.7347 30.1866 87.1672 30.3541C87.5998 30.5076 88.0882 30.6471 88.6463 30.7587C89.2045 30.8704 89.7765 30.9959 90.3626 31.1215C90.9347 31.2471 91.4928 31.4146 92.051 31.5959C92.6091 31.7773 93.0975 32.0285 93.53 32.3494C93.9626 32.6704 94.3114 33.0611 94.5765 33.5355C94.8417 34.0099 94.9812 34.6099 94.9812 35.3076C94.9812 36.1587 94.7859 36.8704 94.3952 37.4704C94.0045 38.0564 93.5021 38.5448 92.8882 38.9076C92.2742 39.2704 91.5765 39.5494 90.8231 39.7169C90.0696 39.8843 89.3161 39.968 88.5765 39.968C87.6696 39.968 86.8324 39.8704 86.0649 39.6611C85.2975 39.4518 84.6277 39.1448 84.0696 38.7401C83.5114 38.3215 83.0649 37.8053 82.744 37.1913C82.4231 36.5773 82.2556 35.8378 82.2277 34.9866H85.4091V34.9587ZM95.8184 25.2332H98.2045V20.9355H101.358V25.2332H104.204V27.5913H101.358V35.2378C101.358 35.5727 101.372 35.8518 101.4 36.1029C101.428 36.3401 101.497 36.5494 101.595 36.7169C101.693 36.8843 101.846 37.0099 102.056 37.0936C102.265 37.1773 102.53 37.2192 102.893 37.2192C103.116 37.2192 103.339 37.2192 103.563 37.2053C103.786 37.1913 104.009 37.1634 104.232 37.1076V39.5494C103.884 39.5913 103.535 39.6192 103.214 39.6611C102.879 39.7029 102.544 39.7169 102.195 39.7169C101.358 39.7169 100.688 39.6332 100.186 39.4797C99.6835 39.3262 99.2789 39.089 98.9998 38.782C98.7068 38.475 98.5254 38.0983 98.4138 37.6378C98.3161 37.1773 98.2463 36.6471 98.2324 36.0611V27.6192H95.8463V25.2332H95.8184ZM106.437 25.2332H109.423V27.1727H109.479C109.925 26.3355 110.539 25.7494 111.335 25.3866C112.13 25.0239 112.981 24.8425 113.916 24.8425C115.046 24.8425 116.023 25.0378 116.86 25.4425C117.697 25.8332 118.395 26.3773 118.953 27.075C119.511 27.7727 119.916 28.582 120.195 29.5029C120.474 30.4239 120.614 31.4146 120.614 32.4611C120.614 33.4239 120.488 34.3587 120.237 35.2518C119.986 36.1587 119.609 36.9541 119.107 37.6518C118.604 38.3494 117.963 38.8936 117.181 39.3122C116.4 39.7308 115.493 39.9401 114.432 39.9401C113.972 39.9401 113.511 39.8983 113.051 39.8146C112.59 39.7308 112.144 39.5913 111.725 39.4099C111.307 39.2285 110.902 38.9913 110.553 38.6983C110.19 38.4053 109.897 38.0704 109.646 37.6936H109.59V44.8378H106.437V25.2332ZM117.46 32.4053C117.46 31.7634 117.377 31.1355 117.209 30.5215C117.042 29.9076 116.79 29.3773 116.456 28.9029C116.121 28.4285 115.702 28.0518 115.214 27.7727C114.711 27.4936 114.139 27.3401 113.497 27.3401C112.172 27.3401 111.167 27.8006 110.497 28.7215C109.828 29.6425 109.493 30.8704 109.493 32.4053C109.493 33.1308 109.577 33.8006 109.758 34.4146C109.939 35.0285 110.19 35.5587 110.553 36.0053C110.902 36.4518 111.321 36.8006 111.809 37.0518C112.297 37.3169 112.87 37.4425 113.511 37.4425C114.237 37.4425 114.837 37.289 115.339 36.9959C115.842 36.7029 116.246 36.3122 116.567 35.8518C116.888 35.3773 117.125 34.8471 117.265 34.2471C117.39 33.6471 117.46 33.0332 117.46 32.4053ZM123.028 19.7773H126.181V22.7634H123.028V19.7773ZM123.028 25.2332H126.181V39.5494H123.028V25.2332ZM129 19.7773H132.153V39.5494H129V19.7773ZM141.823 39.9401C140.679 39.9401 139.66 39.7448 138.767 39.368C137.874 38.9913 137.121 38.4611 136.493 37.8053C135.879 37.1355 135.404 36.3401 135.084 35.4192C134.763 34.4983 134.595 33.4797 134.595 32.3773C134.595 31.289 134.763 30.2843 135.084 29.3634C135.404 28.4425 135.879 27.6471 136.493 26.9773C137.107 26.3076 137.874 25.7913 138.767 25.4146C139.66 25.0378 140.679 24.8425 141.823 24.8425C142.967 24.8425 143.986 25.0378 144.879 25.4146C145.772 25.7913 146.525 26.3215 147.153 26.9773C147.767 27.6471 148.242 28.4425 148.563 29.3634C148.884 30.2843 149.051 31.289 149.051 32.3773C149.051 33.4797 148.884 34.4983 148.563 35.4192C148.242 36.3401 147.767 37.1355 147.153 37.8053C146.539 38.475 145.772 38.9913 144.879 39.368C143.986 39.7448 142.967 39.9401 141.823 39.9401ZM141.823 37.4425C142.521 37.4425 143.135 37.289 143.651 36.9959C144.167 36.7029 144.586 36.3122 144.921 35.8378C145.256 35.3634 145.493 34.8192 145.66 34.2192C145.814 33.6192 145.897 33.0053 145.897 32.3773C145.897 31.7634 145.814 31.1634 145.66 30.5494C145.507 29.9355 145.256 29.4053 144.921 28.9308C144.586 28.4564 144.167 28.0797 143.651 27.7866C143.135 27.4936 142.521 27.3401 141.823 27.3401C141.125 27.3401 140.511 27.4936 139.995 27.7866C139.479 28.0797 139.06 28.4704 138.725 28.9308C138.39 29.4053 138.153 29.9355 137.986 30.5494C137.832 31.1634 137.749 31.7634 137.749 32.3773C137.749 33.0053 137.832 33.6192 137.986 34.2192C138.139 34.8192 138.39 35.3634 138.725 35.8378C139.06 36.3122 139.479 36.7029 139.995 36.9959C140.511 37.3029 141.125 37.4425 141.823 37.4425ZM149.972 25.2332H152.358V20.9355H155.511V25.2332H158.358V27.5913H155.511V35.2378C155.511 35.5727 155.525 35.8518 155.553 36.1029C155.581 36.3401 155.651 36.5494 155.749 36.7169C155.846 36.8843 156 37.0099 156.209 37.0936C156.418 37.1773 156.684 37.2192 157.046 37.2192C157.27 37.2192 157.493 37.2192 157.716 37.2053C157.939 37.1913 158.163 37.1634 158.386 37.1076V39.5494C158.037 39.5913 157.688 39.6192 157.367 39.6611C157.032 39.7029 156.697 39.7169 156.349 39.7169C155.511 39.7169 154.842 39.6332 154.339 39.4797C153.837 39.3262 153.432 39.089 153.153 38.782C152.86 38.475 152.679 38.0983 152.567 37.6378C152.47 37.1773 152.4 36.6471 152.386 36.0611V27.6192H150V25.2332H149.972Z" fill="#191919"/>
<path d="M38.1488 24.7581H23.693L19.2279 11L14.7488 24.7581L0.292969 24.7442L11.9999 33.2558L7.52087 47L19.2279 38.5023L30.9209 47L26.4558 33.2558L38.1488 24.7581Z" fill="#1D2019"/>
<path d="M27.4606 36.3675L26.456 33.2559L19.228 38.5024L27.4606 36.3675Z" fill="#828282"/>
</svg>
