<svg width="116" height="58" viewBox="0 0 116 58" fill="none" xmlns="http://www.w3.org/2000/svg">
<path d="M71.22 30.3641C74.9472 30.3641 77.0029 33.1883 77.0029 36.5504C77.0029 40.5658 74.5821 43.0058 71.0279 43.0058C67.416 43.0058 65.3026 40.2584 65.3026 36.781C65.3026 33.0922 67.6273 30.3641 71.22 30.3641ZM48.6071 30.3641C49.9712 30.3641 50.9894 30.6523 51.7195 30.9789L51.1047 33.2075C50.6244 32.9769 49.7598 32.6311 48.5687 32.6311C47.3775 32.6311 46.8012 33.1691 46.8012 33.8031C46.8012 34.5908 47.4928 34.9366 49.049 35.5322C51.2008 36.3391 52.1998 37.4534 52.1998 39.1825C52.1998 41.2382 50.6244 42.9865 47.3007 42.9865C45.9174 42.9865 44.5341 42.6215 43.8617 42.2373L44.4188 39.951C45.1681 40.3353 46.3016 40.7195 47.4736 40.7195C48.7416 40.7195 49.3948 40.2008 49.3948 39.3939C49.3948 38.6254 48.8184 38.2027 47.3583 37.6647C45.341 36.9539 44.0154 35.8396 44.0154 34.0528C43.9962 31.9587 45.7253 30.3641 48.6071 30.3641ZM92.9299 30.3641C94.294 30.3641 95.3122 30.6523 96.0423 30.9789L95.4275 33.2075C94.9472 32.9769 94.0826 32.6311 92.8915 32.6311C91.7003 32.6311 91.1239 33.1691 91.1239 33.8031C91.1239 34.5908 91.8156 34.9366 93.3718 35.5322C95.5235 36.3391 96.5226 37.4534 96.5226 39.1825C96.5226 41.2382 94.9472 42.9865 91.6234 42.9865C90.2402 42.9865 88.8569 42.6215 88.1844 42.2373L88.7416 39.951C89.4909 40.3353 90.6244 40.7195 91.7963 40.7195C93.0644 40.7195 93.7176 40.2008 93.7176 39.3939C93.7176 38.6254 93.1412 38.2027 91.6811 37.6647C89.6638 36.9539 88.3381 35.8396 88.3381 34.0528C88.3189 31.9587 90.048 30.3641 92.9299 30.3641ZM56.4457 30.5562V35.2632H60.9798V30.5562H63.7272V42.7944H60.9798V37.6647H56.4457V42.7944H53.6792V30.5562H56.4457ZM82.2671 30.4601C83.9577 30.4601 85.1681 30.7867 85.975 31.44C86.7435 32.0548 87.2815 33.073 87.2815 34.2642C87.2815 35.4553 86.878 36.4736 86.1672 37.1652C85.2257 38.049 83.8425 38.4524 82.2094 38.4524C81.8444 38.4524 81.5178 38.4332 81.268 38.3948V42.7752H78.5399V30.6907C79.4044 30.5754 80.5956 30.4601 82.2671 30.4601ZM71.1431 32.5543C69.2795 32.5543 68.2037 34.341 68.2037 36.7041C68.2037 39.1057 69.318 40.7963 71.1623 40.7963C73.0259 40.7963 74.0826 39.0096 74.0826 36.6465C74.0826 34.4371 73.0452 32.5543 71.1431 32.5543ZM82.4208 32.5543C81.8636 32.5543 81.4794 32.6119 81.2872 32.6695V36.2815C81.5178 36.3391 81.806 36.3583 82.2094 36.3583C83.6695 36.3583 84.5725 35.609 84.5725 34.3602C84.5533 33.2267 83.7848 32.5543 82.4208 32.5543ZM19.8655 9C30.8357 9 39.731 17.9529 39.731 29C39.731 40.0471 30.8357 49 19.8655 49C8.89529 49 0 40.0471 0 29C0 17.9529 8.89529 9 19.8655 9ZM66.9164 15.3977V22.487C66.9164 24.6004 67.7233 25.6763 69.1258 25.6763C70.586 25.6763 71.3737 24.658 71.3737 22.487V15.3977H74.1403V22.2949C74.1403 26.0989 72.2382 27.9049 69.049 27.9049C65.9558 27.9049 64.1499 26.195 64.1499 22.2565V15.3977H66.9164ZM80.3458 15.1864C81.7291 15.1864 82.7474 15.4745 83.4582 15.8011L82.8434 18.049C82.3631 17.8184 81.4793 17.4726 80.2882 17.4726C79.097 17.4726 78.5014 18.0298 78.5014 18.6638C78.5014 19.4515 79.1931 19.7973 80.7685 20.3929C82.9203 21.1998 83.9385 22.3333 83.9385 24.0624C83.9385 26.1182 82.3631 27.8857 79.001 27.8857C77.5985 27.8857 76.2344 27.5207 75.5428 27.1364L76.0999 24.8309C76.8492 25.2152 77.9827 25.5994 79.1739 25.5994C80.4419 25.5994 81.1143 25.0615 81.1143 24.2738C81.1143 23.5053 80.5379 23.0634 79.0586 22.5447C77.0221 21.8338 75.6964 20.7003 75.6964 18.9136C75.7157 16.8002 77.464 15.1864 80.3458 15.1864ZM108.204 15.3016C110.528 15.3016 112.027 15.7243 113.218 16.6081C114.486 17.5495 115.293 19.0672 115.293 21.2382C115.293 23.6013 114.448 25.2152 113.256 26.2142C111.969 27.2901 110.01 27.8088 107.608 27.8088C106.167 27.8088 105.168 27.7128 104.476 27.6167V15.5322C105.476 15.3977 106.801 15.3016 108.204 15.3016ZM19.7118 16.3391C12.7954 16.3391 7.1854 21.9875 7.1854 28.9424C7.1854 35.8972 12.7954 41.5456 19.7118 41.5456C26.6282 41.5456 32.2382 35.8972 32.2382 28.9424C32.219 21.9875 26.6282 16.3391 19.7118 16.3391ZM52.7378 15.3977V17.7416H49.3948V27.7128H46.6282V17.7416H43.3429V15.3977H52.7378ZM57.464 15.3016C59.2699 15.3016 60.5572 15.5706 61.4217 16.2622C62.1518 16.8386 62.5552 17.7032 62.5552 18.8367C62.5552 20.4121 61.4409 21.488 60.4035 21.8722V21.9299C61.2488 22.2757 61.7291 23.1018 62.0365 24.2353C62.4207 25.6186 62.805 27.2325 63.0355 27.7128H60.2113C60.0192 27.367 59.7118 26.3679 59.366 24.8501C59.0394 23.3132 58.5207 22.8905 57.3871 22.8713H56.561V27.7128H53.7944V15.5706C54.6782 15.4169 56.0038 15.3016 57.464 15.3016ZM93.8905 15.3977V17.7416H90.5476V27.7128H87.781V17.7416H84.4957V15.3977H93.8905ZM102.498 15.3977V17.684H97.733V20.2392H102.229V22.5062H97.733V25.4265H102.767V27.7128H94.9664V15.3977H102.498ZM108.492 17.4342C107.877 17.4342 107.474 17.4918 107.243 17.5495V25.5994C107.474 25.6571 107.858 25.6571 108.204 25.6571C110.701 25.6763 112.334 24.293 112.334 21.3535C112.354 18.7791 110.874 17.4342 108.492 17.4342ZM22.171 20.3929C24.2267 20.3929 26.9933 21.2382 26.9933 23.7358C26.9933 28.2315 19.9808 29.7493 16.5418 30.633C16.4265 31.3823 16.3112 32.1508 16.3112 32.9001C16.3112 34.4563 17.1374 35.8972 18.8473 35.8972C21.0567 35.8972 22.8434 33.7454 24.1499 32.1508L25.1489 32.9001C23.3237 35.609 20.7877 38.0874 17.3871 38.0874C13.7944 38.0874 11.6811 35.8204 11.6811 32.1508C11.6811 26.195 16.0423 20.3929 22.171 20.3929ZM57.7714 17.3574C57.0989 17.3574 56.7147 17.415 56.5226 17.4534V20.854H57.6177C59.001 20.854 59.8079 20.1623 59.8079 19.0865C59.8079 17.9529 59.0394 17.3766 57.7714 17.3574ZM21.7867 21.5841C18.9433 21.5841 17.464 27.1556 16.926 29.3458C19.5773 28.5581 23.2661 26.3487 23.2661 23.2171C23.2469 22.2949 22.7281 21.5841 21.7867 21.5841Z" fill="black"/>
</svg>
