<svg width="122" height="58" viewBox="0 0 122 58" fill="none" xmlns="http://www.w3.org/2000/svg">
<path fill-rule="evenodd" clip-rule="evenodd" d="M7.58218 17.6623L12.0205 29.8995L16.671 17.6623H23.2725L11.9839 46H5.45454L8.79352 37.2192L0.768555 17.6623H7.58218ZM77.3088 17.2284C83.2696 17.2284 87.6164 21.854 87.6164 28.1853C87.6164 34.5165 83.2696 39.1433 77.3088 39.1433C75.109 39.1433 73.257 38.5608 71.8432 37.4377L71.7517 37.3634L71.6731 37.2988V45.9935H65.3117V17.6623H70.9366V19.7803L70.9689 19.7436C72.3547 18.163 74.4511 17.2887 77.0418 17.2316L77.1785 17.2294L77.3088 17.2284ZM34.8593 17.2284C41.4231 17.2284 46.0757 21.7636 46.0757 28.1853C46.0757 34.5801 41.408 39.1433 34.8593 39.1433C28.2739 39.1433 23.5987 34.5865 23.5987 28.1853C23.5987 21.7571 28.2578 17.2284 34.8593 17.2284ZM56.6741 13V17.6623H61.9071V23.1569H56.6741V30.7415C56.6741 32.4384 57.4978 33.372 58.9988 33.429L59.072 33.4301L59.1463 33.4312C60.1638 33.4312 60.9348 33.1642 61.625 32.5009L61.6896 32.4374L61.8608 32.2618H61.9081V38.3228L61.7132 38.4165C60.6656 38.9172 60.0206 39.1433 58.2354 39.1433C53.1919 39.1433 50.4225 36.3976 50.3149 31.2702L50.3127 31.114V30.9579L50.3116 23.1569H48.0096V17.6623H50.485V13H56.6741ZM101.517 17.2284C108.081 17.2284 112.734 21.7636 112.734 28.1853C112.734 34.5801 108.066 39.1433 101.517 39.1433C94.9318 39.1433 90.2566 34.5865 90.2566 28.1853C90.2566 21.7571 94.9168 17.2284 101.517 17.2284ZM117.919 32.1714C119.844 32.1714 121.405 33.7327 121.405 35.6568C121.405 37.582 119.843 39.1433 117.919 39.1433C115.994 39.1433 114.434 37.582 114.434 35.6568C114.434 33.7316 115.995 32.1714 117.919 32.1714ZM76.3559 22.9405C73.4896 22.9405 71.5428 25.0617 71.5428 28.1853C71.5428 31.31 73.4896 33.4312 76.3559 33.4312C79.2588 33.4312 81.212 31.3165 81.212 28.1853C81.212 25.0552 79.2588 22.9405 76.3559 22.9405ZM34.8582 22.9405C31.9833 22.9405 30.0032 25.0724 30.0032 28.1853C30.0032 31.2992 31.9833 33.4312 34.8593 33.4312C37.6976 33.4312 39.6723 31.2928 39.6723 28.1853C39.6723 25.0789 37.6965 22.9405 34.8582 22.9405ZM101.517 22.9405C98.6423 22.9405 96.6611 25.0724 96.6611 28.1853C96.6611 31.2992 98.6423 33.4312 101.517 33.4312C104.355 33.4312 106.33 31.2928 106.33 28.1853C106.33 25.0789 104.355 22.9405 101.517 22.9405Z" fill="#1D2019"/>
</svg>
